Hoogli-Regular_b007.ufo
<glyph name="numbersign" format="1">
  <advance width="597"/>
  <unicode hex="0023"/>
  <outline>
    <contour>
      <point x="298" y="-8" type="curve" smooth="yes"/>
      <point x="309" y="-12"/>
      <point x="324" y="-6"/>
      <point x="328" y="5" type="curve" smooth="yes"/>
      <point x="513" y="509" type="line" smooth="yes"/>
      <point x="517" y="521"/>
      <point x="511" y="534"/>
      <point x="499" y="539" type="curve" smooth="yes"/>
      <point x="487" y="543"/>
      <point x="473" y="537"/>
      <point x="468" y="525" type="curve" smooth="yes"/>
      <point x="283" y="22" type="line" smooth="yes"/>
      <point x="279" y="10"/>
      <point x="286" y="-4"/>
    </contour>
    <contour>
      <point x="472" y="152" type="line" smooth="yes"/>
      <point x="485" y="152"/>
      <point x="495" y="163"/>
      <point x="495" y="175" type="curve" smooth="yes"/>
      <point x="495" y="188"/>
      <point x="485" y="198"/>
      <point x="472" y="198" type="curve" smooth="yes"/>
      <point x="48" y="198" type="line" smooth="yes"/>
      <point x="35" y="198"/>
      <point x="24" y="188"/>
      <point x="24" y="175" type="curve" smooth="yes"/>
      <point x="24" y="163"/>
      <point x="35" y="152"/>
      <point x="48" y="152" type="curve" smooth="yes"/>
    </contour>
    <contour>
      <point x="88" y="-8" type="curve" smooth="yes"/>
      <point x="99" y="-12"/>
      <point x="114" y="-6"/>
      <point x="118" y="5" type="curve" smooth="yes"/>
      <point x="303" y="509" type="line" smooth="yes"/>
      <point x="307" y="521"/>
      <point x="301" y="534"/>
      <point x="289" y="539" type="curve" smooth="yes"/>
      <point x="277" y="543"/>
      <point x="263" y="537"/>
      <point x="258" y="525" type="curve" smooth="yes"/>
      <point x="73" y="22" type="line" smooth="yes"/>
      <point x="69" y="10"/>
      <point x="76" y="-4"/>
    </contour>
    <contour>
      <point x="545" y="360" type="line" smooth="yes"/>
      <point x="558" y="360"/>
      <point x="568" y="371"/>
      <point x="568" y="383" type="curve" smooth="yes"/>
      <point x="568" y="396"/>
      <point x="558" y="406"/>
      <point x="545" y="406" type="curve" smooth="yes"/>
      <point x="120" y="406" type="line" smooth="yes"/>
      <point x="107" y="406"/>
      <point x="96" y="396"/>
      <point x="96" y="383" type="curve" smooth="yes"/>
      <point x="96" y="371"/>
      <point x="107" y="360"/>
      <point x="120" y="360" type="curve" smooth="yes"/>
    </contour>
  </outline>
</glyph>
<glyph name="ampersand" format="1">
  <advance width="637"/>
  <unicode hex="0026"/>
  <outline>
    <contour>
      <point x="231" y="-18" type="curve" smooth="yes"/>
      <point x="313" y="-18"/>
      <point x="376" y="18"/>
      <point x="461" y="137" type="curve" smooth="yes"/>
      <point x="551" y="264" type="line" smooth="yes"/>
      <point x="559" y="275"/>
      <point x="555" y="290"/>
      <point x="546" y="297" type="curve" smooth="yes"/>
      <point x="535" y="305"/>
      <point x="520" y="302"/>
      <point x="513" y="292" type="curve" smooth="yes"/>
      <point x="423" y="165" type="line" smooth="yes"/>
      <point x="352" y="64"/>
      <point x="301" y="29"/>
      <point x="231" y="29" type="curve" smooth="yes"/>
      <point x="160" y="29"/>
      <point x="107" y="69"/>
      <point x="107" y="127" type="curve" smooth="yes"/>
      <point x="107" y="190"/>
      <point x="145" y="235"/>
      <point x="281" y="289" type="curve" smooth="yes"/>
      <point x="359" y="323"/>
      <point x="392" y="368"/>
      <point x="392" y="426" type="curve" smooth="yes"/>
      <point x="392" y="493"/>
      <point x="334" y="549"/>
      <point x="257" y="549" type="curve" smooth="yes"/>
      <point x="181" y="549"/>
      <point x="125" y="499"/>
      <point x="125" y="422" type="curve" smooth="yes"/>
      <point x="125" y="360"/>
      <point x="168" y="311"/>
      <point x="237" y="251" type="curve" smooth="yes"/>
      <point x="532" y="-4" type="line" smooth="yes"/>
      <point x="542" y="-12"/>
      <point x="557" y="-11"/>
      <point x="565" y="-1" type="curve" smooth="yes"/>
      <point x="573" y="8"/>
      <point x="572" y="23"/>
      <point x="563" y="31" type="curve" smooth="yes"/>
      <point x="268" y="286" type="line" smooth="yes"/>
      <point x="213" y="334"/>
      <point x="173" y="371"/>
      <point x="173" y="422" type="curve" smooth="yes"/>
      <point x="173" y="470"/>
      <point x="209" y="503"/>
      <point x="257" y="503" type="curve" smooth="yes"/>
      <point x="306" y="503"/>
      <point x="344" y="470"/>
      <point x="344" y="426" type="curve" smooth="yes"/>
      <point x="344" y="385"/>
      <point x="317" y="355"/>
      <point x="262" y="333" type="curve" smooth="yes"/>
      <point x="91" y="262"/>
      <point x="59" y="202"/>
      <point x="59" y="127" type="curve" smooth="yes"/>
      <point x="59" y="47"/>
      <point x="127" y="-18"/>
    </contour>
  </outline>
</glyph>
<glyph name="parenleft" format="1">
  <advance width="323"/>
  <unicode hex="0028"/>
  <outline>
    <contour>
      <point x="223" y="-106" type="curve" smooth="yes"/>
      <point x="231" y="-111"/>
      <point x="243" y="-107"/>
      <point x="247" y="-98" type="curve" smooth="yes"/>
      <point x="244" y="-81"/>
      <point x="236" y="-55"/>
      <point x="230" y="-31" type="curve" smooth="yes"/>
      <point x="162" y="56"/>
      <point x="119" y="177"/>
      <point x="130" y="303" type="curve" smooth="yes"/>
      <point x="132" y="421"/>
      <point x="185" y="536"/>
      <point x="248" y="611" type="curve" smooth="yes"/>
      <point x="251" y="620"/>
      <point x="246" y="631"/>
      <point x="237" y="634" type="curve" smooth="yes"/>
      <point x="218" y="628"/>
      <point x="197" y="608"/>
      <point x="191" y="581" type="curve" smooth="yes"/>
      <point x="120" y="484"/>
      <point x="73" y="346"/>
      <point x="86" y="209" type="curve" smooth="yes"/>
      <point x="88" y="83"/>
      <point x="146" y="-31"/>
    </contour>
  </outline>
</glyph>
<glyph name="asterisk" format="1">
  <advance width="424"/>
  <unicode hex="002A"/>
  <outline>
    <contour>
      <point x="346" y="462" type="line" smooth="yes"/>
      <point x="357" y="468"/>
      <point x="361" y="483"/>
      <point x="355" y="493" type="curve" smooth="yes"/>
      <point x="349" y="503"/>
      <point x="334" y="508"/>
      <point x="323" y="501" type="curve" smooth="yes"/>
      <point x="78" y="359" type="line" smooth="yes"/>
      <point x="63" y="351"/>
      <point x="61" y="343"/>
      <point x="70" y="328" type="curve" smooth="yes"/>
      <point x="76" y="318"/>
      <point x="91" y="314"/>
      <point x="101" y="320" type="curve" smooth="yes"/>
    </contour>
    <contour>
      <point x="323" y="320" type="line" smooth="yes"/>
      <point x="334" y="314"/>
      <point x="349" y="318"/>
      <point x="355" y="328" type="curve" smooth="yes"/>
      <point x="361" y="339"/>
      <point x="357" y="353"/>
      <point x="346" y="359" type="curve" smooth="yes"/>
      <point x="101" y="501" type="line" smooth="yes"/>
      <point x="91" y="508"/>
      <point x="76" y="503"/>
      <point x="70" y="493" type="curve" smooth="yes"/>
      <point x="63" y="483"/>
      <point x="67" y="468"/>
      <point x="78" y="462" type="curve" smooth="yes"/>
    </contour>
    <contour>
      <point x="212" y="261" type="curve" smooth="yes"/>
      <point x="224" y="261"/>
      <point x="235" y="272"/>
      <point x="235" y="284" type="curve" smooth="yes"/>
      <point x="235" y="542" type="line" smooth="yes"/>
      <point x="235" y="555"/>
      <point x="224" y="565"/>
      <point x="212" y="565" type="curve" smooth="yes"/>
      <point x="199" y="565"/>
      <point x="188" y="555"/>
      <point x="188" y="542" type="curve" smooth="yes"/>
      <point x="188" y="284" type="line" smooth="yes"/>
      <point x="188" y="272"/>
      <point x="199" y="261"/>
    </contour>
  </outline>
</glyph>
<glyph name="plus" format="1">
  <advance width="528"/>
  <unicode hex="002B"/>
  <outline>
    <contour>
      <point x="441" y="241" type="line" smooth="yes"/>
      <point x="454" y="241"/>
      <point x="464" y="252"/>
      <point x="464" y="264" type="curve" smooth="yes"/>
      <point x="464" y="277"/>
      <point x="454" y="287"/>
      <point x="441" y="287" type="curve" smooth="yes"/>
      <point x="87" y="287" type="line" smooth="yes"/>
      <point x="74" y="287"/>
      <point x="63" y="277"/>
      <point x="63" y="264" type="curve" smooth="yes"/>
      <point x="63" y="252"/>
      <point x="74" y="241"/>
      <point x="87" y="241" type="curve" smooth="yes"/>
    </contour>
    <contour>
      <point x="264" y="71" type="curve" smooth="yes"/>
      <point x="277" y="71"/>
      <point x="288" y="81"/>
      <point x="288" y="94" type="curve" smooth="yes"/>
      <point x="288" y="434" type="line" smooth="yes"/>
      <point x="288" y="447"/>
      <point x="277" y="457"/>
      <point x="264" y="457" type="curve" smooth="yes"/>
      <point x="251" y="457"/>
      <point x="240" y="447"/>
      <point x="240" y="434" type="curve" smooth="yes"/>
      <point x="240" y="94" type="line" smooth="yes"/>
      <point x="240" y="81"/>
      <point x="251" y="71"/>
    </contour>
  </outline>
</glyph>
<glyph name="comma" format="1">
  <advance width="213"/>
  <unicode hex="002C"/>
  <outline>
    <contour>
      <point x="50" y="-118" type="curve" smooth="yes"/>
      <point x="60" y="-125"/>
      <point x="75" y="-124"/>
      <point x="83" y="-113" type="curve" smooth="yes"/>
      <point x="112" y="-74"/>
      <point x="132" y="-20"/>
      <point x="132" y="32" type="curve" smooth="yes"/>
      <point x="132" y="55"/>
      <point x="129" y="77"/>
      <point x="124" y="90" type="curve" smooth="yes"/>
      <point x="121" y="102"/>
      <point x="106" y="108"/>
      <point x="95" y="105" type="curve" smooth="yes"/>
      <point x="82" y="101"/>
      <point x="75" y="87"/>
      <point x="79" y="76" type="curve" smooth="yes"/>
      <point x="83" y="65"/>
      <point x="84" y="49"/>
      <point x="84" y="32" type="curve" smooth="yes"/>
      <point x="84" y="-11"/>
      <point x="69" y="-54"/>
      <point x="45" y="-86" type="curve" smooth="yes"/>
      <point x="38" y="-96"/>
      <point x="39" y="-111"/>
    </contour>
  </outline>
</glyph>
<glyph name="hyphen" format="1">
  <advance width="399"/>
  <unicode hex="002D"/>
  <outline>
    <contour>
      <point x="299" y="196" type="line" smooth="yes"/>
      <point x="312" y="196"/>
      <point x="322" y="206"/>
      <point x="322" y="219" type="curve" smooth="yes"/>
      <point x="322" y="231"/>
      <point x="312" y="242"/>
      <point x="299" y="242" type="curve" smooth="yes"/>
      <point x="100" y="242" type="line" smooth="yes"/>
      <point x="87" y="242"/>
      <point x="76" y="231"/>
      <point x="76" y="219" type="curve" smooth="yes"/>
      <point x="76" y="206"/>
      <point x="87" y="196"/>
      <point x="100" y="196" type="curve" smooth="yes"/>
    </contour>
  </outline>
</glyph>
<glyph name="period" format="1">
  <advance width="207"/>
  <unicode hex="002E"/>
  <outline>
    <contour>
      <point x="106" y="-4" type="curve" smooth="yes"/>
      <point x="130" y="-4"/>
      <point x="151" y="11"/>
      <point x="151" y="49" type="curve" smooth="yes"/>
      <point x="151" y="80"/>
      <point x="129" y="102"/>
      <point x="105" y="102" type="curve" smooth="yes"/>
      <point x="76" y="102"/>
      <point x="60" y="81"/>
      <point x="60" y="49" type="curve" smooth="yes"/>
      <point x="60" y="12"/>
      <point x="82" y="-4"/>
    </contour>
  </outline>
</glyph>
<glyph name="slash" format="1">
  <advance width="386"/>
  <unicode hex="002F"/>
  <outline>
    <contour>
      <point x="52" y="-112" type="curve" smooth="yes"/>
      <point x="63" y="-116"/>
      <point x="78" y="-110"/>
      <point x="82" y="-99" type="curve" smooth="yes"/>
      <point x="343" y="609" type="line" smooth="yes"/>
      <point x="347" y="621"/>
      <point x="341" y="635"/>
      <point x="329" y="639" type="curve" smooth="yes"/>
      <point x="317" y="643"/>
      <point x="303" y="637"/>
      <point x="298" y="625" type="curve" smooth="yes"/>
      <point x="37" y="-83" type="line" smooth="yes"/>
      <point x="33" y="-94"/>
      <point x="40" y="-108"/>
    </contour>
  </outline>
</glyph>
<glyph name="zero" format="1">
  <advance width="565"/>
  <unicode hex="0030"/>
  <outline>
    <contour>
      <point x="284" y="-19" type="curve" smooth="yes"/>
      <point x="428" y="-19"/>
      <point x="515" y="108"/>
      <point x="515" y="267" type="curve" smooth="yes"/>
      <point x="515" y="436"/>
      <point x="409" y="550"/>
      <point x="284" y="550" type="curve" smooth="yes"/>
      <point x="149" y="550"/>
      <point x="50" y="436"/>
      <point x="50" y="265" type="curve" smooth="yes"/>
      <point x="50" y="108"/>
      <point x="151" y="-19"/>
    </contour>
    <contour>
      <point x="284" y="28" type="curve" smooth="yes"/>
      <point x="172" y="28"/>
      <point x="98" y="141"/>
      <point x="98" y="265" type="curve" smooth="yes"/>
      <point x="98" y="401"/>
      <point x="170" y="504"/>
      <point x="284" y="504" type="curve" smooth="yes"/>
      <point x="388" y="504"/>
      <point x="467" y="401"/>
      <point x="467" y="267" type="curve" smooth="yes"/>
      <point x="467" y="141"/>
      <point x="405" y="28"/>
    </contour>
  </outline>
</glyph>
<glyph name="one" format="1">
  <advance width="315"/>
  <unicode hex="0031"/>
  <outline>
    <contour>
      <point x="201" y="-10" type="curve" smooth="yes"/>
      <point x="214" y="-10"/>
      <point x="225" y="1"/>
      <point x="225" y="14" type="curve" smooth="yes"/>
      <point x="225" y="511" type="line" smooth="yes"/>
      <point x="225" y="524"/>
      <point x="214" y="534"/>
      <point x="201" y="534" type="curve" smooth="yes"/>
      <point x="188" y="534"/>
      <point x="177" y="524"/>
      <point x="177" y="511" type="curve" smooth="yes"/>
      <point x="177" y="14" type="line" smooth="yes"/>
      <point x="177" y="1"/>
      <point x="188" y="-10"/>
    </contour>
    <contour>
      <point x="212" y="498" type="line" smooth="yes"/>
      <point x="223" y="504"/>
      <point x="227" y="518"/>
      <point x="222" y="530" type="curve" smooth="yes"/>
      <point x="215" y="540"/>
      <point x="201" y="545"/>
      <point x="189" y="539" type="curve" smooth="yes"/>
      <point x="53" y="465" type="line" smooth="yes"/>
      <point x="42" y="459"/>
      <point x="38" y="445"/>
      <point x="44" y="433" type="curve" smooth="yes"/>
      <point x="51" y="423"/>
      <point x="65" y="418"/>
      <point x="76" y="424" type="curve" smooth="yes"/>
    </contour>
  </outline>
</glyph>
<glyph name="four" format="1">
  <advance width="529"/>
  <unicode hex="0034"/>
  <outline>
    <contour>
      <point x="35" y="125" type="curve" smooth="yes"/>
      <point x="45" y="117"/>
      <point x="60" y="118"/>
      <point x="68" y="127" type="curve" smooth="yes"/>
      <point x="382" y="504" type="line" smooth="yes"/>
      <point x="390" y="514"/>
      <point x="388" y="529"/>
      <point x="379" y="537" type="curve" smooth="yes"/>
      <point x="369" y="545"/>
      <point x="353" y="543"/>
      <point x="346" y="534" type="curve" smooth="yes"/>
      <point x="32" y="157" type="line" smooth="yes"/>
      <point x="24" y="147"/>
      <point x="25" y="132"/>
    </contour>
    <contour>
      <point x="485" y="119" type="line" smooth="yes"/>
      <point x="498" y="119"/>
      <point x="508" y="130"/>
      <point x="508" y="142" type="curve" smooth="yes"/>
      <point x="508" y="155"/>
      <point x="498" y="165"/>
      <point x="485" y="165" type="curve" smooth="yes"/>
      <point x="61" y="165" type="line" smooth="yes"/>
      <point x="48" y="165"/>
      <point x="37" y="155"/>
      <point x="37" y="142" type="curve" smooth="yes"/>
      <point x="37" y="130"/>
      <point x="48" y="119"/>
      <point x="61" y="119" type="curve" smooth="yes"/>
    </contour>
    <contour>
      <point x="371" y="-10" type="curve" smooth="yes"/>
      <point x="384" y="-10"/>
      <point x="395" y="1"/>
      <point x="395" y="14" type="curve" smooth="yes"/>
      <point x="395" y="528" type="line" smooth="yes"/>
      <point x="395" y="541"/>
      <point x="384" y="551"/>
      <point x="371" y="551" type="curve" smooth="yes"/>
      <point x="358" y="551"/>
      <point x="347" y="541"/>
      <point x="347" y="528" type="curve" smooth="yes"/>
      <point x="347" y="14" type="line" smooth="yes"/>
      <point x="347" y="1"/>
      <point x="358" y="-10"/>
    </contour>
  </outline>
</glyph>
<glyph name="five" format="1">
  <advance width="518"/>
  <unicode hex="0035"/>
  <outline>
    <contour>
      <point x="265" y="-14" type="curve" smooth="yes"/>
      <point x="402" y="-14"/>
      <point x="464" y="65"/>
      <point x="464" y="163" type="curve" smooth="yes"/>
      <point x="464" y="256"/>
      <point x="393" y="328"/>
      <point x="270" y="328" type="curve" smooth="yes"/>
      <point x="195" y="328"/>
      <point x="142" y="309"/>
      <point x="105" y="292" type="curve" smooth="yes"/>
      <point x="95" y="286"/>
      <point x="89" y="273"/>
      <point x="95" y="261" type="curve" smooth="yes"/>
      <point x="100" y="250"/>
      <point x="114" y="245"/>
      <point x="126" y="250" type="curve" smooth="yes"/>
      <point x="158" y="265"/>
      <point x="204" y="282"/>
      <point x="270" y="282" type="curve" smooth="yes"/>
      <point x="358" y="282"/>
      <point x="416" y="233"/>
      <point x="416" y="163" type="curve" smooth="yes"/>
      <point x="416" y="89"/>
      <point x="367" y="32"/>
      <point x="265" y="32" type="curve" smooth="yes"/>
      <point x="199" y="32"/>
      <point x="139" y="47"/>
      <point x="96" y="67" type="curve" smooth="yes"/>
      <point x="85" y="72"/>
      <point x="70" y="67"/>
      <point x="66" y="56" type="curve" smooth="yes"/>
      <point x="60" y="45"/>
      <point x="66" y="30"/>
      <point x="77" y="25" type="curve" smooth="yes"/>
      <point x="125" y="4"/>
      <point x="192" y="-14"/>
    </contour>
    <contour>
      <point x="113" y="254" type="curve" smooth="yes"/>
      <point x="126" y="253"/>
      <point x="139" y="263"/>
      <point x="140" y="275" type="curve" smooth="yes"/>
      <point x="160" y="509" type="line" smooth="yes"/>
      <point x="161" y="522"/>
      <point x="150" y="533"/>
      <point x="138" y="534" type="curve" smooth="yes"/>
      <point x="125" y="535"/>
      <point x="113" y="525"/>
      <point x="112" y="513" type="curve" smooth="yes"/>
      <point x="92" y="280" type="line" smooth="yes"/>
      <point x="91" y="267"/>
      <point x="102" y="255"/>
    </contour>
    <contour>
      <point x="407" y="495" type="line" smooth="yes"/>
      <point x="420" y="495"/>
      <point x="430" y="506"/>
      <point x="430" y="518" type="curve" smooth="yes"/>
      <point x="430" y="531"/>
      <point x="420" y="541"/>
      <point x="407" y="541" type="curve" smooth="yes"/>
      <point x="137" y="541" type="line" smooth="yes"/>
      <point x="124" y="541"/>
      <point x="113" y="531"/>
      <point x="113" y="518" type="curve" smooth="yes"/>
      <point x="113" y="506"/>
      <point x="124" y="495"/>
      <point x="137" y="495" type="curve" smooth="yes"/>
    </contour>
  </outline>
</glyph>
<glyph name="six" format="1">
  <advance width="537"/>
  <unicode hex="0036"/>
  <outline>
    <contour>
      <point x="285" y="-14" type="curve" smooth="yes"/>
      <point x="428" y="-14"/>
      <point x="485" y="79"/>
      <point x="485" y="167" type="curve" smooth="yes"/>
      <point x="485" y="266"/>
      <point x="413" y="334"/>
      <point x="306" y="334" type="curve" smooth="yes"/>
      <point x="202" y="334"/>
      <point x="114" y="266"/>
      <point x="80" y="142" type="curve" smooth="yes"/>
      <point x="76" y="130"/>
      <point x="84" y="117"/>
      <point x="97" y="113" type="curve" smooth="yes"/>
      <point x="109" y="110"/>
      <point x="122" y="117"/>
      <point x="125" y="129" type="curve" smooth="yes"/>
      <point x="153" y="229"/>
      <point x="221" y="288"/>
      <point x="306" y="288" type="curve" smooth="yes"/>
      <point x="383" y="288"/>
      <point x="437" y="239"/>
      <point x="437" y="167" type="curve" smooth="yes"/>
      <point x="437" y="101"/>
      <point x="391" y="32"/>
      <point x="285" y="32" type="curve" smooth="yes"/>
      <point x="179" y="32"/>
      <point x="110" y="108"/>
      <point x="110" y="249" type="curve" smooth="yes"/>
      <point x="110" y="402"/>
      <point x="181" y="504"/>
      <point x="307" y="504" type="curve" smooth="yes"/>
      <point x="339" y="504"/>
      <point x="360" y="499"/>
      <point x="386" y="491" type="curve" smooth="yes"/>
      <point x="397" y="488"/>
      <point x="411" y="495"/>
      <point x="415" y="506" type="curve" smooth="yes"/>
      <point x="418" y="518"/>
      <point x="412" y="532"/>
      <point x="400" y="535" type="curve" smooth="yes"/>
      <point x="369" y="545"/>
      <point x="344" y="550"/>
      <point x="307" y="550" type="curve" smooth="yes"/>
      <point x="158" y="550"/>
      <point x="62" y="440"/>
      <point x="62" y="249" type="curve" smooth="yes"/>
      <point x="62" y="70"/>
      <point x="156" y="-14"/>
    </contour>
  </outline>
</glyph>
<glyph name="seven" format="1">
  <advance width="460"/>
  <unicode hex="0037"/>
  <outline>
    <contour>
      <point x="188" y="-10" type="curve" smooth="yes"/>
      <point x="201" y="-10"/>
      <point x="212" y="1"/>
      <point x="212" y="14" type="curve" smooth="yes"/>
      <point x="212" y="71" type="line" smooth="yes"/>
      <point x="212" y="129"/>
      <point x="233" y="187"/>
      <point x="259" y="234" type="curve" smooth="yes"/>
      <point x="290" y="287"/>
      <point x="399" y="432"/>
      <point x="439" y="506" type="curve" smooth="yes"/>
      <point x="445" y="517"/>
      <point x="440" y="531"/>
      <point x="429" y="538" type="curve" smooth="yes"/>
      <point x="418" y="544"/>
      <point x="403" y="539"/>
      <point x="396" y="529" type="curve" smooth="yes"/>
      <point x="356" y="455"/>
      <point x="249" y="311"/>
      <point x="218" y="257" type="curve" smooth="yes"/>
      <point x="188" y="203"/>
      <point x="164" y="136"/>
      <point x="164" y="71" type="curve" smooth="yes"/>
      <point x="164" y="14" type="line" smooth="yes"/>
      <point x="164" y="1"/>
      <point x="175" y="-10"/>
    </contour>
    <contour>
      <point x="410" y="495" type="line" smooth="yes"/>
      <point x="423" y="495"/>
      <point x="433" y="506"/>
      <point x="433" y="518" type="curve" smooth="yes"/>
      <point x="433" y="531"/>
      <point x="423" y="541"/>
      <point x="410" y="541" type="curve" smooth="yes"/>
      <point x="50" y="541" type="line" smooth="yes"/>
      <point x="37" y="541"/>
      <point x="26" y="531"/>
      <point x="26" y="518" type="curve" smooth="yes"/>
      <point x="26" y="506"/>
      <point x="37" y="495"/>
      <point x="50" y="495" type="curve" smooth="yes"/>
    </contour>
  </outline>
</glyph>
<glyph name="eight" format="1">
  <advance width="557"/>
  <unicode hex="0038"/>
  <outline>
    <contour>
      <point x="280" y="-18" type="curve" smooth="yes"/>
      <point x="442" y="-18"/>
      <point x="496" y="60"/>
      <point x="496" y="145" type="curve" smooth="yes"/>
      <point x="496" y="240"/>
      <point x="416" y="309"/>
      <point x="280" y="309" type="curve" smooth="yes"/>
      <point x="136" y="309"/>
      <point x="62" y="240"/>
      <point x="62" y="144" type="curve" smooth="yes"/>
      <point x="62" y="60"/>
      <point x="128" y="-18"/>
    </contour>
    <contour>
      <point x="280" y="29" type="curve" smooth="yes"/>
      <point x="172" y="29"/>
      <point x="110" y="78"/>
      <point x="110" y="144" type="curve" smooth="yes"/>
      <point x="110" y="219"/>
      <point x="176" y="263"/>
      <point x="280" y="263" type="curve" smooth="yes"/>
      <point x="378" y="263"/>
      <point x="448" y="219"/>
      <point x="448" y="145" type="curve" smooth="yes"/>
      <point x="448" y="78"/>
      <point x="395" y="29"/>
    </contour>
    <contour>
      <point x="280" y="263" type="curve" smooth="yes"/>
      <point x="411" y="263"/>
      <point x="469" y="331"/>
      <point x="469" y="408" type="curve" smooth="yes"/>
      <point x="469" y="490"/>
      <point x="401" y="549"/>
      <point x="280" y="549" type="curve" smooth="yes"/>
      <point x="153" y="549"/>
      <point x="89" y="490"/>
      <point x="89" y="408" type="curve" smooth="yes"/>
      <point x="89" y="331"/>
      <point x="143" y="263"/>
    </contour>
    <contour>
      <point x="280" y="309" type="curve" smooth="yes"/>
      <point x="187" y="309"/>
      <point x="137" y="350"/>
      <point x="137" y="408" type="curve" smooth="yes"/>
      <point x="137" y="469"/>
      <point x="195" y="503"/>
      <point x="280" y="503" type="curve" smooth="yes"/>
      <point x="361" y="503"/>
      <point x="421" y="469"/>
      <point x="421" y="408" type="curve" smooth="yes"/>
      <point x="421" y="350"/>
      <point x="369" y="309"/>
    </contour>
  </outline>
</glyph>
<glyph name="colon" format="1">
  <advance width="235"/>
  <unicode hex="003A"/>
  <outline>
    <contour>
      <point x="118" y="270" type="curve" smooth="yes"/>
      <point x="144" y="270"/>
      <point x="163" y="286"/>
      <point x="163" y="324" type="curve" smooth="yes"/>
      <point x="163" y="353"/>
      <point x="143" y="377"/>
      <point x="117" y="377" type="curve" smooth="yes"/>
      <point x="90" y="377"/>
      <point x="72" y="353"/>
      <point x="72" y="324" type="curve" smooth="yes"/>
      <point x="72" y="287"/>
      <point x="96" y="270"/>
    </contour>
    <contour>
      <point x="118" y="-11" type="curve" smooth="yes"/>
      <point x="144" y="-11"/>
      <point x="163" y="4"/>
      <point x="163" y="42" type="curve" smooth="yes"/>
      <point x="163" y="73"/>
      <point x="143" y="96"/>
      <point x="117" y="96" type="curve" smooth="yes"/>
      <point x="90" y="96"/>
      <point x="72" y="74"/>
      <point x="72" y="42" type="curve" smooth="yes"/>
      <point x="72" y="5"/>
      <point x="96" y="-11"/>
    </contour>
  </outline>
</glyph>
<glyph name="semicolon" format="1">
  <advance width="213"/>
  <unicode hex="003B"/>
  <outline>
    <contour>
      <point x="50" y="-125" type="curve" smooth="yes"/>
      <point x="60" y="-133"/>
      <point x="76" y="-131"/>
      <point x="83" y="-120" type="curve" smooth="yes"/>
      <point x="113" y="-80"/>
      <point x="132" y="-27"/>
      <point x="132" y="25" type="curve" smooth="yes"/>
      <point x="132" y="48"/>
      <point x="129" y="69"/>
      <point x="124" y="84" type="curve" smooth="yes"/>
      <point x="121" y="96"/>
      <point x="107" y="102"/>
      <point x="95" y="99" type="curve" smooth="yes"/>
      <point x="83" y="95"/>
      <point x="75" y="82"/>
      <point x="79" y="70" type="curve" smooth="yes"/>
      <point x="82" y="59"/>
      <point x="84" y="43"/>
      <point x="84" y="25" type="curve" smooth="yes"/>
      <point x="84" y="-18"/>
      <point x="68" y="-60"/>
      <point x="45" y="-93" type="curve" smooth="yes"/>
      <point x="37" y="-103"/>
      <point x="39" y="-118"/>
    </contour>
    <contour>
      <point x="106" y="273" type="curve" smooth="yes"/>
      <point x="130" y="273"/>
      <point x="151" y="289"/>
      <point x="151" y="327" type="curve" smooth="yes"/>
      <point x="151" y="356"/>
      <point x="129" y="380"/>
      <point x="105" y="380" type="curve" smooth="yes"/>
      <point x="76" y="380"/>
      <point x="60" y="356"/>
      <point x="60" y="327" type="curve" smooth="yes"/>
      <point x="60" y="290"/>
      <point x="83" y="273"/>
    </contour>
  </outline>
</glyph>
<glyph name="less" format="1">
  <advance width="528"/>
  <unicode hex="003C"/>
  <outline>
    <contour>
      <point x="417" y="91" type="line" smooth="yes"/>
      <point x="429" y="85"/>
      <point x="443" y="91"/>
      <point x="448" y="102" type="curve" smooth="yes"/>
      <point x="453" y="114"/>
      <point x="448" y="128"/>
      <point x="436" y="132" type="curve" smooth="yes"/>
      <point x="98" y="284" type="line" smooth="yes"/>
      <point x="87" y="290"/>
      <point x="72" y="284"/>
      <point x="68" y="273" type="curve" smooth="yes"/>
      <point x="62" y="261"/>
      <point x="68" y="247"/>
      <point x="79" y="243" type="curve" smooth="yes"/>
    </contour>
    <contour>
      <point x="430" y="392" type="line" smooth="yes"/>
      <point x="442" y="397"/>
      <point x="447" y="411"/>
      <point x="442" y="422" type="curve" smooth="yes"/>
      <point x="437" y="434"/>
      <point x="423" y="440"/>
      <point x="411" y="434" type="curve" smooth="yes"/>
      <point x="85" y="288" type="line" smooth="yes"/>
      <point x="74" y="283"/>
      <point x="68" y="270"/>
      <point x="74" y="258" type="curve" smooth="yes"/>
      <point x="78" y="246"/>
      <point x="92" y="241"/>
      <point x="104" y="246" type="curve" smooth="yes"/>
    </contour>
  </outline>
</glyph>
<glyph name="question" format="1">
  <advance width="361"/>
  <unicode hex="003F"/>
  <outline>
    <contour>
      <point x="151" y="180" type="curve" smooth="yes"/>
      <point x="163" y="179"/>
      <point x="175" y="189"/>
      <point x="176" y="202" type="curve" smooth="yes"/>
      <point x="179" y="245"/>
      <point x="192" y="261"/>
      <point x="238" y="285" type="curve" smooth="yes"/>
      <point x="299" y="316"/>
      <point x="343" y="361"/>
      <point x="343" y="421" type="curve" smooth="yes"/>
      <point x="343" y="488"/>
      <point x="292" y="550"/>
      <point x="190" y="550" type="curve" smooth="yes"/>
      <point x="125" y="550"/>
      <point x="85" y="536"/>
      <point x="45" y="511" type="curve" smooth="yes"/>
      <point x="34" y="504"/>
      <point x="31" y="490"/>
      <point x="38" y="479" type="curve" smooth="yes"/>
      <point x="45" y="469"/>
      <point x="59" y="465"/>
      <point x="70" y="472" type="curve" smooth="yes"/>
      <point x="104" y="492"/>
      <point x="136" y="504"/>
      <point x="190" y="504" type="curve" smooth="yes"/>
      <point x="255" y="504"/>
      <point x="295" y="467"/>
      <point x="295" y="421" type="curve" smooth="yes"/>
      <point x="295" y="378"/>
      <point x="259" y="348"/>
      <point x="217" y="327" type="curve" smooth="yes"/>
      <point x="150" y="291"/>
      <point x="131" y="266"/>
      <point x="128" y="204" type="curve" smooth="yes"/>
      <point x="127" y="192"/>
      <point x="138" y="181"/>
    </contour>
    <contour>
      <point x="158" y="-15" type="curve" smooth="yes"/>
      <point x="184" y="-15"/>
      <point x="203" y="0"/>
      <point x="203" y="38" type="curve" smooth="yes"/>
      <point x="203" y="69"/>
      <point x="183" y="91"/>
      <point x="157" y="91" type="curve" smooth="yes"/>
      <point x="128" y="91"/>
      <point x="112" y="70"/>
      <point x="112" y="38" type="curve" smooth="yes"/>
      <point x="112" y="1"/>
      <point x="136" y="-15"/>
    </contour>
  </outline>
</glyph>
<glyph name="at" format="1">
  <advance width="669"/>
  <unicode hex="0040"/>
  <outline>
    <contour>
      <point x="342" y="-20" type="curve" smooth="yes"/>
      <point x="410" y="-20"/>
      <point x="469" y="-4"/>
      <point x="512" y="15" type="curve" smooth="yes"/>
      <point x="524" y="19"/>
      <point x="529" y="33"/>
      <point x="524" y="45" type="curve" smooth="yes"/>
      <point x="519" y="56"/>
      <point x="505" y="62"/>
      <point x="493" y="56" type="curve" smooth="yes"/>
      <point x="455" y="39"/>
      <point x="403" y="25"/>
      <point x="342" y="25" type="curve" smooth="yes"/>
      <point x="193" y="25"/>
      <point x="89" y="128"/>
      <point x="89" y="261" type="curve" smooth="yes"/>
      <point x="89" y="395"/>
      <point x="195" y="506"/>
      <point x="339" y="506" type="curve" smooth="yes"/>
      <point x="493" y="506"/>
      <point x="583" y="396"/>
      <point x="583" y="275" type="curve" smooth="yes"/>
      <point x="583" y="215"/>
      <point x="558" y="171"/>
      <point x="515" y="171" type="curve" smooth="yes"/>
      <point x="478" y="171"/>
      <point x="452" y="203"/>
      <point x="452" y="250" type="curve" smooth="yes"/>
      <point x="452" y="385" type="line" smooth="yes"/>
      <point x="452" y="398"/>
      <point x="441" y="408"/>
      <point x="429" y="408" type="curve" smooth="yes"/>
      <point x="416" y="408"/>
      <point x="405" y="398"/>
      <point x="405" y="385" type="curve" smooth="yes"/>
      <point x="405" y="250" type="line" smooth="yes"/>
      <point x="405" y="169"/>
      <point x="457" y="125"/>
      <point x="515" y="125" type="curve" smooth="yes"/>
      <point x="577" y="125"/>
      <point x="630" y="174"/>
      <point x="630" y="275" type="curve" smooth="yes"/>
      <point x="630" y="419"/>
      <point x="523" y="552"/>
      <point x="339" y="552" type="curve" smooth="yes"/>
      <point x="167" y="552"/>
      <point x="42" y="420"/>
      <point x="42" y="261" type="curve" smooth="yes"/>
      <point x="42" y="103"/>
      <point x="163" y="-20"/>
    </contour>
    <contour>
      <point x="315" y="126" type="curve" smooth="yes"/>
      <point x="364" y="126"/>
      <point x="414" y="154"/>
      <point x="448" y="212" type="curve" smooth="yes"/>
      <point x="454" y="223"/>
      <point x="450" y="238"/>
      <point x="439" y="243" type="curve" smooth="yes"/>
      <point x="429" y="250"/>
      <point x="414" y="246"/>
      <point x="408" y="235" type="curve" smooth="yes"/>
      <point x="384" y="195"/>
      <point x="350" y="172"/>
      <point x="315" y="172" type="curve" smooth="yes"/>
      <point x="274" y="172"/>
      <point x="240" y="205"/>
      <point x="240" y="257" type="curve" smooth="yes"/>
      <point x="240" y="321"/>
      <point x="282" y="363"/>
      <point x="334" y="363" type="curve" smooth="yes"/>
      <point x="367" y="363"/>
      <point x="392" y="353"/>
      <point x="416" y="337" type="curve" smooth="yes"/>
      <point x="426" y="330"/>
      <point x="441" y="334"/>
      <point x="448" y="344" type="curve" smooth="yes"/>
      <point x="455" y="354"/>
      <point x="452" y="369"/>
      <point x="442" y="376" type="curve" smooth="yes"/>
      <point x="411" y="396"/>
      <point x="377" y="408"/>
      <point x="334" y="408" type="curve" smooth="yes"/>
      <point x="259" y="408"/>
      <point x="193" y="353"/>
      <point x="193" y="257" type="curve" smooth="yes"/>
      <point x="193" y="173"/>
      <point x="253" y="126"/>
    </contour>
  </outline>
</glyph>
<glyph name="A" format="1">
  <advance width="580"/>
  <unicode hex="0041"/>
  <outline>
    <contour>
      <point x="524" y="-8" type="curve" smooth="yes"/>
      <point x="536" y="-4"/>
      <point x="543" y="10"/>
      <point x="538" y="22" type="curve" smooth="yes"/>
      <point x="488" y="151"/>
      <point x="384" y="377"/>
      <point x="308" y="538" type="curve" smooth="yes"/>
      <point x="302" y="548"/>
      <point x="288" y="554"/>
      <point x="276" y="548" type="curve" smooth="yes"/>
      <point x="266" y="542"/>
      <point x="260" y="528"/>
      <point x="265" y="517" type="curve" smooth="yes"/>
      <point x="341" y="358"/>
      <point x="443" y="132"/>
      <point x="493" y="5" type="curve" smooth="yes"/>
      <point x="498" y="-6"/>
      <point x="512" y="-13"/>
    </contour>
    <contour>
      <point x="55" y="-8" type="curve" smooth="yes"/>
      <point x="66" y="-12"/>
      <point x="81" y="-6"/>
      <point x="85" y="6" type="curve" smooth="yes"/>
      <point x="132" y="136"/>
      <point x="231" y="359"/>
      <point x="302" y="518" type="curve" smooth="yes"/>
      <point x="308" y="529"/>
      <point x="302" y="543"/>
      <point x="290" y="548" type="curve" smooth="yes"/>
      <point x="278" y="554"/>
      <point x="264" y="548"/>
      <point x="259" y="537" type="curve" smooth="yes"/>
      <point x="188" y="378"/>
      <point x="87" y="153"/>
      <point x="40" y="22" type="curve" smooth="yes"/>
      <point x="36" y="10"/>
      <point x="43" y="-4"/>
    </contour>
    <contour>
      <point x="441" y="141" type="line" smooth="yes"/>
      <point x="454" y="141"/>
      <point x="464" y="152"/>
      <point x="464" y="164" type="curve" smooth="yes"/>
      <point x="464" y="177"/>
      <point x="454" y="187"/>
      <point x="441" y="187" type="curve" smooth="yes"/>
      <point x="135" y="187" type="line" smooth="yes"/>
      <point x="122" y="187"/>
      <point x="111" y="177"/>
      <point x="111" y="164" type="curve" smooth="yes"/>
      <point x="111" y="152"/>
      <point x="122" y="141"/>
      <point x="135" y="141" type="curve" smooth="yes"/>
    </contour>
    <contour>
      <point x="517" y="14" type="move" name="ogonek"/>
    </contour>
    <contour>
      <point x="283" y="545" type="move" name="top"/>
    </contour>
  </outline>
</glyph>
<glyph name="C" format="1">
  <advance width="565"/>
  <unicode hex="0043"/>
  <outline>
    <contour>
      <point x="343" y="-20" type="curve" smooth="yes"/>
      <point x="402" y="-20"/>
      <point x="454" y="-6"/>
      <point x="495" y="15" type="curve" smooth="yes"/>
      <point x="507" y="20"/>
      <point x="511" y="35"/>
      <point x="506" y="46" type="curve" smooth="yes"/>
      <point x="500" y="57"/>
      <point x="485" y="62"/>
      <point x="474" y="56" type="curve" smooth="yes"/>
      <point x="438" y="37"/>
      <point x="393" y="27"/>
      <point x="343" y="27" type="curve" smooth="yes"/>
      <point x="189" y="27"/>
      <point x="100" y="130"/>
      <point x="100" y="262" type="curve" smooth="yes"/>
      <point x="100" y="407"/>
      <point x="209" y="505"/>
      <point x="337" y="505" type="curve" smooth="yes"/>
      <point x="387" y="505"/>
      <point x="436" y="494"/>
      <point x="468" y="477" type="curve" smooth="yes"/>
      <point x="480" y="471"/>
      <point x="494" y="476"/>
      <point x="501" y="486" type="curve" smooth="yes"/>
      <point x="506" y="497"/>
      <point x="502" y="511"/>
      <point x="491" y="518" type="curve" smooth="yes"/>
      <point x="453" y="538"/>
      <point x="396" y="551"/>
      <point x="337" y="551" type="curve" smooth="yes"/>
      <point x="185" y="551"/>
      <point x="52" y="435"/>
      <point x="52" y="262" type="curve" smooth="yes"/>
      <point x="52" y="103"/>
      <point x="159" y="-20"/>
    </contour>
    <contour>
      <point x="323" y="551" type="move" name="top"/>
    </contour>
    <contour>
      <point x="315" y="-15" type="move" name="bottom"/>
    </contour>
  </outline>
</glyph>
<glyph name="D" format="1">
  <advance width="614"/>
  <unicode hex="0044"/>
  <outline>
    <contour>
      <point x="300" y="-10" type="line" smooth="yes"/>
      <point x="458" y="-10"/>
      <point x="562" y="111"/>
      <point x="562" y="266" type="curve" smooth="yes"/>
      <point x="562" y="429"/>
      <point x="437" y="541"/>
      <point x="300" y="541" type="curve" smooth="yes"/>
      <point x="115" y="541" type="line" smooth="yes"/>
      <point x="101" y="541"/>
      <point x="91" y="531"/>
      <point x="91" y="518" type="curve" smooth="yes"/>
      <point x="91" y="14" type="line" smooth="yes"/>
      <point x="91" y="1"/>
      <point x="101" y="-10"/>
      <point x="115" y="-10" type="curve" smooth="yes"/>
    </contour>
    <contour>
      <point x="139" y="518" type="line"/>
      <point x="115" y="495" type="line"/>
      <point x="300" y="495" type="line" smooth="yes"/>
      <point x="414" y="495"/>
      <point x="514" y="399"/>
      <point x="514" y="266" type="curve" smooth="yes"/>
      <point x="514" y="140"/>
      <point x="432" y="36"/>
      <point x="300" y="36" type="curve" smooth="yes"/>
      <point x="115" y="36" type="line"/>
      <point x="139" y="14" type="line"/>
    </contour>
    <contour>
      <point x="250" y="541" type="move" name="top"/>
    </contour>
  </outline>
</glyph>
<glyph name="F" format="1">
  <advance width="470"/>
  <unicode hex="0046"/>
  <outline>
    <contour>
      <point x="115" y="-10" type="curve" smooth="yes"/>
      <point x="128" y="-10"/>
      <point x="139" y="1"/>
      <point x="139" y="14" type="curve" smooth="yes"/>
      <point x="139" y="518" type="line" smooth="yes"/>
      <point x="139" y="531"/>
      <point x="128" y="541"/>
      <point x="115" y="541" type="curve" smooth="yes"/>
      <point x="102" y="541"/>
      <point x="91" y="531"/>
      <point x="91" y="518" type="curve" smooth="yes"/>
      <point x="91" y="14" type="line" smooth="yes"/>
      <point x="91" y="1"/>
      <point x="102" y="-10"/>
    </contour>
    <contour>
      <point x="361" y="242" type="line" smooth="yes"/>
      <point x="374" y="242"/>
      <point x="384" y="253"/>
      <point x="384" y="265" type="curve" smooth="yes"/>
      <point x="384" y="278"/>
      <point x="374" y="288"/>
      <point x="361" y="288" type="curve" smooth="yes"/>
      <point x="124" y="288" type="line" smooth="yes"/>
      <point x="111" y="288"/>
      <point x="100" y="278"/>
      <point x="100" y="265" type="curve" smooth="yes"/>
      <point x="100" y="253"/>
      <point x="111" y="242"/>
      <point x="124" y="242" type="curve" smooth="yes"/>
    </contour>
    <contour>
      <point x="414" y="495" type="line" smooth="yes"/>
      <point x="427" y="495"/>
      <point x="437" y="506"/>
      <point x="437" y="518" type="curve" smooth="yes"/>
      <point x="437" y="531"/>
      <point x="427" y="541"/>
      <point x="414" y="541" type="curve" smooth="yes"/>
      <point x="124" y="541" type="line" smooth="yes"/>
      <point x="111" y="541"/>
      <point x="100" y="531"/>
      <point x="100" y="518" type="curve" smooth="yes"/>
      <point x="100" y="506"/>
      <point x="111" y="495"/>
      <point x="124" y="495" type="curve" smooth="yes"/>
    </contour>
  </outline>
</glyph>
<glyph name="G" format="1">
  <advance width="620"/>
  <unicode hex="0047"/>
  <outline>
    <contour>
      <point x="335" y="-20" type="curve" smooth="yes"/>
      <point x="420" y="-20"/>
      <point x="483" y="3"/>
      <point x="536" y="36" type="curve" smooth="yes"/>
      <point x="546" y="42"/>
      <point x="549" y="57"/>
      <point x="543" y="68" type="curve" smooth="yes"/>
      <point x="536" y="78"/>
      <point x="520" y="81"/>
      <point x="510" y="74" type="curve" smooth="yes"/>
      <point x="464" y="46"/>
      <point x="409" y="27"/>
      <point x="335" y="27" type="curve" smooth="yes"/>
      <point x="186" y="27"/>
      <point x="100" y="132"/>
      <point x="100" y="262" type="curve" smooth="yes"/>
      <point x="100" y="407"/>
      <point x="200" y="505"/>
      <point x="338" y="505" type="curve" smooth="yes"/>
      <point x="393" y="505"/>
      <point x="441" y="494"/>
      <point x="482" y="478" type="curve" smooth="yes"/>
      <point x="494" y="473"/>
      <point x="508" y="480"/>
      <point x="513" y="491" type="curve" smooth="yes"/>
      <point x="517" y="503"/>
      <point x="511" y="517"/>
      <point x="499" y="521" type="curve" smooth="yes"/>
      <point x="453" y="538"/>
      <point x="400" y="551"/>
      <point x="338" y="551" type="curve" smooth="yes"/>
      <point x="174" y="551"/>
      <point x="52" y="435"/>
      <point x="52" y="262" type="curve" smooth="yes"/>
      <point x="52" y="105"/>
      <point x="156" y="-20"/>
    </contour>
    <contour>
      <point x="512" y="223" type="line" smooth="yes"/>
      <point x="525" y="223"/>
      <point x="535" y="234"/>
      <point x="535" y="247" type="curve" smooth="yes"/>
      <point x="535" y="259"/>
      <point x="525" y="270"/>
      <point x="512" y="270" type="curve" smooth="yes"/>
      <point x="351" y="270" type="line" smooth="yes"/>
      <point x="338" y="270"/>
      <point x="327" y="259"/>
      <point x="327" y="247" type="curve" smooth="yes"/>
      <point x="327" y="234"/>
      <point x="338" y="223"/>
      <point x="351" y="223" type="curve" smooth="yes"/>
    </contour>
    <contour>
      <point x="524" y="42" type="curve" smooth="yes"/>
      <point x="537" y="42"/>
      <point x="548" y="52"/>
      <point x="548" y="65" type="curve" smooth="yes"/>
      <point x="548" y="247" type="line" smooth="yes"/>
      <point x="548" y="259"/>
      <point x="537" y="270"/>
      <point x="524" y="270" type="curve" smooth="yes"/>
      <point x="511" y="270"/>
      <point x="500" y="259"/>
      <point x="500" y="247" type="curve" smooth="yes"/>
      <point x="500" y="65" type="line" smooth="yes"/>
      <point x="500" y="52"/>
      <point x="511" y="42"/>
    </contour>
    <contour>
      <point x="305" y="550" type="move" name="top"/>
    </contour>
    <contour>
      <point x="326" y="-17" type="move" name="bottom"/>
    </contour>
  </outline>
</glyph>
<glyph name="I" format="1">
  <advance width="240"/>
  <unicode hex="0049"/>
  <outline>
    <contour>
      <point x="120" y="-10" type="curve" smooth="yes"/>
      <point x="133" y="-10"/>
      <point x="144" y="1"/>
      <point x="144" y="14" type="curve" smooth="yes"/>
      <point x="144" y="518" type="line" smooth="yes"/>
      <point x="144" y="531"/>
      <point x="133" y="541"/>
      <point x="120" y="541" type="curve" smooth="yes"/>
      <point x="107" y="541"/>
      <point x="96" y="531"/>
      <point x="96" y="518" type="curve" smooth="yes"/>
      <point x="96" y="14" type="line" smooth="yes"/>
      <point x="96" y="1"/>
      <point x="107" y="-10"/>
    </contour>
    <contour>
      <point x="121" y="31" type="move" name="ogonek"/>
    </contour>
    <contour>
      <point x="120" y="-10" type="move" name="bottom"/>
    </contour>
    <contour>
      <point x="120" y="541" type="move" name="top"/>
    </contour>
  </outline>
</glyph>
<glyph name="L" format="1">
  <advance width="453"/>
  <unicode hex="004C"/>
  <outline>
    <contour>
      <point x="115" y="-10" type="curve" smooth="yes"/>
      <point x="128" y="-10"/>
      <point x="139" y="1"/>
      <point x="139" y="14" type="curve" smooth="yes"/>
      <point x="139" y="518" type="line" smooth="yes"/>
      <point x="139" y="531"/>
      <point x="128" y="541"/>
      <point x="115" y="541" type="curve" smooth="yes"/>
      <point x="102" y="541"/>
      <point x="91" y="531"/>
      <point x="91" y="518" type="curve" smooth="yes"/>
      <point x="91" y="14" type="line" smooth="yes"/>
      <point x="91" y="1"/>
      <point x="102" y="-10"/>
    </contour>
    <contour>
      <point x="400" y="-10" type="line" smooth="yes"/>
      <point x="413" y="-10"/>
      <point x="423" y="1"/>
      <point x="423" y="14" type="curve" smooth="yes"/>
      <point x="423" y="26"/>
      <point x="413" y="36"/>
      <point x="400" y="36" type="curve" smooth="yes"/>
      <point x="124" y="36" type="line" smooth="yes"/>
      <point x="111" y="36"/>
      <point x="100" y="26"/>
      <point x="100" y="14" type="curve" smooth="yes"/>
      <point x="100" y="1"/>
      <point x="111" y="-10"/>
      <point x="124" y="-10" type="curve" smooth="yes"/>
    </contour>
    <contour>
      <point x="115" y="541" type="move" name="top"/>
    </contour>
    <contour>
      <point x="252" y="-8" type="move" name="bottom"/>
    </contour>
  </outline>
</glyph>
<glyph name="M" format="1">
  <advance width="832"/>
  <unicode hex="004D"/>
  <outline>
    <contour>
      <point x="424" y="10" type="curve" smooth="yes"/>
      <point x="435" y="16"/>
      <point x="441" y="30"/>
      <point x="435" y="42" type="curve" smooth="yes"/>
      <point x="365" y="187"/>
      <point x="266" y="392"/>
      <point x="201" y="525" type="curve" smooth="yes"/>
      <point x="195" y="535"/>
      <point x="181" y="541"/>
      <point x="169" y="535" type="curve" smooth="yes"/>
      <point x="158" y="529"/>
      <point x="153" y="515"/>
      <point x="158" y="504" type="curve" smooth="yes"/>
      <point x="223" y="371"/>
      <point x="322" y="167"/>
      <point x="392" y="21" type="curve" smooth="yes"/>
      <point x="398" y="10"/>
      <point x="412" y="5"/>
    </contour>
    <contour>
      <point x="93" y="-12" type="curve" smooth="yes"/>
      <point x="106" y="-13"/>
      <point x="118" y="-3"/>
      <point x="120" y="9" type="curve" smooth="yes"/>
      <point x="133" y="129"/>
      <point x="166" y="375"/>
      <point x="192" y="523" type="curve" smooth="yes"/>
      <point x="194" y="535"/>
      <point x="184" y="548"/>
      <point x="171" y="550" type="curve" smooth="yes"/>
      <point x="159" y="552"/>
      <point x="146" y="543"/>
      <point x="144" y="531" type="curve" smooth="yes"/>
      <point x="118" y="382"/>
      <point x="85" y="134"/>
      <point x="72" y="14" type="curve" smooth="yes"/>
      <point x="71" y="1"/>
      <point x="81" y="-10"/>
    </contour>
    <contour>
      <point x="408" y="22" type="curve" smooth="yes"/>
      <point x="420" y="17"/>
      <point x="435" y="22"/>
      <point x="439" y="34" type="curve" smooth="yes"/>
      <point x="502" y="175"/>
      <point x="586" y="358"/>
      <point x="663" y="510" type="curve" smooth="yes"/>
      <point x="669" y="521"/>
      <point x="664" y="535"/>
      <point x="652" y="541" type="curve" smooth="yes"/>
      <point x="641" y="547"/>
      <point x="626" y="542"/>
      <point x="620" y="531" type="curve" smooth="yes"/>
      <point x="543" y="379"/>
      <point x="459" y="195"/>
      <point x="396" y="53" type="curve" smooth="yes"/>
      <point x="391" y="41"/>
      <point x="397" y="27"/>
    </contour>
    <contour>
      <point x="739" y="-12" type="curve" smooth="yes"/>
      <point x="751" y="-9"/>
      <point x="761" y="2"/>
      <point x="760" y="15" type="curve" smooth="yes"/>
      <point x="741" y="154"/>
      <point x="706" y="370"/>
      <point x="674" y="533" type="curve" smooth="yes"/>
      <point x="671" y="545"/>
      <point x="658" y="553"/>
      <point x="645" y="551" type="curve" smooth="yes"/>
      <point x="633" y="549"/>
      <point x="624" y="536"/>
      <point x="626" y="523" type="curve" smooth="yes"/>
      <point x="658" y="363"/>
      <point x="693" y="147"/>
      <point x="712" y="8" type="curve" smooth="yes"/>
      <point x="714" y="-4"/>
      <point x="726" y="-13"/>
    </contour>
  </outline>
</glyph>
<glyph name="O" format="1">
  <advance width="643"/>
  <unicode hex="004F"/>
  <outline>
    <contour>
      <point x="324" y="-20" type="curve" smooth="yes"/>
      <point x="492" y="-20"/>
      <point x="592" y="104"/>
      <point x="592" y="265" type="curve" smooth="yes"/>
      <point x="592" y="434"/>
      <point x="472" y="551"/>
      <point x="324" y="551" type="curve" smooth="yes"/>
      <point x="163" y="551"/>
      <point x="52" y="434"/>
      <point x="52" y="262" type="curve" smooth="yes"/>
      <point x="52" y="104"/>
      <point x="165" y="-20"/>
    </contour>
    <contour>
      <point x="324" y="27" type="curve" smooth="yes"/>
      <point x="191" y="27"/>
      <point x="100" y="133"/>
      <point x="100" y="262" type="curve" smooth="yes"/>
      <point x="100" y="404"/>
      <point x="189" y="505"/>
      <point x="324" y="505" type="curve" smooth="yes"/>
      <point x="448" y="505"/>
      <point x="544" y="404"/>
      <point x="544" y="265" type="curve" smooth="yes"/>
      <point x="544" y="133"/>
      <point x="464" y="27"/>
    </contour>
    <contour>
      <point x="323" y="552" type="move" name="top"/>
    </contour>
    <contour>
      <point x="325" y="-17" type="move" name="bottom"/>
    </contour>
  </outline>
</glyph>
<glyph name="R" format="1">
  <advance width="539"/>
  <unicode hex="0052"/>
  <outline>
    <contour>
      <point x="115" y="-10" type="curve" smooth="yes"/>
      <point x="128" y="-10"/>
      <point x="139" y="1"/>
      <point x="139" y="14" type="curve" smooth="yes"/>
      <point x="139" y="518" type="line"/>
      <point x="115" y="495" type="line"/>
      <point x="270" y="495" type="line" smooth="yes"/>
      <point x="358" y="495"/>
      <point x="420" y="445"/>
      <point x="420" y="369" type="curve" smooth="yes"/>
      <point x="420" y="299"/>
      <point x="368" y="244"/>
      <point x="270" y="244" type="curve" smooth="yes"/>
      <point x="132" y="244" type="line" smooth="yes"/>
      <point x="119" y="244"/>
      <point x="108" y="233"/>
      <point x="108" y="221" type="curve" smooth="yes"/>
      <point x="108" y="208"/>
      <point x="119" y="198"/>
      <point x="132" y="198" type="curve" smooth="yes"/>
      <point x="270" y="198" type="line" smooth="yes"/>
      <point x="403" y="198"/>
      <point x="468" y="277"/>
      <point x="468" y="369" type="curve" smooth="yes"/>
      <point x="468" y="469"/>
      <point x="391" y="541"/>
      <point x="270" y="541" type="curve" smooth="yes"/>
      <point x="115" y="541" type="line" smooth="yes"/>
      <point x="101" y="541"/>
      <point x="91" y="531"/>
      <point x="91" y="518" type="curve" smooth="yes"/>
      <point x="91" y="14" type="line" smooth="yes"/>
      <point x="91" y="1"/>
      <point x="102" y="-10"/>
    </contour>
    <contour>
      <point x="488" y="-4" type="curve" smooth="yes"/>
      <point x="497" y="4"/>
      <point x="499" y="19"/>
      <point x="490" y="28" type="curve" smooth="yes"/>
      <point x="317" y="230" type="line" smooth="yes"/>
      <point x="309" y="239"/>
      <point x="294" y="240"/>
      <point x="284" y="232" type="curve" smooth="yes"/>
      <point x="275" y="224"/>
      <point x="274" y="209"/>
      <point x="282" y="200" type="curve" smooth="yes"/>
      <point x="455" y="-1" type="line" smooth="yes"/>
      <point x="463" y="-11"/>
      <point x="478" y="-12"/>
    </contour>
    <contour>
      <point x="247" y="542" type="move" name="top"/>
    </contour>
    <contour>
      <point x="266" y="26" type="move" name="bottom"/>
    </contour>
  </outline>
</glyph>
<glyph name="T" format="1">
  <advance width="544"/>
  <unicode hex="0054"/>
  <outline>
    <contour>
      <point x="271" y="-10" type="curve" smooth="yes"/>
      <point x="284" y="-10"/>
      <point x="295" y="1"/>
      <point x="295" y="14" type="curve" smooth="yes"/>
      <point x="295" y="518" type="line" smooth="yes"/>
      <point x="295" y="531"/>
      <point x="284" y="541"/>
      <point x="271" y="541" type="curve" smooth="yes"/>
      <point x="258" y="541"/>
      <point x="247" y="531"/>
      <point x="247" y="518" type="curve" smooth="yes"/>
      <point x="247" y="14" type="line" smooth="yes"/>
      <point x="247" y="1"/>
      <point x="258" y="-10"/>
    </contour>
    <contour>
      <point x="497" y="495" type="line" smooth="yes"/>
      <point x="510" y="495"/>
      <point x="520" y="506"/>
      <point x="520" y="518" type="curve" smooth="yes"/>
      <point x="520" y="531"/>
      <point x="510" y="541"/>
      <point x="497" y="541" type="curve" smooth="yes"/>
      <point x="48" y="541" type="line" smooth="yes"/>
      <point x="35" y="541"/>
      <point x="24" y="531"/>
      <point x="24" y="518" type="curve" smooth="yes"/>
      <point x="24" y="506"/>
      <point x="35" y="495"/>
      <point x="48" y="495" type="curve" smooth="yes"/>
    </contour>
    <contour>
      <point x="271" y="542" type="move" name="top"/>
    </contour>
    <contour>
      <point x="271" y="-8" type="move" name="bottom"/>
    </contour>
  </outline>
</glyph>
<glyph name="V" format="1">
  <advance width="585"/>
  <unicode hex="0056"/>
  <outline>
    <contour>
      <point x="283" y="-17" type="curve" smooth="yes"/>
      <point x="294" y="-23"/>
      <point x="309" y="-19"/>
      <point x="315" y="-7" type="curve" smooth="yes"/>
      <point x="361" y="80"/>
      <point x="492" y="361"/>
      <point x="544" y="510" type="curve" smooth="yes"/>
      <point x="548" y="523"/>
      <point x="542" y="536"/>
      <point x="530" y="540" type="curve" smooth="yes"/>
      <point x="517" y="544"/>
      <point x="504" y="538"/>
      <point x="499" y="526" type="curve" smooth="yes"/>
      <point x="447" y="378"/>
      <point x="318" y="101"/>
      <point x="272" y="14" type="curve" smooth="yes"/>
      <point x="267" y="4"/>
      <point x="272" y="-11"/>
    </contour>
    <contour>
      <point x="301" y="-11" type="curve" smooth="yes"/>
      <point x="313" y="-4"/>
      <point x="318" y="10"/>
      <point x="312" y="20" type="curve" smooth="yes"/>
      <point x="270" y="97"/>
      <point x="129" y="399"/>
      <point x="87" y="526" type="curve" smooth="yes"/>
      <point x="84" y="538"/>
      <point x="69" y="545"/>
      <point x="58" y="541" type="curve" smooth="yes"/>
      <point x="46" y="538"/>
      <point x="38" y="524"/>
      <point x="42" y="512" type="curve" smooth="yes"/>
      <point x="84" y="382"/>
      <point x="227" y="76"/>
      <point x="269" y="-1" type="curve" smooth="yes"/>
      <point x="276" y="-13"/>
      <point x="291" y="-17"/>
    </contour>
  </outline>
</glyph>
<glyph name="X" format="1">
  <advance width="562"/>
  <unicode hex="0058"/>
  <outline>
    <contour>
      <point x="503" y="-5" type="curve" smooth="yes"/>
      <point x="512" y="2"/>
      <point x="516" y="17"/>
      <point x="508" y="27" type="curve" smooth="yes"/>
      <point x="446" y="114"/>
      <point x="209" y="385"/>
      <point x="108" y="531" type="curve" smooth="yes"/>
      <point x="101" y="542"/>
      <point x="86" y="545"/>
      <point x="76" y="537" type="curve" smooth="yes"/>
      <point x="65" y="530"/>
      <point x="62" y="516"/>
      <point x="70" y="505" type="curve" smooth="yes"/>
      <point x="171" y="360"/>
      <point x="408" y="88"/>
      <point x="470" y="0" type="curve" smooth="yes"/>
      <point x="477" y="-10"/>
      <point x="492" y="-13"/>
    </contour>
    <contour>
      <point x="61" y="-5" type="curve" smooth="yes"/>
      <point x="71" y="-12"/>
      <point x="87" y="-11"/>
      <point x="94" y="-1" type="curve" smooth="yes"/>
      <point x="177" y="111"/>
      <point x="398" y="366"/>
      <point x="488" y="506" type="curve" smooth="yes"/>
      <point x="495" y="516"/>
      <point x="491" y="531"/>
      <point x="481" y="538" type="curve" smooth="yes"/>
      <point x="470" y="545"/>
      <point x="455" y="541"/>
      <point x="448" y="531" type="curve" smooth="yes"/>
      <point x="358" y="392"/>
      <point x="139" y="139"/>
      <point x="56" y="27" type="curve" smooth="yes"/>
      <point x="49" y="17"/>
      <point x="50" y="2"/>
    </contour>
  </outline>
</glyph>
<glyph name="Y" format="1">
  <advance width="559"/>
  <unicode hex="0059"/>
  <outline>
    <contour>
      <point x="268" y="176" type="curve" smooth="yes"/>
      <point x="278" y="170"/>
      <point x="293" y="171"/>
      <point x="301" y="181" type="curve" smooth="yes"/>
      <point x="353" y="249"/>
      <point x="473" y="434"/>
      <point x="516" y="507" type="curve" smooth="yes"/>
      <point x="523" y="517"/>
      <point x="519" y="532"/>
      <point x="508" y="538" type="curve" smooth="yes"/>
      <point x="497" y="545"/>
      <point x="481" y="541"/>
      <point x="475" y="530" type="curve" smooth="yes"/>
      <point x="433" y="460"/>
      <point x="315" y="277"/>
      <point x="263" y="209" type="curve" smooth="yes"/>
      <point x="256" y="199"/>
      <point x="257" y="184"/>
    </contour>
    <contour>
      <point x="282" y="-10" type="curve" smooth="yes"/>
      <point x="295" y="-10"/>
      <point x="306" y="1"/>
      <point x="306" y="14" type="curve" smooth="yes"/>
      <point x="306" y="188" type="line" smooth="yes"/>
      <point x="306" y="201"/>
      <point x="295" y="211"/>
      <point x="282" y="211" type="curve" smooth="yes"/>
      <point x="269" y="211"/>
      <point x="258" y="201"/>
      <point x="258" y="188" type="curve" smooth="yes"/>
      <point x="258" y="14" type="line" smooth="yes"/>
      <point x="258" y="1"/>
      <point x="269" y="-10"/>
    </contour>
    <contour>
      <point x="293" y="182" type="curve" smooth="yes"/>
      <point x="303" y="190"/>
      <point x="305" y="205"/>
      <point x="298" y="215" type="curve" smooth="yes"/>
      <point x="253" y="274"/>
      <point x="128" y="459"/>
      <point x="84" y="530" type="curve" smooth="yes"/>
      <point x="78" y="541"/>
      <point x="63" y="545"/>
      <point x="52" y="538" type="curve" smooth="yes"/>
      <point x="40" y="532"/>
      <point x="37" y="517"/>
      <point x="43" y="507" type="curve" smooth="yes"/>
      <point x="88" y="433"/>
      <point x="215" y="246"/>
      <point x="260" y="187" type="curve" smooth="yes"/>
      <point x="267" y="177"/>
      <point x="282" y="175"/>
    </contour>
    <contour>
      <point x="277" y="515" type="move" name="top"/>
    </contour>
  </outline>
</glyph>
<glyph name="Z" format="1">
  <advance width="562"/>
  <unicode hex="005A"/>
  <outline>
    <contour>
      <point x="71" y="2" type="curve" smooth="yes"/>
      <point x="81" y="-5"/>
      <point x="97" y="-2"/>
      <point x="104" y="9" type="curve" smooth="yes"/>
      <point x="159" y="94"/>
      <point x="425" y="406"/>
      <point x="491" y="506" type="curve" smooth="yes"/>
      <point x="498" y="516"/>
      <point x="494" y="531"/>
      <point x="484" y="538" type="curve" smooth="yes"/>
      <point x="473" y="545"/>
      <point x="458" y="541"/>
      <point x="451" y="531" type="curve" smooth="yes"/>
      <point x="385" y="432"/>
      <point x="119" y="119"/>
      <point x="64" y="34" type="curve" smooth="yes"/>
      <point x="57" y="24"/>
      <point x="60" y="9"/>
    </contour>
    <contour>
      <point x="484" y="-10" type="line" smooth="yes"/>
      <point x="497" y="-10"/>
      <point x="507" y="1"/>
      <point x="507" y="14" type="curve" smooth="yes"/>
      <point x="507" y="26"/>
      <point x="497" y="36"/>
      <point x="484" y="36" type="curve" smooth="yes"/>
      <point x="79" y="36" type="line" smooth="yes"/>
      <point x="66" y="36"/>
      <point x="55" y="26"/>
      <point x="55" y="14" type="curve" smooth="yes"/>
      <point x="55" y="1"/>
      <point x="66" y="-10"/>
      <point x="79" y="-10" type="curve" smooth="yes"/>
    </contour>
    <contour>
      <point x="460" y="495" type="line" smooth="yes"/>
      <point x="473" y="495"/>
      <point x="483" y="506"/>
      <point x="483" y="518" type="curve" smooth="yes"/>
      <point x="483" y="531"/>
      <point x="473" y="541"/>
      <point x="460" y="541" type="curve" smooth="yes"/>
      <point x="93" y="541" type="line" smooth="yes"/>
      <point x="80" y="541"/>
      <point x="69" y="531"/>
      <point x="69" y="518" type="curve" smooth="yes"/>
      <point x="69" y="506"/>
      <point x="80" y="495"/>
      <point x="93" y="495" type="curve" smooth="yes"/>
    </contour>
    <contour>
      <point x="270" y="542" type="move" name="top"/>
    </contour>
  </outline>
</glyph>
<glyph name="bracketleft" format="1">
  <advance width="323"/>
  <unicode hex="005B"/>
  <outline>
    <contour>
      <point x="231" y="-113" type="line" smooth="yes"/>
      <point x="244" y="-113"/>
      <point x="254" y="-102"/>
      <point x="254" y="-90" type="curve" smooth="yes"/>
      <point x="254" y="-77"/>
      <point x="244" y="-67"/>
      <point x="231" y="-67" type="curve" smooth="yes"/>
      <point x="89" y="-67" type="line"/>
      <point x="113" y="-90" type="line"/>
      <point x="113" y="617" type="line"/>
      <point x="89" y="594" type="line"/>
      <point x="231" y="594" type="line" smooth="yes"/>
      <point x="244" y="594"/>
      <point x="254" y="605"/>
      <point x="254" y="617" type="curve" smooth="yes"/>
      <point x="254" y="630"/>
      <point x="244" y="640"/>
      <point x="231" y="640" type="curve" smooth="yes"/>
      <point x="89" y="640" type="line" smooth="yes"/>
      <point x="75" y="640"/>
      <point x="65" y="630"/>
      <point x="65" y="617" type="curve" smooth="yes"/>
      <point x="65" y="-90" type="line" smooth="yes"/>
      <point x="65" y="-102"/>
      <point x="75" y="-113"/>
      <point x="89" y="-113" type="curve" smooth="yes"/>
    </contour>
  </outline>
</glyph>
<glyph name="backslash" format="1">
  <advance width="386"/>
  <unicode hex="005C"/>
  <outline>
    <contour>
      <point x="335" y="-93" type="curve" smooth="yes"/>
      <point x="347" y="-88"/>
      <point x="353" y="-74"/>
      <point x="349" y="-63" type="curve" smooth="yes"/>
      <point x="88" y="645" type="line" smooth="yes"/>
      <point x="84" y="657"/>
      <point x="69" y="663"/>
      <point x="58" y="659" type="curve" smooth="yes"/>
      <point x="46" y="654"/>
      <point x="39" y="641"/>
      <point x="43" y="629" type="curve" smooth="yes"/>
      <point x="304" y="-79" type="line" smooth="yes"/>
      <point x="309" y="-91"/>
      <point x="323" y="-96"/>
    </contour>
  </outline>
</glyph>
<glyph name="asciicircum" format="1">
  <advance width="486"/>
  <unicode hex="005E"/>
  <outline>
    <contour>
      <point x="406" y="222" type="curve" smooth="yes"/>
      <point x="418" y="228"/>
      <point x="423" y="243"/>
      <point x="417" y="253" type="curve" smooth="yes"/>
      <point x="373" y="337"/>
      <point x="322" y="436"/>
      <point x="270" y="532" type="curve" smooth="yes"/>
      <point x="264" y="543"/>
      <point x="249" y="548"/>
      <point x="238" y="542" type="curve" smooth="yes"/>
      <point x="226" y="536"/>
      <point x="222" y="521"/>
      <point x="227" y="511" type="curve" smooth="yes"/>
      <point x="279" y="414"/>
      <point x="330" y="315"/>
      <point x="374" y="232" type="curve" smooth="yes"/>
      <point x="380" y="220"/>
      <point x="396" y="216"/>
    </contour>
    <contour>
      <point x="81" y="222" type="curve" smooth="yes"/>
      <point x="93" y="216"/>
      <point x="107" y="221"/>
      <point x="113" y="232" type="curve" smooth="yes"/>
      <point x="156" y="315"/>
      <point x="210" y="414"/>
      <point x="260" y="511" type="curve" smooth="yes"/>
      <point x="266" y="521"/>
      <point x="261" y="536"/>
      <point x="249" y="542" type="curve" smooth="yes"/>
      <point x="239" y="548"/>
      <point x="223" y="543"/>
      <point x="217" y="532" type="curve" smooth="yes"/>
      <point x="167" y="436"/>
      <point x="113" y="336"/>
      <point x="70" y="253" type="curve" smooth="yes"/>
      <point x="65" y="242"/>
      <point x="70" y="228"/>
    </contour>
  </outline>
</glyph>
<glyph name="underscore" format="1">
  <advance width="491"/>
  <unicode hex="005F"/>
  <outline>
    <contour>
      <point x="464" y="-121" type="line" smooth="yes"/>
      <point x="477" y="-121"/>
      <point x="487" y="-110"/>
      <point x="487" y="-98" type="curve" smooth="yes"/>
      <point x="487" y="-85"/>
      <point x="477" y="-75"/>
      <point x="464" y="-75" type="curve" smooth="yes"/>
      <point x="28" y="-75" type="line" smooth="yes"/>
      <point x="15" y="-75"/>
      <point x="4" y="-85"/>
      <point x="4" y="-98" type="curve" smooth="yes"/>
      <point x="4" y="-110"/>
      <point x="15" y="-121"/>
      <point x="28" y="-121" type="curve" smooth="yes"/>
    </contour>
  </outline>
</glyph>
<glyph name="c" format="1">
  <advance width="439"/>
  <unicode hex="0063"/>
  <outline>
    <contour>
      <point x="268" y="-7" type="curve" smooth="yes"/>
      <point x="314" y="-7"/>
      <point x="352" y="3"/>
      <point x="383" y="14" type="curve" smooth="yes"/>
      <point x="395" y="19"/>
      <point x="401" y="33"/>
      <point x="397" y="45" type="curve" smooth="yes"/>
      <point x="392" y="56"/>
      <point x="378" y="63"/>
      <point x="366" y="58" type="curve" smooth="yes"/>
      <point x="340" y="47"/>
      <point x="307" y="39"/>
      <point x="268" y="39" type="curve" smooth="yes"/>
      <point x="160" y="39"/>
      <point x="98" y="103"/>
      <point x="98" y="186" type="curve" smooth="yes"/>
      <point x="98" y="281"/>
      <point x="160" y="350"/>
      <point x="269" y="350" type="curve" smooth="yes"/>
      <point x="296" y="350"/>
      <point x="329" y="344"/>
      <point x="355" y="336" type="curve" smooth="yes"/>
      <point x="366" y="332"/>
      <point x="380" y="339"/>
      <point x="384" y="351" type="curve" smooth="yes"/>
      <point x="387" y="362"/>
      <point x="381" y="376"/>
      <point x="369" y="379" type="curve" smooth="yes"/>
      <point x="338" y="389"/>
      <point x="301" y="396"/>
      <point x="269" y="396" type="curve" smooth="yes"/>
      <point x="129" y="396"/>
      <point x="50" y="307"/>
      <point x="50" y="186" type="curve" smooth="yes"/>
      <point x="50" y="79"/>
      <point x="125" y="-7"/>
    </contour>
    <contour>
      <point x="245" y="397" type="move" name="top"/>
    </contour>
    <contour>
      <point x="243" y="-4" type="move" name="bottom"/>
    </contour>
  </outline>
</glyph>
<glyph name="e" format="1">
  <advance width="466"/>
  <unicode hex="0065"/>
  <outline>
    <contour>
      <point x="262" y="-7" type="curve" smooth="yes"/>
      <point x="304" y="-7"/>
      <point x="343" y="4"/>
      <point x="372" y="13" type="curve" smooth="yes"/>
      <point x="384" y="18"/>
      <point x="391" y="32"/>
      <point x="386" y="43" type="curve" smooth="yes"/>
      <point x="382" y="55"/>
      <point x="368" y="61"/>
      <point x="356" y="57" type="curve" smooth="yes"/>
      <point x="331" y="47"/>
      <point x="297" y="39"/>
      <point x="262" y="39" type="curve" smooth="yes"/>
      <point x="161" y="39"/>
      <point x="89" y="91"/>
      <point x="89" y="190" type="curve" smooth="yes"/>
      <point x="89" y="284"/>
      <point x="156" y="350"/>
      <point x="241" y="350" type="curve" smooth="yes"/>
      <point x="311" y="350"/>
      <point x="360" y="300"/>
      <point x="360" y="258" type="curve" smooth="yes"/>
      <point x="360" y="229"/>
      <point x="339" y="217"/>
      <point x="298" y="217" type="curve" smooth="yes"/>
      <point x="78" y="217" type="line" smooth="yes"/>
      <point x="65" y="217"/>
      <point x="55" y="206"/>
      <point x="55" y="194" type="curve" smooth="yes"/>
      <point x="55" y="181"/>
      <point x="65" y="171"/>
      <point x="78" y="171" type="curve" smooth="yes"/>
      <point x="298" y="171" type="line" smooth="yes"/>
      <point x="383" y="171"/>
      <point x="408" y="208"/>
      <point x="408" y="258" type="curve" smooth="yes"/>
      <point x="408" y="316"/>
      <point x="346" y="396"/>
      <point x="241" y="396" type="curve" smooth="yes"/>
      <point x="130" y="396"/>
      <point x="41" y="314"/>
      <point x="41" y="190" type="curve" smooth="yes"/>
      <point x="41" y="63"/>
      <point x="131" y="-7"/>
    </contour>
    <contour>
      <point x="366" y="32" type="move" name="ogonek"/>
    </contour>
    <contour>
      <point x="238" y="-6" type="move" name="bottom"/>
    </contour>
    <contour>
      <point x="232" y="397" type="move" name="top"/>
    </contour>
  </outline>
</glyph>
<glyph name="f" format="1">
  <advance width="305"/>
  <unicode hex="0066"/>
  <outline>
    <contour>
      <point x="127" y="-11" type="curve" smooth="yes"/>
      <point x="140" y="-11"/>
      <point x="151" y="0"/>
      <point x="151" y="13" type="curve" smooth="yes"/>
      <point x="151" y="444" type="line" smooth="yes"/>
      <point x="151" y="506"/>
      <point x="181" y="543"/>
      <point x="271" y="548" type="curve" smooth="yes"/>
      <point x="284" y="549"/>
      <point x="294" y="559"/>
      <point x="293" y="572" type="curve" smooth="yes"/>
      <point x="292" y="585"/>
      <point x="281" y="595"/>
      <point x="269" y="594" type="curve" smooth="yes"/>
      <point x="139" y="587"/>
      <point x="103" y="529"/>
      <point x="103" y="444" type="curve" smooth="yes"/>
      <point x="103" y="13" type="line" smooth="yes"/>
      <point x="103" y="0"/>
      <point x="114" y="-11"/>
    </contour>
    <contour>
      <point x="272" y="346" type="line" smooth="yes"/>
      <point x="285" y="346"/>
      <point x="295" y="356"/>
      <point x="295" y="368" type="curve" smooth="yes"/>
      <point x="295" y="381"/>
      <point x="285" y="392"/>
      <point x="272" y="392" type="curve" smooth="yes"/>
      <point x="34" y="392" type="line" smooth="yes"/>
      <point x="21" y="392"/>
      <point x="10" y="381"/>
      <point x="10" y="368" type="curve" smooth="yes"/>
      <point x="10" y="356"/>
      <point x="21" y="346"/>
      <point x="34" y="346" type="curve" smooth="yes"/>
    </contour>
  </outline>
</glyph>
<glyph name="g" format="1">
  <advance width="509"/>
  <unicode hex="0067"/>
  <outline>
    <contour>
      <point x="166" y="-190" type="curve" smooth="yes"/>
      <point x="350" y="-190"/>
      <point x="433" y="-88"/>
      <point x="433" y="69" type="curve" smooth="yes"/>
      <point x="433" y="377" type="line" smooth="yes"/>
      <point x="433" y="390"/>
      <point x="422" y="400"/>
      <point x="409" y="400" type="curve" smooth="yes"/>
      <point x="396" y="400"/>
      <point x="385" y="390"/>
      <point x="385" y="377" type="curve" smooth="yes"/>
      <point x="385" y="69" type="line" smooth="yes"/>
      <point x="385" y="-60"/>
      <point x="317" y="-144"/>
      <point x="166" y="-144" type="curve" smooth="yes"/>
      <point x="153" y="-144"/>
      <point x="142" y="-155"/>
      <point x="142" y="-167" type="curve" smooth="yes"/>
      <point x="142" y="-180"/>
      <point x="153" y="-190"/>
    </contour>
    <contour>
      <point x="223" y="11" type="curve" smooth="yes"/>
      <point x="299" y="11"/>
      <point x="376" y="52"/>
      <point x="428" y="133" type="curve" smooth="yes"/>
      <point x="435" y="143"/>
      <point x="431" y="158"/>
      <point x="421" y="165" type="curve" smooth="yes"/>
      <point x="410" y="172"/>
      <point x="395" y="168"/>
      <point x="388" y="158" type="curve" smooth="yes"/>
      <point x="345" y="92"/>
      <point x="285" y="57"/>
      <point x="223" y="57" type="curve" smooth="yes"/>
      <point x="159" y="57"/>
      <point x="98" y="99"/>
      <point x="98" y="190" type="curve" smooth="yes"/>
      <point x="98" y="290"/>
      <point x="176" y="354"/>
      <point x="259" y="354" type="curve" smooth="yes"/>
      <point x="313" y="354"/>
      <point x="348" y="342"/>
      <point x="398" y="318" type="curve" smooth="yes"/>
      <point x="410" y="312"/>
      <point x="424" y="318"/>
      <point x="430" y="328" type="curve" smooth="yes"/>
      <point x="435" y="340"/>
      <point x="430" y="354"/>
      <point x="419" y="360" type="curve" smooth="yes"/>
      <point x="360" y="387"/>
      <point x="320" y="400"/>
      <point x="259" y="400" type="curve" smooth="yes"/>
      <point x="153" y="400"/>
      <point x="50" y="320"/>
      <point x="50" y="190" type="curve" smooth="yes"/>
      <point x="50" y="63"/>
      <point x="136" y="11"/>
    </contour>
    <contour>
      <point x="263" y="402" type="move" name="top"/>
    </contour>
  </outline>
</glyph>
<glyph name="h" format="1">
  <advance width="493"/>
  <unicode hex="0068"/>
  <outline>
    <contour>
      <point x="403" y="-11" type="curve" smooth="yes"/>
      <point x="416" y="-11"/>
      <point x="427" y="0"/>
      <point x="427" y="13" type="curve" smooth="yes"/>
      <point x="427" y="221" type="line" smooth="yes"/>
      <point x="427" y="352"/>
      <point x="362" y="392"/>
      <point x="285" y="392" type="curve" smooth="yes"/>
      <point x="213" y="392"/>
      <point x="144" y="349"/>
      <point x="89" y="295" type="curve" smooth="yes"/>
      <point x="80" y="286"/>
      <point x="80" y="270"/>
      <point x="89" y="262" type="curve" smooth="yes"/>
      <point x="98" y="253"/>
      <point x="114" y="253"/>
      <point x="122" y="262" type="curve" smooth="yes"/>
      <point x="168" y="307"/>
      <point x="225" y="346"/>
      <point x="285" y="346" type="curve" smooth="yes"/>
      <point x="341" y="346"/>
      <point x="379" y="307"/>
      <point x="379" y="221" type="curve" smooth="yes"/>
      <point x="379" y="13" type="line" smooth="yes"/>
      <point x="379" y="0"/>
      <point x="390" y="-11"/>
    </contour>
    <contour>
      <point x="102" y="-11" type="curve" smooth="yes"/>
      <point x="115" y="-11"/>
      <point x="126" y="0"/>
      <point x="126" y="13" type="curve" smooth="yes"/>
      <point x="126" y="545" type="line" smooth="yes"/>
      <point x="126" y="558"/>
      <point x="115" y="568"/>
      <point x="102" y="568" type="curve" smooth="yes"/>
      <point x="89" y="568"/>
      <point x="78" y="558"/>
      <point x="78" y="545" type="curve" smooth="yes"/>
      <point x="78" y="13" type="line" smooth="yes"/>
      <point x="78" y="0"/>
      <point x="89" y="-11"/>
    </contour>
  </outline>
</glyph>
<glyph name="i" format="1">
  <advance width="215"/>
  <unicode hex="0069"/>
  <outline>
    <contour>
      <point x="108" y="-12" type="curve" smooth="yes"/>
      <point x="121" y="-12"/>
      <point x="132" y="-1"/>
      <point x="132" y="12" type="curve" smooth="yes"/>
      <point x="132" y="367" type="line" smooth="yes"/>
      <point x="132" y="380"/>
      <point x="121" y="391"/>
      <point x="108" y="391" type="curve" smooth="yes"/>
      <point x="95" y="391"/>
      <point x="84" y="380"/>
      <point x="84" y="367" type="curve" smooth="yes"/>
      <point x="84" y="12" type="line" smooth="yes"/>
      <point x="84" y="-1"/>
      <point x="95" y="-12"/>
    </contour>
    <contour>
      <point x="109" y="509" type="curve" smooth="yes"/>
      <point x="130" y="509"/>
      <point x="151" y="527"/>
      <point x="151" y="557" type="curve" smooth="yes"/>
      <point x="151" y="588"/>
      <point x="130" y="608"/>
      <point x="108" y="608" type="curve" smooth="yes"/>
      <point x="84" y="608"/>
      <point x="65" y="588"/>
      <point x="65" y="557" type="curve" smooth="yes"/>
      <point x="65" y="529"/>
      <point x="84" y="509"/>
    </contour>
    <contour>
      <point x="108" y="-10" type="move" name="bottom"/>
    </contour>
  </outline>
</glyph>
<glyph name="j" format="1">
  <advance width="215"/>
  <unicode hex="006A"/>
  <outline>
    <contour>
      <point x="0" y="-171" type="curve" smooth="yes"/>
      <point x="83" y="-139"/>
      <point x="132" y="-81"/>
      <point x="132" y="35" type="curve" smooth="yes"/>
      <point x="132" y="371" type="line" smooth="yes"/>
      <point x="132" y="384"/>
      <point x="121" y="395"/>
      <point x="108" y="395" type="curve" smooth="yes"/>
      <point x="95" y="395"/>
      <point x="84" y="384"/>
      <point x="84" y="371" type="curve" smooth="yes"/>
      <point x="84" y="35" type="line" smooth="yes"/>
      <point x="84" y="-55"/>
      <point x="48" y="-102"/>
      <point x="-17" y="-128" type="curve" smooth="yes"/>
      <point x="-28" y="-132"/>
      <point x="-35" y="-146"/>
      <point x="-30" y="-157" type="curve" smooth="yes"/>
      <point x="-26" y="-169"/>
      <point x="-12" y="-176"/>
    </contour>
    <contour>
      <point x="109" y="513" type="curve" smooth="yes"/>
      <point x="130" y="513"/>
      <point x="151" y="531"/>
      <point x="151" y="561" type="curve" smooth="yes"/>
      <point x="151" y="592"/>
      <point x="130" y="612"/>
      <point x="108" y="612" type="curve" smooth="yes"/>
      <point x="84" y="612"/>
      <point x="65" y="592"/>
      <point x="65" y="561" type="curve" smooth="yes"/>
      <point x="65" y="533"/>
      <point x="84" y="513"/>
    </contour>
  </outline>
</glyph>
<glyph name="l" format="1">
  <advance width="215"/>
  <unicode hex="006C"/>
  <outline>
    <contour>
      <point x="108" y="-11" type="curve" smooth="yes"/>
      <point x="121" y="-11"/>
      <point x="132" y="0"/>
      <point x="132" y="13" type="curve" smooth="yes"/>
      <point x="132" y="545" type="line" smooth="yes"/>
      <point x="132" y="558"/>
      <point x="121" y="568"/>
      <point x="108" y="568" type="curve" smooth="yes"/>
      <point x="95" y="568"/>
      <point x="84" y="558"/>
      <point x="84" y="545" type="curve" smooth="yes"/>
      <point x="84" y="13" type="line" smooth="yes"/>
      <point x="84" y="0"/>
      <point x="95" y="-11"/>
    </contour>
    <contour>
      <point x="108" y="569" type="move" name="top"/>
    </contour>
    <contour>
      <point x="107" y="-9" type="move" name="bottom"/>
    </contour>
  </outline>
</glyph>
<glyph name="o" format="1">
  <advance width="511"/>
  <unicode hex="006F"/>
  <outline>
    <contour>
      <point x="255" y="-11" type="curve" smooth="yes"/>
      <point x="382" y="-11"/>
      <point x="462" y="77"/>
      <point x="462" y="190" type="curve" smooth="yes"/>
      <point x="462" y="306"/>
      <point x="382" y="400"/>
      <point x="255" y="400" type="curve" smooth="yes"/>
      <point x="128" y="400"/>
      <point x="49" y="306"/>
      <point x="49" y="192" type="curve" smooth="yes"/>
      <point x="49" y="78"/>
      <point x="130" y="-11"/>
    </contour>
    <contour>
      <point x="255" y="35" type="curve" smooth="yes"/>
      <point x="158" y="35"/>
      <point x="97" y="104"/>
      <point x="97" y="192" type="curve" smooth="yes"/>
      <point x="97" y="280"/>
      <point x="156" y="354"/>
      <point x="255" y="354" type="curve" smooth="yes"/>
      <point x="354" y="354"/>
      <point x="414" y="280"/>
      <point x="414" y="190" type="curve" smooth="yes"/>
      <point x="414" y="103"/>
      <point x="352" y="35"/>
    </contour>
    <contour>
      <point x="255" y="401" type="move" name="top"/>
    </contour>
    <contour>
      <point x="255" y="-9" type="move" name="bottom"/>
    </contour>
  </outline>
</glyph>
<glyph name="p" format="1">
  <advance width="509"/>
  <unicode hex="0070"/>
  <outline>
    <contour>
      <point x="264" y="-2" type="curve" smooth="yes"/>
      <point x="380" y="-2"/>
      <point x="462" y="85"/>
      <point x="462" y="200" type="curve" smooth="yes"/>
      <point x="462" y="332"/>
      <point x="372" y="400"/>
      <point x="277" y="400" type="curve" smooth="yes"/>
      <point x="202" y="400"/>
      <point x="136" y="354"/>
      <point x="84" y="279" type="curve" smooth="yes"/>
      <point x="76" y="270"/>
      <point x="79" y="255"/>
      <point x="90" y="248" type="curve" smooth="yes"/>
      <point x="99" y="240"/>
      <point x="115" y="243"/>
      <point x="122" y="253" type="curve" smooth="yes"/>
      <point x="164" y="312"/>
      <point x="216" y="354"/>
      <point x="277" y="354" type="curve" smooth="yes"/>
      <point x="351" y="354"/>
      <point x="414" y="298"/>
      <point x="414" y="200" type="curve" smooth="yes"/>
      <point x="414" y="113"/>
      <point x="354" y="44"/>
      <point x="264" y="44" type="curve" smooth="yes"/>
      <point x="212" y="44"/>
      <point x="160" y="71"/>
      <point x="117" y="106" type="curve" smooth="yes"/>
      <point x="107" y="113"/>
      <point x="91" y="112"/>
      <point x="83" y="103" type="curve" smooth="yes"/>
      <point x="76" y="92"/>
      <point x="77" y="77"/>
      <point x="87" y="69" type="curve" smooth="yes"/>
      <point x="139" y="27"/>
      <point x="203" y="-2"/>
    </contour>
    <contour>
      <point x="102" y="-200" type="curve" smooth="yes"/>
      <point x="115" y="-200"/>
      <point x="126" y="-190"/>
      <point x="126" y="-177" type="curve" smooth="yes"/>
      <point x="126" y="377" type="line" smooth="yes"/>
      <point x="126" y="390"/>
      <point x="115" y="400"/>
      <point x="102" y="400" type="curve" smooth="yes"/>
      <point x="89" y="400"/>
      <point x="78" y="390"/>
      <point x="78" y="377" type="curve" smooth="yes"/>
      <point x="78" y="-177" type="line" smooth="yes"/>
      <point x="78" y="-190"/>
      <point x="89" y="-200"/>
    </contour>
  </outline>
</glyph>
<glyph name="r" format="1">
  <advance width="353"/>
  <unicode hex="0072"/>
  <outline>
    <contour>
      <point x="90" y="217" type="curve" smooth="yes"/>
      <point x="100" y="210"/>
      <point x="116" y="213"/>
      <point x="123" y="224" type="curve" smooth="yes"/>
      <point x="167" y="294"/>
      <point x="221" y="340"/>
      <point x="306" y="350" type="curve" smooth="yes"/>
      <point x="318" y="353"/>
      <point x="327" y="364"/>
      <point x="326" y="377" type="curve" smooth="yes"/>
      <point x="324" y="388"/>
      <point x="312" y="398"/>
      <point x="299" y="396" type="curve" smooth="yes"/>
      <point x="200" y="383"/>
      <point x="136" y="332"/>
      <point x="83" y="249" type="curve" smooth="yes"/>
      <point x="76" y="239"/>
      <point x="79" y="224"/>
    </contour>
    <contour>
      <point x="102" y="-7" type="curve" smooth="yes"/>
      <point x="115" y="-7"/>
      <point x="126" y="4"/>
      <point x="126" y="17" type="curve" smooth="yes"/>
      <point x="126" y="373" type="line" smooth="yes"/>
      <point x="126" y="386"/>
      <point x="115" y="396"/>
      <point x="102" y="396" type="curve" smooth="yes"/>
      <point x="89" y="396"/>
      <point x="78" y="386"/>
      <point x="78" y="373" type="curve" smooth="yes"/>
      <point x="78" y="17" type="line" smooth="yes"/>
      <point x="78" y="4"/>
      <point x="89" y="-7"/>
    </contour>
    <contour>
      <point x="192" y="399" type="move" name="top"/>
    </contour>
    <contour>
      <point x="103" y="-6" type="move" name="bottom"/>
    </contour>
  </outline>
</glyph>
<glyph name="x" format="1">
  <advance width="440"/>
  <unicode hex="0078"/>
  <outline>
    <contour>
      <point x="404" y="-1" type="curve" smooth="yes"/>
      <point x="413" y="7"/>
      <point x="415" y="22"/>
      <point x="406" y="32" type="curve" smooth="yes"/>
      <point x="312" y="140"/>
      <point x="166" y="292"/>
      <point x="84" y="388" type="curve" smooth="yes"/>
      <point x="75" y="398"/>
      <point x="60" y="399"/>
      <point x="51" y="391" type="curve" smooth="yes"/>
      <point x="41" y="383"/>
      <point x="40" y="368"/>
      <point x="48" y="358" type="curve" smooth="yes"/>
      <point x="130" y="262"/>
      <point x="277" y="109"/>
      <point x="371" y="1" type="curve" smooth="yes"/>
      <point x="379" y="-8"/>
      <point x="395" y="-9"/>
    </contour>
    <contour>
      <point x="36" y="-1" type="curve" smooth="yes"/>
      <point x="46" y="-9"/>
      <point x="61" y="-8"/>
      <point x="69" y="1" type="curve" smooth="yes"/>
      <point x="137" y="79"/>
      <point x="304" y="256"/>
      <point x="387" y="359" type="curve" smooth="yes"/>
      <point x="394" y="369"/>
      <point x="392" y="384"/>
      <point x="382" y="392" type="curve" smooth="yes"/>
      <point x="372" y="399"/>
      <point x="357" y="398"/>
      <point x="349" y="387" type="curve" smooth="yes"/>
      <point x="268" y="286"/>
      <point x="102" y="109"/>
      <point x="34" y="32" type="curve" smooth="yes"/>
      <point x="26" y="22"/>
      <point x="27" y="7"/>
    </contour>
  </outline>
</glyph>
<glyph name="bar" format="1">
  <advance width="286"/>
  <unicode hex="007C"/>
  <outline>
    <contour>
      <point x="144" y="-115" type="curve" smooth="yes"/>
      <point x="157" y="-115"/>
      <point x="168" y="-104"/>
      <point x="168" y="-92" type="curve" smooth="yes"/>
      <point x="168" y="618" type="line" smooth="yes"/>
      <point x="168" y="631"/>
      <point x="157" y="641"/>
      <point x="144" y="641" type="curve" smooth="yes"/>
      <point x="131" y="641"/>
      <point x="120" y="631"/>
      <point x="120" y="618" type="curve" smooth="yes"/>
      <point x="120" y="-92" type="line" smooth="yes"/>
      <point x="120" y="-104"/>
      <point x="131" y="-115"/>
    </contour>
  </outline>
</glyph>
<glyph name="braceright" format="1">
  <advance width="404"/>
  <unicode hex="007D"/>
  <outline>
    <contour>
      <point x="114" y="-114" type="line" smooth="yes"/>
      <point x="238" y="-114"/>
      <point x="304" y="-45"/>
      <point x="304" y="21" type="curve" smooth="yes"/>
      <point x="304" y="90"/>
      <point x="234" y="125"/>
      <point x="234" y="186" type="curve" smooth="yes"/>
      <point x="234" y="216"/>
      <point x="270" y="230"/>
      <point x="320" y="237" type="curve" smooth="yes"/>
      <point x="331" y="240"/>
      <point x="341" y="250"/>
      <point x="341" y="260" type="curve" smooth="yes"/>
      <point x="341" y="266" type="line" smooth="yes"/>
      <point x="341" y="277"/>
      <point x="331" y="287"/>
      <point x="320" y="289" type="curve" smooth="yes"/>
      <point x="270" y="297"/>
      <point x="234" y="310"/>
      <point x="234" y="341" type="curve" smooth="yes"/>
      <point x="234" y="401"/>
      <point x="304" y="437"/>
      <point x="304" y="505" type="curve" smooth="yes"/>
      <point x="304" y="572"/>
      <point x="238" y="640"/>
      <point x="114" y="640" type="curve" smooth="yes"/>
      <point x="93" y="640" type="line" smooth="yes"/>
      <point x="80" y="640"/>
      <point x="69" y="630"/>
      <point x="69" y="617" type="curve" smooth="yes"/>
      <point x="69" y="605"/>
      <point x="80" y="594"/>
      <point x="93" y="594" type="curve" smooth="yes"/>
      <point x="114" y="594" type="line" smooth="yes"/>
      <point x="196" y="594"/>
      <point x="256" y="556"/>
      <point x="256" y="505" type="curve" smooth="yes"/>
      <point x="256" y="437"/>
      <point x="186" y="401"/>
      <point x="186" y="341" type="curve" smooth="yes"/>
      <point x="186" y="296"/>
      <point x="219" y="258"/>
      <point x="313" y="243" type="curve"/>
      <point x="293" y="266" type="line"/>
      <point x="293" y="260" type="line"/>
      <point x="313" y="283" type="line"/>
      <point x="219" y="269"/>
      <point x="186" y="231"/>
      <point x="186" y="186" type="curve" smooth="yes"/>
      <point x="186" y="125"/>
      <point x="256" y="90"/>
      <point x="256" y="21" type="curve" smooth="yes"/>
      <point x="256" y="-29"/>
      <point x="196" y="-68"/>
      <point x="114" y="-68" type="curve" smooth="yes"/>
      <point x="93" y="-68" type="line" smooth="yes"/>
      <point x="80" y="-68"/>
      <point x="69" y="-78"/>
      <point x="69" y="-91" type="curve" smooth="yes"/>
      <point x="69" y="-103"/>
      <point x="80" y="-114"/>
      <point x="93" y="-114" type="curve" smooth="yes"/>
    </contour>
  </outline>
</glyph>
<glyph name="asciitilde" format="1">
  <advance width="614"/>
  <unicode hex="007E"/>
  <outline>
    <contour>
      <point x="406" y="175" type="curve" smooth="yes"/>
      <point x="462" y="175"/>
      <point x="501" y="213"/>
      <point x="549" y="312" type="curve" smooth="yes"/>
      <point x="555" y="324"/>
      <point x="549" y="338"/>
      <point x="538" y="344" type="curve" smooth="yes"/>
      <point x="526" y="349"/>
      <point x="512" y="344"/>
      <point x="506" y="333" type="curve" smooth="yes"/>
      <point x="472" y="262"/>
      <point x="450" y="221"/>
      <point x="406" y="221" type="curve" smooth="yes"/>
      <point x="376" y="221"/>
      <point x="354" y="243"/>
      <point x="327" y="274" type="curve" smooth="yes"/>
      <point x="292" y="314"/>
      <point x="263" y="342"/>
      <point x="219" y="342" type="curve" smooth="yes"/>
      <point x="168" y="342"/>
      <point x="126" y="305"/>
      <point x="83" y="216" type="curve" smooth="yes"/>
      <point x="78" y="205"/>
      <point x="84" y="191"/>
      <point x="94" y="185" type="curve" smooth="yes"/>
      <point x="106" y="179"/>
      <point x="120" y="185"/>
      <point x="126" y="195" type="curve" smooth="yes"/>
      <point x="155" y="256"/>
      <point x="180" y="296"/>
      <point x="219" y="296" type="curve" smooth="yes"/>
      <point x="251" y="296"/>
      <point x="268" y="270"/>
      <point x="292" y="243" type="curve" smooth="yes"/>
      <point x="331" y="199"/>
      <point x="364" y="175"/>
    </contour>
  </outline>
</glyph>
<glyph name="exclamdown" format="1">
  <advance width="314"/>
  <unicode hex="00A1"/>
  <outline>
    <contour>
      <point x="163" y="-22" type="curve" smooth="yes"/>
      <point x="176" y="-21"/>
      <point x="187" y="-10"/>
      <point x="187" y="2" type="curve" smooth="yes"/>
      <point x="180" y="291" type="line" smooth="yes"/>
      <point x="180" y="304"/>
      <point x="168" y="314"/>
      <point x="156" y="314" type="curve" smooth="yes"/>
      <point x="143" y="314"/>
      <point x="132" y="303"/>
      <point x="132" y="291" type="curve" smooth="yes"/>
      <point x="139" y="1" type="line" smooth="yes"/>
      <point x="139" y="-11"/>
      <point x="151" y="-22"/>
    </contour>
    <contour>
      <point x="156" y="465" type="curve" smooth="yes"/>
      <point x="182" y="465"/>
      <point x="202" y="487"/>
      <point x="202" y="518" type="curve" smooth="yes"/>
      <point x="202" y="556"/>
      <point x="183" y="571"/>
      <point x="157" y="571" type="curve" smooth="yes"/>
      <point x="135" y="571"/>
      <point x="111" y="555"/>
      <point x="111" y="518" type="curve" smooth="yes"/>
      <point x="111" y="487"/>
      <point x="128" y="465"/>
    </contour>
  </outline>
</glyph>
<glyph name="cent" format="1">
  <advance width="426"/>
  <unicode hex="00A2"/>
  <outline>
    <contour>
      <point x="258" y="71" type="curve" smooth="yes"/>
      <point x="304" y="71"/>
      <point x="342" y="80"/>
      <point x="373" y="91" type="curve" smooth="yes"/>
      <point x="385" y="95"/>
      <point x="391" y="109"/>
      <point x="387" y="121" type="curve" smooth="yes"/>
      <point x="382" y="132"/>
      <point x="368" y="139"/>
      <point x="356" y="134" type="curve" smooth="yes"/>
      <point x="330" y="124"/>
      <point x="297" y="117"/>
      <point x="258" y="117" type="curve" smooth="yes"/>
      <point x="150" y="117"/>
      <point x="88" y="175"/>
      <point x="88" y="255" type="curve" smooth="yes"/>
      <point x="88" y="345"/>
      <point x="151" y="410"/>
      <point x="259" y="410" type="curve" smooth="yes"/>
      <point x="286" y="410"/>
      <point x="319" y="404"/>
      <point x="345" y="396" type="curve" smooth="yes"/>
      <point x="356" y="393"/>
      <point x="370" y="400"/>
      <point x="374" y="411" type="curve" smooth="yes"/>
      <point x="377" y="423"/>
      <point x="371" y="436"/>
      <point x="359" y="440" type="curve" smooth="yes"/>
      <point x="328" y="450"/>
      <point x="291" y="456"/>
      <point x="259" y="456" type="curve" smooth="yes"/>
      <point x="118" y="456"/>
      <point x="40" y="370"/>
      <point x="40" y="255" type="curve" smooth="yes"/>
      <point x="40" y="153"/>
      <point x="115" y="71"/>
    </contour>
    <contour>
      <point x="237" y="-10" type="curve" smooth="yes"/>
      <point x="250" y="-10"/>
      <point x="261" y="1"/>
      <point x="261" y="14" type="curve" smooth="yes"/>
      <point x="261" y="517" type="line" smooth="yes"/>
      <point x="261" y="530"/>
      <point x="250" y="540"/>
      <point x="237" y="540" type="curve" smooth="yes"/>
      <point x="224" y="540"/>
      <point x="213" y="530"/>
      <point x="213" y="517" type="curve" smooth="yes"/>
      <point x="213" y="14" type="line" smooth="yes"/>
      <point x="213" y="1"/>
      <point x="224" y="-10"/>
    </contour>
  </outline>
</glyph>
<glyph name="currency" format="1">
  <advance width="518"/>
  <unicode hex="00A4"/>
  <outline>
    <contour>
      <point x="259" y="39" type="curve" smooth="yes"/>
      <point x="374" y="39"/>
      <point x="449" y="119"/>
      <point x="449" y="223" type="curve" smooth="yes"/>
      <point x="449" y="329"/>
      <point x="375" y="416"/>
      <point x="259" y="416" type="curve" smooth="yes"/>
      <point x="142" y="416"/>
      <point x="69" y="329"/>
      <point x="69" y="225" type="curve" smooth="yes"/>
      <point x="69" y="120"/>
      <point x="144" y="39"/>
    </contour>
    <contour>
      <point x="51" y="-1" type="curve" smooth="yes"/>
      <point x="61" y="-9"/>
      <point x="76" y="-8"/>
      <point x="84" y="1" type="curve" smooth="yes"/>
      <point x="155" y="80" type="line" smooth="yes"/>
      <point x="163" y="89"/>
      <point x="162" y="104"/>
      <point x="153" y="112" type="curve" smooth="yes"/>
      <point x="144" y="120"/>
      <point x="128" y="119"/>
      <point x="120" y="110" type="curve" smooth="yes"/>
      <point x="49" y="32" type="line" smooth="yes"/>
      <point x="41" y="22"/>
      <point x="42" y="7"/>
    </contour>
    <contour>
      <point x="467" y="-1" type="curve" smooth="yes"/>
      <point x="476" y="7"/>
      <point x="477" y="22"/>
      <point x="469" y="32" type="curve" smooth="yes"/>
      <point x="395" y="113" type="line" smooth="yes"/>
      <point x="387" y="122"/>
      <point x="372" y="123"/>
      <point x="362" y="115" type="curve" smooth="yes"/>
      <point x="353" y="107"/>
      <point x="352" y="92"/>
      <point x="360" y="83" type="curve" smooth="yes"/>
      <point x="434" y="1" type="line" smooth="yes"/>
      <point x="442" y="-8"/>
      <point x="458" y="-9"/>
    </contour>
    <contour>
      <point x="259" y="85" type="curve" smooth="yes"/>
      <point x="172" y="85"/>
      <point x="117" y="146"/>
      <point x="117" y="225" type="curve" smooth="yes"/>
      <point x="117" y="303"/>
      <point x="170" y="370"/>
      <point x="259" y="370" type="curve" smooth="yes"/>
      <point x="347" y="370"/>
      <point x="401" y="303"/>
      <point x="401" y="223" type="curve" smooth="yes"/>
      <point x="401" y="145"/>
      <point x="346" y="85"/>
    </contour>
    <contour>
      <point x="155" y="337" type="curve" smooth="yes"/>
      <point x="164" y="345"/>
      <point x="165" y="361"/>
      <point x="157" y="370" type="curve" smooth="yes"/>
      <point x="89" y="444" type="line" smooth="yes"/>
      <point x="81" y="453"/>
      <point x="66" y="454"/>
      <point x="56" y="446" type="curve" smooth="yes"/>
      <point x="47" y="438"/>
      <point x="46" y="423"/>
      <point x="54" y="414" type="curve" smooth="yes"/>
      <point x="122" y="339" type="line" smooth="yes"/>
      <point x="130" y="330"/>
      <point x="146" y="329"/>
    </contour>
    <contour>
      <point x="362" y="338" type="curve" smooth="yes"/>
      <point x="372" y="330"/>
      <point x="387" y="331"/>
      <point x="395" y="340" type="curve" smooth="yes"/>
      <point x="463" y="416" type="line" smooth="yes"/>
      <point x="471" y="425"/>
      <point x="470" y="440"/>
      <point x="461" y="448" type="curve" smooth="yes"/>
      <point x="452" y="456"/>
      <point x="436" y="455"/>
      <point x="428" y="446" type="curve" smooth="yes"/>
      <point x="360" y="371" type="line" smooth="yes"/>
      <point x="352" y="361"/>
      <point x="353" y="346"/>
    </contour>
  </outline>
</glyph>
<glyph name="brokenbar" format="1">
  <advance width="286"/>
  <unicode hex="00A6"/>
  <outline>
    <contour>
      <point x="144" y="289" type="curve" smooth="yes"/>
      <point x="157" y="289"/>
      <point x="168" y="299"/>
      <point x="168" y="312" type="curve" smooth="yes"/>
      <point x="168" y="548" type="line" smooth="yes"/>
      <point x="168" y="561"/>
      <point x="157" y="571"/>
      <point x="144" y="571" type="curve" smooth="yes"/>
      <point x="131" y="571"/>
      <point x="120" y="561"/>
      <point x="120" y="548" type="curve" smooth="yes"/>
      <point x="120" y="312" type="line" smooth="yes"/>
      <point x="120" y="299"/>
      <point x="131" y="289"/>
    </contour>
    <contour>
      <point x="144" y="-113" type="curve" smooth="yes"/>
      <point x="157" y="-113"/>
      <point x="168" y="-102"/>
      <point x="168" y="-90" type="curve" smooth="yes"/>
      <point x="168" y="146" type="line" smooth="yes"/>
      <point x="168" y="159"/>
      <point x="157" y="169"/>
      <point x="144" y="169" type="curve" smooth="yes"/>
      <point x="131" y="169"/>
      <point x="120" y="159"/>
      <point x="120" y="146" type="curve" smooth="yes"/>
      <point x="120" y="-90" type="line" smooth="yes"/>
      <point x="120" y="-102"/>
      <point x="131" y="-113"/>
    </contour>
  </outline>
</glyph>
<glyph name="section" format="1">
  <advance width="522"/>
  <unicode hex="00A7"/>
  <outline>
    <contour>
      <point x="252" y="-134" type="curve" smooth="yes"/>
      <point x="396" y="-134"/>
      <point x="448" y="-70"/>
      <point x="448" y="-6" type="curve" smooth="yes"/>
      <point x="448" y="56"/>
      <point x="412" y="98"/>
      <point x="256" y="125" type="curve" smooth="yes"/>
      <point x="142" y="144"/>
      <point x="112" y="182"/>
      <point x="112" y="223" type="curve" smooth="yes"/>
      <point x="112" y="275"/>
      <point x="161" y="304"/>
      <point x="231" y="304" type="curve" smooth="yes"/>
      <point x="244" y="304"/>
      <point x="254" y="314"/>
      <point x="254" y="327" type="curve" smooth="yes"/>
      <point x="254" y="339"/>
      <point x="244" y="350"/>
      <point x="231" y="350" type="curve" smooth="yes"/>
      <point x="121" y="350"/>
      <point x="64" y="297"/>
      <point x="64" y="223" type="curve" smooth="yes"/>
      <point x="64" y="170"/>
      <point x="81" y="107"/>
      <point x="249" y="79" type="curve" smooth="yes"/>
      <point x="349" y="62"/>
      <point x="400" y="42"/>
      <point x="400" y="-6" type="curve" smooth="yes"/>
      <point x="400" y="-54"/>
      <point x="345" y="-89"/>
      <point x="252" y="-89" type="curve" smooth="yes"/>
      <point x="192" y="-89"/>
      <point x="136" y="-79"/>
      <point x="83" y="-55" type="curve" smooth="yes"/>
      <point x="72" y="-49"/>
      <point x="57" y="-55"/>
      <point x="53" y="-67" type="curve" smooth="yes"/>
      <point x="47" y="-78"/>
      <point x="53" y="-92"/>
      <point x="64" y="-97" type="curve" smooth="yes"/>
      <point x="122" y="-123"/>
      <point x="185" y="-134"/>
    </contour>
    <contour>
      <point x="262" y="79" type="curve" smooth="yes"/>
      <point x="410" y="79"/>
      <point x="458" y="138"/>
      <point x="458" y="202" type="curve" smooth="yes"/>
      <point x="458" y="263"/>
      <point x="419" y="318"/>
      <point x="266" y="349" type="curve" smooth="yes"/>
      <point x="154" y="365"/>
      <point x="122" y="401"/>
      <point x="122" y="438" type="curve" smooth="yes"/>
      <point x="122" y="476"/>
      <point x="175" y="504"/>
      <point x="241" y="504" type="curve" smooth="yes"/>
      <point x="310" y="504"/>
      <point x="344" y="495"/>
      <point x="392" y="481" type="curve" smooth="yes"/>
      <point x="403" y="477"/>
      <point x="417" y="484"/>
      <point x="421" y="495" type="curve" smooth="yes"/>
      <point x="424" y="507"/>
      <point x="418" y="521"/>
      <point x="406" y="524" type="curve" smooth="yes"/>
      <point x="353" y="541"/>
      <point x="317" y="550"/>
      <point x="241" y="550" type="curve" smooth="yes"/>
      <point x="128" y="550"/>
      <point x="74" y="491"/>
      <point x="74" y="438" type="curve" smooth="yes"/>
      <point x="74" y="389"/>
      <point x="91" y="328"/>
      <point x="259" y="303" type="curve" smooth="yes"/>
      <point x="363" y="282"/>
      <point x="410" y="249"/>
      <point x="410" y="202" type="curve" smooth="yes"/>
      <point x="410" y="154"/>
      <point x="354" y="125"/>
      <point x="262" y="125" type="curve" smooth="yes"/>
      <point x="249" y="125"/>
      <point x="238" y="114"/>
      <point x="238" y="102" type="curve" smooth="yes"/>
      <point x="238" y="89"/>
      <point x="249" y="79"/>
    </contour>
  </outline>
</glyph>
<glyph name="logicalnot" format="1">
  <advance width="476"/>
  <unicode hex="00AC"/>
  <outline>
    <contour>
      <point x="377" y="229" type="line" smooth="yes"/>
      <point x="390" y="229"/>
      <point x="400" y="240"/>
      <point x="400" y="252" type="curve" smooth="yes"/>
      <point x="400" y="265"/>
      <point x="390" y="275"/>
      <point x="377" y="275" type="curve" smooth="yes"/>
      <point x="100" y="275" type="line" smooth="yes"/>
      <point x="87" y="275"/>
      <point x="76" y="265"/>
      <point x="76" y="252" type="curve" smooth="yes"/>
      <point x="76" y="240"/>
      <point x="87" y="229"/>
      <point x="100" y="229" type="curve" smooth="yes"/>
    </contour>
    <contour>
      <point x="377" y="117" type="curve" smooth="yes"/>
      <point x="390" y="117"/>
      <point x="401" y="128"/>
      <point x="401" y="140" type="curve" smooth="yes"/>
      <point x="401" y="246" type="line" smooth="yes"/>
      <point x="401" y="258"/>
      <point x="390" y="269"/>
      <point x="377" y="269" type="curve" smooth="yes"/>
      <point x="364" y="269"/>
      <point x="353" y="258"/>
      <point x="353" y="246" type="curve" smooth="yes"/>
      <point x="353" y="140" type="line" smooth="yes"/>
      <point x="353" y="128"/>
      <point x="364" y="117"/>
    </contour>
  </outline>
</glyph>
<glyph name="plusminus" format="1">
  <advance width="528"/>
  <unicode hex="00B1"/>
  <outline>
    <contour>
      <point x="441" y="308" type="line" smooth="yes"/>
      <point x="454" y="308"/>
      <point x="464" y="318"/>
      <point x="464" y="331" type="curve" smooth="yes"/>
      <point x="464" y="343"/>
      <point x="454" y="354"/>
      <point x="441" y="354" type="curve" smooth="yes"/>
      <point x="87" y="354" type="line" smooth="yes"/>
      <point x="74" y="354"/>
      <point x="63" y="343"/>
      <point x="63" y="331" type="curve" smooth="yes"/>
      <point x="63" y="318"/>
      <point x="74" y="308"/>
      <point x="87" y="308" type="curve" smooth="yes"/>
    </contour>
    <contour>
      <point x="441" y="52" type="line" smooth="yes"/>
      <point x="454" y="52"/>
      <point x="464" y="62"/>
      <point x="464" y="75" type="curve" smooth="yes"/>
      <point x="464" y="88"/>
      <point x="454" y="98"/>
      <point x="441" y="98" type="curve" smooth="yes"/>
      <point x="87" y="98" type="line" smooth="yes"/>
      <point x="74" y="98"/>
      <point x="63" y="88"/>
      <point x="63" y="75" type="curve" smooth="yes"/>
      <point x="63" y="62"/>
      <point x="74" y="52"/>
      <point x="87" y="52" type="curve" smooth="yes"/>
    </contour>
    <contour>
      <point x="264" y="184" type="curve" smooth="yes"/>
      <point x="277" y="184"/>
      <point x="288" y="194"/>
      <point x="288" y="207" type="curve" smooth="yes"/>
      <point x="288" y="455" type="line" smooth="yes"/>
      <point x="288" y="467"/>
      <point x="277" y="478"/>
      <point x="264" y="478" type="curve" smooth="yes"/>
      <point x="251" y="478"/>
      <point x="240" y="467"/>
      <point x="240" y="455" type="curve" smooth="yes"/>
      <point x="240" y="207" type="line" smooth="yes"/>
      <point x="240" y="194"/>
      <point x="251" y="184"/>
    </contour>
  </outline>
</glyph>
<glyph name="twosuperior" format="1">
  <advance width="344"/>
  <unicode hex="00B2"/>
  <outline>
    <contour>
      <point x="191" y="327" type="line" smooth="yes"/>
      <point x="261" y="393"/>
      <point x="278" y="419"/>
      <point x="278" y="457" type="curve" smooth="yes"/>
      <point x="278" y="498"/>
      <point x="250" y="541"/>
      <point x="176" y="541" type="curve" smooth="yes"/>
      <point x="141" y="541"/>
      <point x="112" y="532"/>
      <point x="82" y="513" type="curve" smooth="yes"/>
      <point x="71" y="506"/>
      <point x="68" y="491"/>
      <point x="75" y="481" type="curve" smooth="yes"/>
      <point x="82" y="471"/>
      <point x="97" y="467"/>
      <point x="108" y="474" type="curve" smooth="yes"/>
      <point x="129" y="489"/>
      <point x="150" y="495"/>
      <point x="176" y="495" type="curve" smooth="yes"/>
      <point x="210" y="495"/>
      <point x="231" y="479"/>
      <point x="231" y="457" type="curve" smooth="yes"/>
      <point x="231" y="427"/>
      <point x="210" y="409"/>
      <point x="159" y="361" type="curve" smooth="yes"/>
      <point x="66" y="274" type="line" smooth="yes"/>
      <point x="56" y="266"/>
      <point x="56" y="251"/>
      <point x="64" y="241" type="curve" smooth="yes"/>
      <point x="73" y="232"/>
      <point x="89" y="232"/>
      <point x="98" y="240" type="curve" smooth="yes"/>
    </contour>
    <contour>
      <point x="275" y="230" type="line" smooth="yes"/>
      <point x="287" y="230"/>
      <point x="298" y="240"/>
      <point x="298" y="252" type="curve" smooth="yes"/>
      <point x="298" y="265"/>
      <point x="287" y="275"/>
      <point x="275" y="275" type="curve" smooth="yes"/>
      <point x="76" y="275" type="line" smooth="yes"/>
      <point x="63" y="275"/>
      <point x="52" y="265"/>
      <point x="52" y="252" type="curve" smooth="yes"/>
      <point x="52" y="240"/>
      <point x="63" y="230"/>
      <point x="76" y="230" type="curve" smooth="yes"/>
    </contour>
  </outline>
</glyph>
<glyph name="uni00B5" format="1">
  <advance width="493"/>
  <unicode hex="00B5"/>
  <outline>
    <contour>
      <point x="209" y="-7" type="curve" smooth="yes"/>
      <point x="281" y="-7"/>
      <point x="358" y="48"/>
      <point x="407" y="115" type="curve" smooth="yes"/>
      <point x="415" y="125"/>
      <point x="411" y="140"/>
      <point x="402" y="147" type="curve" smooth="yes"/>
      <point x="391" y="155"/>
      <point x="376" y="152"/>
      <point x="369" y="142" type="curve" smooth="yes"/>
      <point x="329" y="88"/>
      <point x="269" y="39"/>
      <point x="209" y="39" type="curve" smooth="yes"/>
      <point x="151" y="39"/>
      <point x="115" y="77"/>
      <point x="115" y="165" type="curve" smooth="yes"/>
      <point x="115" y="373" type="line" smooth="yes"/>
      <point x="115" y="386"/>
      <point x="104" y="396"/>
      <point x="91" y="396" type="curve" smooth="yes"/>
      <point x="78" y="396"/>
      <point x="67" y="386"/>
      <point x="67" y="373" type="curve" smooth="yes"/>
      <point x="67" y="165" type="line" smooth="yes"/>
      <point x="67" y="33"/>
      <point x="130" y="-7"/>
    </contour>
    <contour>
      <point x="91" y="-148" type="curve" smooth="yes"/>
      <point x="104" y="-148"/>
      <point x="115" y="-138"/>
      <point x="115" y="-125" type="curve" smooth="yes"/>
      <point x="115" y="232" type="line" smooth="yes"/>
      <point x="115" y="245"/>
      <point x="104" y="255"/>
      <point x="91" y="255" type="curve" smooth="yes"/>
      <point x="78" y="255"/>
      <point x="67" y="245"/>
      <point x="67" y="232" type="curve" smooth="yes"/>
      <point x="67" y="-125" type="line" smooth="yes"/>
      <point x="67" y="-138"/>
      <point x="78" y="-148"/>
    </contour>
    <contour>
      <point x="392" y="-7" type="curve" smooth="yes"/>
      <point x="405" y="-7"/>
      <point x="416" y="4"/>
      <point x="416" y="17" type="curve" smooth="yes"/>
      <point x="416" y="373" type="line" smooth="yes"/>
      <point x="416" y="386"/>
      <point x="405" y="396"/>
      <point x="392" y="396" type="curve" smooth="yes"/>
      <point x="379" y="396"/>
      <point x="368" y="386"/>
      <point x="368" y="373" type="curve" smooth="yes"/>
      <point x="368" y="17" type="line" smooth="yes"/>
      <point x="368" y="4"/>
      <point x="379" y="-7"/>
    </contour>
  </outline>
</glyph>
<glyph name="paragraph" format="1">
  <advance width="555"/>
  <unicode hex="00B6"/>
  <outline>
    <contour>
      <point x="441" y="-10" type="curve" smooth="yes"/>
      <point x="454" y="-10"/>
      <point x="465" y="1"/>
      <point x="465" y="14" type="curve" smooth="yes"/>
      <point x="465" y="518" type="line" smooth="yes"/>
      <point x="465" y="531"/>
      <point x="454" y="541"/>
      <point x="441" y="541" type="curve" smooth="yes"/>
      <point x="243" y="541" type="line" smooth="yes"/>
      <point x="121" y="541"/>
      <point x="43" y="465"/>
      <point x="43" y="358" type="curve" smooth="yes"/>
      <point x="43" y="257"/>
      <point x="107" y="174"/>
      <point x="243" y="174" type="curve" smooth="yes"/>
      <point x="302" y="174" type="line" smooth="yes"/>
      <point x="315" y="174"/>
      <point x="325" y="184"/>
      <point x="325" y="197" type="curve" smooth="yes"/>
      <point x="325" y="210"/>
      <point x="315" y="220"/>
      <point x="302" y="220" type="curve" smooth="yes"/>
      <point x="243" y="220" type="line" smooth="yes"/>
      <point x="142" y="220"/>
      <point x="91" y="281"/>
      <point x="91" y="358" type="curve" smooth="yes"/>
      <point x="91" y="439"/>
      <point x="152" y="495"/>
      <point x="243" y="495" type="curve" smooth="yes"/>
      <point x="441" y="495" type="line"/>
      <point x="417" y="518" type="line"/>
      <point x="417" y="14" type="line" smooth="yes"/>
      <point x="417" y="1"/>
      <point x="428" y="-10"/>
    </contour>
    <contour>
      <point x="302" y="-10" type="curve" smooth="yes"/>
      <point x="315" y="-10"/>
      <point x="326" y="1"/>
      <point x="326" y="14" type="curve" smooth="yes"/>
      <point x="326" y="516" type="line" smooth="yes"/>
      <point x="326" y="529"/>
      <point x="315" y="539"/>
      <point x="302" y="539" type="curve" smooth="yes"/>
      <point x="289" y="539"/>
      <point x="278" y="529"/>
      <point x="278" y="516" type="curve" smooth="yes"/>
      <point x="278" y="14" type="line" smooth="yes"/>
      <point x="278" y="1"/>
      <point x="289" y="-10"/>
    </contour>
  </outline>
</glyph>
<glyph name="periodcentered" format="1">
  <advance width="207"/>
  <unicode hex="00B7"/>
  <outline>
    <contour>
      <point x="106" y="166" type="curve" smooth="yes"/>
      <point x="130" y="166"/>
      <point x="151" y="181"/>
      <point x="151" y="219" type="curve" smooth="yes"/>
      <point x="151" y="250"/>
      <point x="129" y="272"/>
      <point x="105" y="272" type="curve" smooth="yes"/>
      <point x="76" y="272"/>
      <point x="60" y="250"/>
      <point x="60" y="219" type="curve" smooth="yes"/>
      <point x="60" y="182"/>
      <point x="82" y="166"/>
    </contour>
  </outline>
</glyph>
<glyph name="ordmasculine" format="1">
  <advance width="431"/>
  <unicode hex="00BA"/>
  <outline>
    <contour>
      <point x="216" y="253" type="curve" smooth="yes"/>
      <point x="302" y="253"/>
      <point x="358" y="314"/>
      <point x="358" y="393" type="curve" smooth="yes"/>
      <point x="358" y="471"/>
      <point x="302" y="537"/>
      <point x="216" y="537" type="curve" smooth="yes"/>
      <point x="127" y="537"/>
      <point x="72" y="471"/>
      <point x="72" y="393" type="curve" smooth="yes"/>
      <point x="72" y="314"/>
      <point x="130" y="253"/>
    </contour>
    <contour>
      <point x="350" y="133" type="line" smooth="yes"/>
      <point x="362" y="133"/>
      <point x="373" y="144"/>
      <point x="373" y="156" type="curve" smooth="yes"/>
      <point x="373" y="169"/>
      <point x="362" y="179"/>
      <point x="350" y="179" type="curve" smooth="yes"/>
      <point x="89" y="179" type="line" smooth="yes"/>
      <point x="76" y="179"/>
      <point x="65" y="169"/>
      <point x="65" y="156" type="curve" smooth="yes"/>
      <point x="65" y="144"/>
      <point x="76" y="133"/>
      <point x="89" y="133" type="curve" smooth="yes"/>
    </contour>
    <contour>
      <point x="216" y="299" type="curve" smooth="yes"/>
      <point x="158" y="299"/>
      <point x="119" y="339"/>
      <point x="119" y="393" type="curve" smooth="yes"/>
      <point x="119" y="446"/>
      <point x="155" y="491"/>
      <point x="216" y="491" type="curve" smooth="yes"/>
      <point x="274" y="491"/>
      <point x="311" y="446"/>
      <point x="311" y="393" type="curve" smooth="yes"/>
      <point x="311" y="339"/>
      <point x="274" y="299"/>
    </contour>
  </outline>
</glyph>
<glyph name="guillemotright" format="1">
  <advance width="431"/>
  <unicode hex="00BB"/>
  <outline>
    <contour>
      <point x="62" y="15" type="curve" smooth="yes"/>
      <point x="72" y="7"/>
      <point x="88" y="9"/>
      <point x="95" y="19" type="curve" smooth="yes"/>
      <point x="212" y="176" type="line" smooth="yes"/>
      <point x="220" y="186"/>
      <point x="217" y="201"/>
      <point x="207" y="208" type="curve" smooth="yes"/>
      <point x="196" y="216"/>
      <point x="181" y="214"/>
      <point x="174" y="204" type="curve" smooth="yes"/>
      <point x="57" y="47" type="line" smooth="yes"/>
      <point x="49" y="37"/>
      <point x="51" y="22"/>
    </contour>
    <contour>
      <point x="207" y="176" type="curve" smooth="yes"/>
      <point x="217" y="184"/>
      <point x="220" y="199"/>
      <point x="212" y="209" type="curve" smooth="yes"/>
      <point x="95" y="366" type="line" smooth="yes"/>
      <point x="88" y="376"/>
      <point x="72" y="378"/>
      <point x="62" y="370" type="curve" smooth="yes"/>
      <point x="51" y="363"/>
      <point x="49" y="348"/>
      <point x="57" y="338" type="curve" smooth="yes"/>
      <point x="174" y="181" type="line" smooth="yes"/>
      <point x="181" y="171"/>
      <point x="196" y="169"/>
    </contour>
    <contour>
      <point x="241" y="15" type="curve" smooth="yes"/>
      <point x="251" y="7"/>
      <point x="267" y="9"/>
      <point x="274" y="19" type="curve" smooth="yes"/>
      <point x="390" y="176" type="line" smooth="yes"/>
      <point x="398" y="186"/>
      <point x="395" y="201"/>
      <point x="385" y="208" type="curve" smooth="yes"/>
      <point x="374" y="216"/>
      <point x="359" y="214"/>
      <point x="352" y="204" type="curve" smooth="yes"/>
      <point x="236" y="47" type="line" smooth="yes"/>
      <point x="228" y="37"/>
      <point x="230" y="22"/>
    </contour>
    <contour>
      <point x="385" y="176" type="curve" smooth="yes"/>
      <point x="395" y="184"/>
      <point x="398" y="199"/>
      <point x="390" y="209" type="curve" smooth="yes"/>
      <point x="274" y="366" type="line" smooth="yes"/>
      <point x="267" y="376"/>
      <point x="251" y="378"/>
      <point x="241" y="370" type="curve" smooth="yes"/>
      <point x="230" y="363"/>
      <point x="228" y="348"/>
      <point x="236" y="338" type="curve" smooth="yes"/>
      <point x="352" y="181" type="line" smooth="yes"/>
      <point x="359" y="171"/>
      <point x="374" y="169"/>
    </contour>
  </outline>
</glyph>
<glyph name="onequarter" format="1">
  <advance width="721"/>
  <unicode hex="00BC"/>
  <outline>
    <contour>
      <point x="193" y="-6" type="curve" smooth="yes"/>
      <point x="204" y="-13"/>
      <point x="219" y="-8"/>
      <point x="225" y="2" type="curve" smooth="yes"/>
      <point x="523" y="507" type="line" smooth="yes"/>
      <point x="529" y="517"/>
      <point x="525" y="532"/>
      <point x="514" y="538" type="curve" smooth="yes"/>
      <point x="504" y="544"/>
      <point x="489" y="540"/>
      <point x="483" y="530" type="curve" smooth="yes"/>
      <point x="185" y="25" type="line" smooth="yes"/>
      <point x="178" y="15"/>
      <point x="182" y="0"/>
    </contour>
    <contour>
      <point x="198" y="234" type="curve" smooth="yes"/>
      <point x="210" y="234"/>
      <point x="221" y="244"/>
      <point x="221" y="256" type="curve" smooth="yes"/>
      <point x="221" y="525" type="line" smooth="yes"/>
      <point x="221" y="538"/>
      <point x="210" y="548"/>
      <point x="198" y="548" type="curve" smooth="yes"/>
      <point x="185" y="548"/>
      <point x="174" y="538"/>
      <point x="174" y="525" type="curve" smooth="yes"/>
      <point x="174" y="256" type="line" smooth="yes"/>
      <point x="174" y="244"/>
      <point x="185" y="234"/>
    </contour>
    <contour>
      <point x="634" y="69" type="line" smooth="yes"/>
      <point x="646" y="69"/>
      <point x="657" y="79"/>
      <point x="657" y="92" type="curve" smooth="yes"/>
      <point x="657" y="104"/>
      <point x="646" y="114"/>
      <point x="634" y="114" type="curve" smooth="yes"/>
      <point x="408" y="114" type="line" smooth="yes"/>
      <point x="395" y="114"/>
      <point x="384" y="105"/>
      <point x="384" y="92" type="curve" smooth="yes"/>
      <point x="384" y="79"/>
      <point x="395" y="69"/>
      <point x="408" y="69" type="curve" smooth="yes"/>
    </contour>
    <contour>
      <point x="208" y="508" type="line" smooth="yes"/>
      <point x="220" y="513"/>
      <point x="224" y="528"/>
      <point x="219" y="539" type="curve" smooth="yes"/>
      <point x="213" y="550"/>
      <point x="198" y="554"/>
      <point x="187" y="549" type="curve" smooth="yes"/>
      <point x="101" y="503" type="line" smooth="yes"/>
      <point x="90" y="497"/>
      <point x="85" y="482"/>
      <point x="91" y="472" type="curve" smooth="yes"/>
      <point x="97" y="461"/>
      <point x="112" y="456"/>
      <point x="122" y="462" type="curve" smooth="yes"/>
    </contour>
    <contour>
      <point x="387" y="75" type="curve" smooth="yes"/>
      <point x="397" y="67"/>
      <point x="411" y="68"/>
      <point x="419" y="77" type="curve" smooth="yes"/>
      <point x="582" y="265" type="line" smooth="yes"/>
      <point x="590" y="274"/>
      <point x="589" y="289"/>
      <point x="580" y="297" type="curve" smooth="yes"/>
      <point x="570" y="305"/>
      <point x="555" y="304"/>
      <point x="547" y="294" type="curve" smooth="yes"/>
      <point x="385" y="107" type="line" smooth="yes"/>
      <point x="377" y="98"/>
      <point x="378" y="83"/>
    </contour>
    <contour>
      <point x="568" y="-8" type="curve" smooth="yes"/>
      <point x="581" y="-8"/>
      <point x="592" y="2"/>
      <point x="592" y="15" type="curve" smooth="yes"/>
      <point x="592" y="285" type="line" smooth="yes"/>
      <point x="592" y="298"/>
      <point x="581" y="308"/>
      <point x="568" y="308" type="curve" smooth="yes"/>
      <point x="556" y="308"/>
      <point x="545" y="298"/>
      <point x="545" y="285" type="curve" smooth="yes"/>
      <point x="545" y="15" type="line" smooth="yes"/>
      <point x="545" y="2"/>
      <point x="556" y="-8"/>
    </contour>
  </outline>
</glyph>
<glyph name="onehalf" format="1">
  <advance width="790"/>
  <unicode hex="00BD"/>
  <outline>
    <contour>
      <point x="193" y="-6" type="curve" smooth="yes"/>
      <point x="203" y="-13"/>
      <point x="219" y="-9"/>
      <point x="225" y="2" type="curve" smooth="yes"/>
      <point x="523" y="507" type="line" smooth="yes"/>
      <point x="530" y="517"/>
      <point x="525" y="532"/>
      <point x="514" y="538" type="curve" smooth="yes"/>
      <point x="504" y="545"/>
      <point x="488" y="540"/>
      <point x="482" y="530" type="curve" smooth="yes"/>
      <point x="184" y="25" type="line" smooth="yes"/>
      <point x="178" y="15"/>
      <point x="182" y="0"/>
    </contour>
    <contour>
      <point x="198" y="233" type="curve" smooth="yes"/>
      <point x="211" y="233"/>
      <point x="221" y="244"/>
      <point x="221" y="256" type="curve" smooth="yes"/>
      <point x="221" y="525" type="line" smooth="yes"/>
      <point x="221" y="537"/>
      <point x="211" y="548"/>
      <point x="198" y="548" type="curve" smooth="yes"/>
      <point x="185" y="548"/>
      <point x="175" y="537"/>
      <point x="175" y="525" type="curve" smooth="yes"/>
      <point x="175" y="256" type="line" smooth="yes"/>
      <point x="175" y="244"/>
      <point x="185" y="233"/>
    </contour>
    <contour>
      <point x="674" y="-9" type="line" smooth="yes"/>
      <point x="687" y="-9"/>
      <point x="697" y="1"/>
      <point x="697" y="13" type="curve" smooth="yes"/>
      <point x="697" y="26"/>
      <point x="687" y="36"/>
      <point x="674" y="36" type="curve" smooth="yes"/>
      <point x="475" y="36" type="line" smooth="yes"/>
      <point x="462" y="36"/>
      <point x="452" y="26"/>
      <point x="452" y="13" type="curve" smooth="yes"/>
      <point x="452" y="1"/>
      <point x="462" y="-9"/>
      <point x="475" y="-9" type="curve" smooth="yes"/>
    </contour>
    <contour>
      <point x="209" y="508" type="line" smooth="yes"/>
      <point x="220" y="513"/>
      <point x="224" y="528"/>
      <point x="219" y="539" type="curve" smooth="yes"/>
      <point x="213" y="550"/>
      <point x="198" y="554"/>
      <point x="187" y="549" type="curve" smooth="yes"/>
      <point x="101" y="503" type="line" smooth="yes"/>
      <point x="90" y="497"/>
      <point x="85" y="482"/>
      <point x="91" y="472" type="curve" smooth="yes"/>
      <point x="97" y="461"/>
      <point x="112" y="456"/>
      <point x="123" y="462" type="curve" smooth="yes"/>
    </contour>
    <contour>
      <point x="590" y="88" type="line" smooth="yes"/>
      <point x="660" y="154"/>
      <point x="677" y="180"/>
      <point x="677" y="218" type="curve" smooth="yes"/>
      <point x="677" y="259"/>
      <point x="649" y="302"/>
      <point x="575" y="302" type="curve" smooth="yes"/>
      <point x="540" y="302"/>
      <point x="512" y="293"/>
      <point x="481" y="274" type="curve" smooth="yes"/>
      <point x="471" y="267"/>
      <point x="467" y="252"/>
      <point x="474" y="242" type="curve" smooth="yes"/>
      <point x="481" y="231"/>
      <point x="496" y="228"/>
      <point x="507" y="235" type="curve" smooth="yes"/>
      <point x="528" y="249"/>
      <point x="550" y="256"/>
      <point x="575" y="256" type="curve" smooth="yes"/>
      <point x="609" y="256"/>
      <point x="631" y="240"/>
      <point x="631" y="218" type="curve" smooth="yes"/>
      <point x="631" y="188"/>
      <point x="609" y="170"/>
      <point x="558" y="122" type="curve" smooth="yes"/>
      <point x="465" y="35" type="line" smooth="yes"/>
      <point x="455" y="27"/>
      <point x="455" y="12"/>
      <point x="464" y="2" type="curve" smooth="yes"/>
      <point x="473" y="-7"/>
      <point x="488" y="-7"/>
      <point x="497" y="1" type="curve" smooth="yes"/>
    </contour>
  </outline>
</glyph>
<glyph name="threequarters" format="1">
  <advance width="838"/>
  <unicode hex="00BE"/>
  <outline>
    <contour>
      <point x="292" y="-6" type="curve" smooth="yes"/>
      <point x="303" y="-13"/>
      <point x="318" y="-8"/>
      <point x="324" y="2" type="curve" smooth="yes"/>
      <point x="621" y="507" type="line" smooth="yes"/>
      <point x="627" y="517"/>
      <point x="623" y="532"/>
      <point x="612" y="538" type="curve" smooth="yes"/>
      <point x="602" y="544"/>
      <point x="587" y="540"/>
      <point x="581" y="530" type="curve" smooth="yes"/>
      <point x="284" y="25" type="line" smooth="yes"/>
      <point x="277" y="15"/>
      <point x="281" y="0"/>
    </contour>
    <contour>
      <point x="214" y="224" type="curve" smooth="yes"/>
      <point x="305" y="224"/>
      <point x="342" y="270"/>
      <point x="342" y="322" type="curve" smooth="yes"/>
      <point x="342" y="376"/>
      <point x="301" y="417"/>
      <point x="221" y="417" type="curve" smooth="yes"/>
      <point x="188" y="417"/>
      <point x="163" y="412"/>
      <point x="149" y="408" type="curve" smooth="yes"/>
      <point x="137" y="405"/>
      <point x="130" y="391"/>
      <point x="134" y="379" type="curve" smooth="yes"/>
      <point x="137" y="368"/>
      <point x="151" y="361"/>
      <point x="163" y="365" type="curve" smooth="yes"/>
      <point x="174" y="369"/>
      <point x="195" y="371"/>
      <point x="221" y="371" type="curve" smooth="yes"/>
      <point x="262" y="371"/>
      <point x="295" y="355"/>
      <point x="295" y="322" type="curve" smooth="yes"/>
      <point x="295" y="288"/>
      <point x="263" y="269"/>
      <point x="214" y="269" type="curve" smooth="yes"/>
      <point x="179" y="269"/>
      <point x="150" y="275"/>
      <point x="126" y="285" type="curve" smooth="yes"/>
      <point x="114" y="290"/>
      <point x="100" y="283"/>
      <point x="96" y="271" type="curve" smooth="yes"/>
      <point x="91" y="260"/>
      <point x="98" y="246"/>
      <point x="110" y="242" type="curve" smooth="yes"/>
      <point x="138" y="232"/>
      <point x="172" y="224"/>
    </contour>
    <contour>
      <point x="140" y="373" type="curve" smooth="yes"/>
      <point x="148" y="364"/>
      <point x="163" y="364"/>
      <point x="173" y="372" type="curve" smooth="yes"/>
      <point x="319" y="497" type="line" smooth="yes"/>
      <point x="328" y="505"/>
      <point x="329" y="520"/>
      <point x="321" y="529" type="curve" smooth="yes"/>
      <point x="313" y="538"/>
      <point x="298" y="539"/>
      <point x="289" y="531" type="curve" smooth="yes"/>
      <point x="143" y="405" type="line" smooth="yes"/>
      <point x="133" y="397"/>
      <point x="132" y="383"/>
    </contour>
    <contour>
      <point x="733" y="70" type="line" smooth="yes"/>
      <point x="745" y="70"/>
      <point x="756" y="80"/>
      <point x="756" y="92" type="curve" smooth="yes"/>
      <point x="756" y="105"/>
      <point x="745" y="115"/>
      <point x="733" y="115" type="curve" smooth="yes"/>
      <point x="507" y="115" type="line" smooth="yes"/>
      <point x="494" y="115"/>
      <point x="483" y="105"/>
      <point x="483" y="93" type="curve" smooth="yes"/>
      <point x="483" y="80"/>
      <point x="494" y="70"/>
      <point x="507" y="70" type="curve" smooth="yes"/>
    </contour>
    <contour>
      <point x="309" y="495" type="line" smooth="yes"/>
      <point x="321" y="495"/>
      <point x="332" y="506"/>
      <point x="332" y="518" type="curve" smooth="yes"/>
      <point x="332" y="531"/>
      <point x="321" y="541"/>
      <point x="309" y="541" type="curve" smooth="yes"/>
      <point x="129" y="541" type="line" smooth="yes"/>
      <point x="116" y="541"/>
      <point x="105" y="531"/>
      <point x="105" y="518" type="curve" smooth="yes"/>
      <point x="105" y="506"/>
      <point x="116" y="495"/>
      <point x="129" y="495" type="curve" smooth="yes"/>
    </contour>
    <contour>
      <point x="487" y="75" type="curve" smooth="yes"/>
      <point x="496" y="68"/>
      <point x="510" y="69"/>
      <point x="518" y="78" type="curve" smooth="yes"/>
      <point x="680" y="266" type="line" smooth="yes"/>
      <point x="688" y="275"/>
      <point x="687" y="289"/>
      <point x="678" y="298" type="curve" smooth="yes"/>
      <point x="668" y="305"/>
      <point x="653" y="304"/>
      <point x="645" y="295" type="curve" smooth="yes"/>
      <point x="484" y="108" type="line" smooth="yes"/>
      <point x="476" y="98"/>
      <point x="477" y="84"/>
    </contour>
    <contour>
      <point x="667" y="-8" type="curve" smooth="yes"/>
      <point x="679" y="-8"/>
      <point x="690" y="2"/>
      <point x="690" y="15" type="curve" smooth="yes"/>
      <point x="690" y="285" type="line" smooth="yes"/>
      <point x="690" y="298"/>
      <point x="679" y="308"/>
      <point x="667" y="308" type="curve" smooth="yes"/>
      <point x="654" y="308"/>
      <point x="643" y="298"/>
      <point x="643" y="285" type="curve" smooth="yes"/>
      <point x="643" y="15" type="line" smooth="yes"/>
      <point x="643" y="2"/>
      <point x="654" y="-8"/>
    </contour>
  </outline>
</glyph>
<glyph name="AE" format="1">
  <advance width="764"/>
  <unicode hex="00C6"/>
  <outline>
    <contour>
      <point x="18" y="-6" type="curve" smooth="yes"/>
      <point x="28" y="-13"/>
      <point x="44" y="-10"/>
      <point x="51" y="1" type="curve" smooth="yes"/>
      <point x="137" y="132"/>
      <point x="270" y="330"/>
      <point x="378" y="507" type="curve" smooth="yes"/>
      <point x="385" y="517"/>
      <point x="381" y="531"/>
      <point x="370" y="538" type="curve" smooth="yes"/>
      <point x="359" y="545"/>
      <point x="344" y="541"/>
      <point x="338" y="530" type="curve" smooth="yes"/>
      <point x="230" y="355"/>
      <point x="97" y="157"/>
      <point x="11" y="26" type="curve" smooth="yes"/>
      <point x="4" y="16"/>
      <point x="7" y="1"/>
    </contour>
    <contour>
      <point x="398" y="141" type="line" smooth="yes"/>
      <point x="411" y="141"/>
      <point x="421" y="152"/>
      <point x="421" y="164" type="curve" smooth="yes"/>
      <point x="421" y="177"/>
      <point x="411" y="187"/>
      <point x="398" y="187" type="curve" smooth="yes"/>
      <point x="136" y="187" type="line" smooth="yes"/>
      <point x="123" y="187"/>
      <point x="112" y="177"/>
      <point x="112" y="164" type="curve" smooth="yes"/>
      <point x="112" y="152"/>
      <point x="123" y="141"/>
      <point x="136" y="141" type="curve" smooth="yes"/>
    </contour>
    <contour>
      <point x="692" y="-10" type="line" smooth="yes"/>
      <point x="705" y="-10"/>
      <point x="715" y="1"/>
      <point x="715" y="14" type="curve" smooth="yes"/>
      <point x="715" y="26"/>
      <point x="705" y="36"/>
      <point x="692" y="36" type="curve" smooth="yes"/>
      <point x="408" y="36" type="line" smooth="yes"/>
      <point x="395" y="36"/>
      <point x="384" y="26"/>
      <point x="384" y="14" type="curve" smooth="yes"/>
      <point x="384" y="1"/>
      <point x="395" y="-10"/>
      <point x="408" y="-10" type="curve" smooth="yes"/>
    </contour>
    <contour>
      <point x="399" y="-10" type="curve" smooth="yes"/>
      <point x="412" y="-10"/>
      <point x="423" y="1"/>
      <point x="423" y="14" type="curve" smooth="yes"/>
      <point x="423" y="518" type="line" smooth="yes"/>
      <point x="423" y="531"/>
      <point x="412" y="541"/>
      <point x="399" y="541" type="curve" smooth="yes"/>
      <point x="386" y="541"/>
      <point x="375" y="531"/>
      <point x="375" y="518" type="curve" smooth="yes"/>
      <point x="375" y="14" type="line" smooth="yes"/>
      <point x="375" y="1"/>
      <point x="386" y="-10"/>
    </contour>
    <contour>
      <point x="645" y="262" type="line" smooth="yes"/>
      <point x="658" y="262"/>
      <point x="668" y="272"/>
      <point x="668" y="285" type="curve" smooth="yes"/>
      <point x="668" y="298"/>
      <point x="658" y="308"/>
      <point x="645" y="308" type="curve" smooth="yes"/>
      <point x="408" y="308" type="line" smooth="yes"/>
      <point x="395" y="308"/>
      <point x="384" y="298"/>
      <point x="384" y="285" type="curve" smooth="yes"/>
      <point x="384" y="272"/>
      <point x="395" y="262"/>
      <point x="408" y="262" type="curve" smooth="yes"/>
    </contour>
    <contour>
      <point x="417" y="495" type="line" smooth="yes"/>
      <point x="430" y="495"/>
      <point x="440" y="506"/>
      <point x="440" y="518" type="curve" smooth="yes"/>
      <point x="440" y="531"/>
      <point x="430" y="541"/>
      <point x="417" y="541" type="curve" smooth="yes"/>
      <point x="363" y="541" type="line" smooth="yes"/>
      <point x="350" y="541"/>
      <point x="339" y="531"/>
      <point x="339" y="518" type="curve" smooth="yes"/>
      <point x="339" y="506"/>
      <point x="350" y="495"/>
      <point x="363" y="495" type="curve" smooth="yes"/>
    </contour>
    <contour>
      <point x="690" y="495" type="line" smooth="yes"/>
      <point x="703" y="495"/>
      <point x="713" y="506"/>
      <point x="713" y="518" type="curve" smooth="yes"/>
      <point x="713" y="531"/>
      <point x="703" y="541"/>
      <point x="690" y="541" type="curve" smooth="yes"/>
      <point x="408" y="541" type="line" smooth="yes"/>
      <point x="395" y="541"/>
      <point x="384" y="531"/>
      <point x="384" y="518" type="curve" smooth="yes"/>
      <point x="384" y="506"/>
      <point x="395" y="495"/>
      <point x="408" y="495" type="curve" smooth="yes"/>
    </contour>
  </outline>
</glyph>
<glyph name="germandbls" format="1">
  <advance width="505"/>
  <unicode hex="00DF"/>
  <outline>
    <contour>
      <point x="108" y="-11" type="curve" smooth="yes"/>
      <point x="121" y="-11"/>
      <point x="132" y="0"/>
      <point x="132" y="13" type="curve" smooth="yes"/>
      <point x="132" y="440" type="line" smooth="yes"/>
      <point x="132" y="500"/>
      <point x="164" y="547"/>
      <point x="235" y="549" type="curve" smooth="yes"/>
      <point x="308" y="550"/>
      <point x="344" y="502"/>
      <point x="344" y="451" type="curve" smooth="yes"/>
      <point x="344" y="398"/>
      <point x="326" y="367"/>
      <point x="246" y="314" type="curve" smooth="yes"/>
      <point x="235" y="307"/>
      <point x="232" y="292"/>
      <point x="239" y="281" type="curve" smooth="yes"/>
      <point x="246" y="271"/>
      <point x="261" y="268"/>
      <point x="272" y="275" type="curve" smooth="yes"/>
      <point x="375" y="344"/>
      <point x="392" y="386"/>
      <point x="392" y="451" type="curve" smooth="yes"/>
      <point x="392" y="523"/>
      <point x="343" y="596"/>
      <point x="235" y="595" type="curve" smooth="yes"/>
      <point x="133" y="593"/>
      <point x="84" y="528"/>
      <point x="84" y="440" type="curve" smooth="yes"/>
      <point x="84" y="13" type="line" smooth="yes"/>
      <point x="84" y="0"/>
      <point x="95" y="-11"/>
    </contour>
    <contour>
      <point x="324" y="-16" type="curve" smooth="yes"/>
      <point x="419" y="-16"/>
      <point x="470" y="41"/>
      <point x="470" y="117" type="curve" smooth="yes"/>
      <point x="470" y="175"/>
      <point x="436" y="230"/>
      <point x="356" y="269" type="curve" smooth="yes"/>
      <point x="269" y="311" type="line" smooth="yes"/>
      <point x="258" y="317"/>
      <point x="243" y="311"/>
      <point x="238" y="300" type="curve" smooth="yes"/>
      <point x="232" y="289"/>
      <point x="237" y="275"/>
      <point x="248" y="269" type="curve" smooth="yes"/>
      <point x="335" y="228" type="line" smooth="yes"/>
      <point x="394" y="200"/>
      <point x="422" y="161"/>
      <point x="422" y="117" type="curve" smooth="yes"/>
      <point x="422" y="65"/>
      <point x="386" y="31"/>
      <point x="324" y="31" type="curve" smooth="yes"/>
      <point x="299" y="31"/>
      <point x="276" y="35"/>
      <point x="262" y="41" type="curve" smooth="yes"/>
      <point x="250" y="46"/>
      <point x="236" y="39"/>
      <point x="232" y="27" type="curve" smooth="yes"/>
      <point x="227" y="16"/>
      <point x="234" y="2"/>
      <point x="246" y="-2" type="curve" smooth="yes"/>
      <point x="264" y="-9"/>
      <point x="292" y="-16"/>
    </contour>
  </outline>
</glyph>
<glyph name="ae" format="1">
  <advance width="766"/>
  <unicode hex="00E6"/>
  <outline>
    <contour>
      <point x="563" y="-7" type="curve" smooth="yes"/>
      <point x="604" y="-7"/>
      <point x="643" y="4"/>
      <point x="673" y="13" type="curve" smooth="yes"/>
      <point x="685" y="18"/>
      <point x="691" y="32"/>
      <point x="687" y="43" type="curve" smooth="yes"/>
      <point x="682" y="55"/>
      <point x="668" y="61"/>
      <point x="657" y="57" type="curve" smooth="yes"/>
      <point x="632" y="47"/>
      <point x="597" y="39"/>
      <point x="563" y="39" type="curve" smooth="yes"/>
      <point x="462" y="39"/>
      <point x="390" y="91"/>
      <point x="390" y="190" type="curve"/>
      <point x="390" y="284"/>
      <point x="456" y="350"/>
      <point x="542" y="350" type="curve" smooth="yes"/>
      <point x="611" y="350"/>
      <point x="661" y="300"/>
      <point x="661" y="258" type="curve" smooth="yes"/>
      <point x="661" y="229"/>
      <point x="639" y="217"/>
      <point x="599" y="217" type="curve" smooth="yes"/>
      <point x="379" y="217" type="line" smooth="yes"/>
      <point x="366" y="217"/>
      <point x="355" y="206"/>
      <point x="355" y="194" type="curve" smooth="yes"/>
      <point x="355" y="181"/>
      <point x="366" y="171"/>
      <point x="379" y="171" type="curve" smooth="yes"/>
      <point x="599" y="171" type="line" smooth="yes"/>
      <point x="684" y="171"/>
      <point x="709" y="208"/>
      <point x="709" y="258" type="curve" smooth="yes"/>
      <point x="709" y="316"/>
      <point x="646" y="396"/>
      <point x="542" y="396" type="curve" smooth="yes"/>
      <point x="431" y="396"/>
      <point x="342" y="314"/>
      <point x="342" y="190" type="curve" smooth="yes"/>
      <point x="342" y="63"/>
      <point x="431" y="-7"/>
    </contour>
    <contour>
      <point x="170" y="-7" type="curve" smooth="yes"/>
      <point x="252" y="-7"/>
      <point x="329" y="34"/>
      <point x="393" y="91" type="curve" smooth="yes"/>
      <point x="402" y="99"/>
      <point x="403" y="115"/>
      <point x="395" y="124" type="curve" smooth="yes"/>
      <point x="387" y="133"/>
      <point x="372" y="134"/>
      <point x="362" y="126" type="curve" smooth="yes"/>
      <point x="306" y="76"/>
      <point x="241" y="39"/>
      <point x="170" y="39" type="curve" smooth="yes"/>
      <point x="116" y="39"/>
      <point x="92" y="73"/>
      <point x="92" y="101" type="curve" smooth="yes"/>
      <point x="92" y="121"/>
      <point x="96" y="140"/>
      <point x="113" y="156" type="curve" smooth="yes"/>
      <point x="142" y="183"/>
      <point x="188" y="199"/>
      <point x="257" y="199" type="curve" smooth="yes"/>
      <point x="287" y="199"/>
      <point x="326" y="197"/>
      <point x="361" y="196" type="curve" smooth="yes"/>
      <point x="374" y="196"/>
      <point x="385" y="206"/>
      <point x="385" y="218" type="curve" smooth="yes"/>
      <point x="385" y="230"/>
      <point x="375" y="242"/>
      <point x="363" y="242" type="curve" smooth="yes"/>
      <point x="326" y="243"/>
      <point x="287" y="245"/>
      <point x="257" y="245" type="curve" smooth="yes"/>
      <point x="171" y="245"/>
      <point x="116" y="223"/>
      <point x="80" y="188" type="curve" smooth="yes"/>
      <point x="53" y="163"/>
      <point x="44" y="135"/>
      <point x="44" y="101" type="curve" smooth="yes"/>
      <point x="44" y="56"/>
      <point x="74" y="-7"/>
    </contour>
    <contour>
      <point x="363" y="180" type="curve" smooth="yes"/>
      <point x="376" y="180"/>
      <point x="387" y="190"/>
      <point x="387" y="203" type="curve" smooth="yes"/>
      <point x="387" y="231" type="line" smooth="yes"/>
      <point x="387" y="328"/>
      <point x="326" y="396"/>
      <point x="215" y="396" type="curve" smooth="yes"/>
      <point x="177" y="396"/>
      <point x="133" y="386"/>
      <point x="110" y="378" type="curve" smooth="yes"/>
      <point x="98" y="375"/>
      <point x="91" y="361"/>
      <point x="94" y="350" type="curve" smooth="yes"/>
      <point x="98" y="338"/>
      <point x="112" y="331"/>
      <point x="124" y="335" type="curve" smooth="yes"/>
      <point x="144" y="342"/>
      <point x="182" y="350"/>
      <point x="215" y="350" type="curve" smooth="yes"/>
      <point x="295" y="350"/>
      <point x="339" y="302"/>
      <point x="339" y="231" type="curve" smooth="yes"/>
      <point x="339" y="203" type="line" smooth="yes"/>
      <point x="339" y="190"/>
      <point x="350" y="180"/>
    </contour>
  </outline>
</glyph>
<glyph name="oslash" format="1">
  <advance width="516"/>
  <unicode hex="00F8"/>
  <outline>
    <contour>
      <point x="255" y="-11" type="curve" smooth="yes"/>
      <point x="382" y="-11"/>
      <point x="462" y="77"/>
      <point x="462" y="190" type="curve" smooth="yes"/>
      <point x="462" y="306"/>
      <point x="382" y="400"/>
      <point x="255" y="400" type="curve" smooth="yes"/>
      <point x="128" y="400"/>
      <point x="49" y="306"/>
      <point x="49" y="192" type="curve" smooth="yes"/>
      <point x="49" y="78"/>
      <point x="130" y="-11"/>
    </contour>
    <contour>
      <point x="61" y="0" type="curve" smooth="yes"/>
      <point x="71" y="-9"/>
      <point x="86" y="-9"/>
      <point x="94" y="0" type="curve" smooth="yes"/>
      <point x="452" y="357" type="line" smooth="yes"/>
      <point x="461" y="366"/>
      <point x="461" y="381"/>
      <point x="452" y="390" type="curve" smooth="yes"/>
      <point x="443" y="399"/>
      <point x="428" y="399"/>
      <point x="419" y="389" type="curve" smooth="yes"/>
      <point x="61" y="32" type="line" smooth="yes"/>
      <point x="52" y="23"/>
      <point x="52" y="9"/>
    </contour>
    <contour>
      <point x="255" y="35" type="curve" smooth="yes"/>
      <point x="158" y="35"/>
      <point x="97" y="104"/>
      <point x="97" y="192" type="curve" smooth="yes"/>
      <point x="97" y="280"/>
      <point x="156" y="354"/>
      <point x="255" y="354" type="curve" smooth="yes"/>
      <point x="354" y="354"/>
      <point x="414" y="280"/>
      <point x="414" y="190" type="curve" smooth="yes"/>
      <point x="414" y="103"/>
      <point x="352" y="35"/>
    </contour>
  </outline>
</glyph>
<glyph name="hbar" format="1">
  <advance width="493"/>
  <unicode hex="0127"/>
  <outline>
    <contour>
      <point x="403" y="-11" type="curve" smooth="yes"/>
      <point x="416" y="-11"/>
      <point x="427" y="0"/>
      <point x="427" y="13" type="curve" smooth="yes"/>
      <point x="427" y="221" type="line" smooth="yes"/>
      <point x="427" y="352"/>
      <point x="362" y="392"/>
      <point x="285" y="392" type="curve" smooth="yes"/>
      <point x="213" y="392"/>
      <point x="144" y="349"/>
      <point x="89" y="295" type="curve" smooth="yes"/>
      <point x="80" y="286"/>
      <point x="80" y="270"/>
      <point x="89" y="262" type="curve" smooth="yes"/>
      <point x="98" y="253"/>
      <point x="114" y="253"/>
      <point x="122" y="262" type="curve" smooth="yes"/>
      <point x="168" y="307"/>
      <point x="225" y="346"/>
      <point x="285" y="346" type="curve" smooth="yes"/>
      <point x="341" y="346"/>
      <point x="379" y="307"/>
      <point x="379" y="221" type="curve" smooth="yes"/>
      <point x="379" y="13" type="line" smooth="yes"/>
      <point x="379" y="0"/>
      <point x="390" y="-11"/>
    </contour>
    <contour>
      <point x="102" y="-11" type="curve" smooth="yes"/>
      <point x="115" y="-11"/>
      <point x="126" y="0"/>
      <point x="126" y="13" type="curve" smooth="yes"/>
      <point x="126" y="545" type="line" smooth="yes"/>
      <point x="126" y="558"/>
      <point x="115" y="568"/>
      <point x="102" y="568" type="curve" smooth="yes"/>
      <point x="89" y="568"/>
      <point x="78" y="558"/>
      <point x="78" y="545" type="curve" smooth="yes"/>
      <point x="78" y="13" type="line" smooth="yes"/>
      <point x="78" y="0"/>
      <point x="89" y="-11"/>
    </contour>
    <contour>
      <point x="243" y="442" type="line" smooth="yes"/>
      <point x="256" y="442"/>
      <point x="266" y="452"/>
      <point x="266" y="465" type="curve" smooth="yes"/>
      <point x="266" y="478"/>
      <point x="256" y="488"/>
      <point x="243" y="488" type="curve" smooth="yes"/>
      <point x="26" y="488" type="line" smooth="yes"/>
      <point x="13" y="488"/>
      <point x="2" y="478"/>
      <point x="2" y="465" type="curve" smooth="yes"/>
      <point x="2" y="452"/>
      <point x="13" y="442"/>
      <point x="26" y="442" type="curve" smooth="yes"/>
    </contour>
  </outline>
</glyph>
<glyph name="Iogonek" format="1">
  <advance width="240"/>
  <unicode hex="012E"/>
  <outline>
    <contour>
      <point x="157" y="-220" type="curve" smooth="yes"/>
      <point x="169" y="-220"/>
      <point x="180" y="-210"/>
      <point x="180" y="-197" type="curve" smooth="yes"/>
      <point x="180" y="-185"/>
      <point x="169" y="-176"/>
      <point x="157" y="-176" type="curve" smooth="yes"/>
      <point x="98" y="-176"/>
      <point x="57" y="-162"/>
      <point x="57" y="-133" type="curve" smooth="yes"/>
      <point x="57" y="-109"/>
      <point x="73" y="-84"/>
      <point x="136" y="-21" type="curve" smooth="yes"/>
      <point x="140" y="-16"/>
      <point x="144" y="-10"/>
      <point x="144" y="-4" type="curve" smooth="yes"/>
      <point x="144" y="33" type="line" smooth="yes"/>
      <point x="144" y="46"/>
      <point x="133" y="56"/>
      <point x="121" y="56" type="curve" smooth="yes"/>
      <point x="108" y="56"/>
      <point x="96" y="46"/>
      <point x="96" y="33" type="curve" smooth="yes"/>
      <point x="96" y="-4" type="line"/>
      <point x="106" y="12" type="line"/>
      <point x="24" y="-70"/>
      <point x="9" y="-103"/>
      <point x="9" y="-135" type="curve" smooth="yes"/>
      <point x="9" y="-179"/>
      <point x="47" y="-220"/>
    </contour>
    <contour>
      <point x="120" y="-10" type="curve" smooth="yes"/>
      <point x="133" y="-10"/>
      <point x="144" y="1"/>
      <point x="144" y="14" type="curve" smooth="yes"/>
      <point x="144" y="518" type="line" smooth="yes"/>
      <point x="144" y="531"/>
      <point x="133" y="541"/>
      <point x="120" y="541" type="curve" smooth="yes"/>
      <point x="107" y="541"/>
      <point x="96" y="531"/>
      <point x="96" y="518" type="curve" smooth="yes"/>
      <point x="96" y="14" type="line" smooth="yes"/>
      <point x="96" y="1"/>
      <point x="107" y="-10"/>
    </contour>
    <contour>
      <point x="121" y="31" type="move" name="_ogonek"/>
    </contour>
  </outline>
</glyph>
<glyph name="iogonek" format="1">
  <advance width="188"/>
  <unicode hex="012F"/>
  <outline>
    <contour>
      <point x="130" y="-221" type="curve" smooth="yes"/>
      <point x="143" y="-221"/>
      <point x="153" y="-211"/>
      <point x="153" y="-198" type="curve" smooth="yes"/>
      <point x="153" y="-186"/>
      <point x="143" y="-177"/>
      <point x="130" y="-177" type="curve" smooth="yes"/>
      <point x="71" y="-177"/>
      <point x="30" y="-163"/>
      <point x="30" y="-135" type="curve" smooth="yes"/>
      <point x="30" y="-110"/>
      <point x="46" y="-86"/>
      <point x="110" y="-22" type="curve" smooth="yes"/>
      <point x="114" y="-18"/>
      <point x="118" y="-11"/>
      <point x="118" y="-5" type="curve" smooth="yes"/>
      <point x="118" y="32" type="line" smooth="yes"/>
      <point x="118" y="45"/>
      <point x="107" y="55"/>
      <point x="95" y="55" type="curve" smooth="yes"/>
      <point x="82" y="55"/>
      <point x="70" y="46"/>
      <point x="70" y="34" type="curve" smooth="yes"/>
      <point x="70" y="-5" type="line"/>
      <point x="80" y="12" type="line"/>
      <point x="-3" y="-70"/>
      <point x="-17" y="-104"/>
      <point x="-17" y="-136" type="curve" smooth="yes"/>
      <point x="-17" y="-180"/>
      <point x="21" y="-221"/>
    </contour>
    <contour>
      <point x="94" y="-7" type="curve" smooth="yes"/>
      <point x="107" y="-7"/>
      <point x="118" y="4"/>
      <point x="118" y="17" type="curve" smooth="yes"/>
      <point x="118" y="373" type="line" smooth="yes"/>
      <point x="118" y="386"/>
      <point x="107" y="396"/>
      <point x="94" y="396" type="curve" smooth="yes"/>
      <point x="81" y="396"/>
      <point x="70" y="386"/>
      <point x="70" y="373" type="curve" smooth="yes"/>
      <point x="70" y="17" type="line" smooth="yes"/>
      <point x="70" y="4"/>
      <point x="81" y="-7"/>
    </contour>
    <contour>
      <point x="94" y="501" type="curve" smooth="yes"/>
      <point x="116" y="501"/>
      <point x="136" y="517"/>
      <point x="136" y="549" type="curve" smooth="yes"/>
      <point x="136" y="582"/>
      <point x="115" y="599"/>
      <point x="94" y="599" type="curve" smooth="yes"/>
      <point x="70" y="599"/>
      <point x="50" y="580"/>
      <point x="50" y="549" type="curve" smooth="yes"/>
      <point x="50" y="519"/>
      <point x="70" y="501"/>
    </contour>
    <contour>
      <point x="95" y="30" type="move" name="_ogonek"/>
    </contour>
  </outline>
</glyph>
<glyph name="dotlessi" format="1">
  <advance width="188"/>
  <unicode hex="0131"/>
  <outline>
    <contour>
      <point x="94" y="-7" type="curve" smooth="yes"/>
      <point x="107" y="-7"/>
      <point x="118" y="4"/>
      <point x="118" y="17" type="curve" smooth="yes"/>
      <point x="118" y="373" type="line" smooth="yes"/>
      <point x="118" y="386"/>
      <point x="107" y="396"/>
      <point x="94" y="396" type="curve" smooth="yes"/>
      <point x="81" y="396"/>
      <point x="70" y="386"/>
      <point x="70" y="373" type="curve" smooth="yes"/>
      <point x="70" y="17" type="line" smooth="yes"/>
      <point x="70" y="4"/>
      <point x="81" y="-7"/>
    </contour>
    <contour>
      <point x="95" y="30" type="move" name="ogonek"/>
    </contour>
    <contour>
      <point x="94" y="-7" type="move" name="bottom"/>
    </contour>
    <contour>
      <point x="94" y="396" type="move" name="top"/>
    </contour>
  </outline>
</glyph>
<glyph name="lcaron" format="1">
  <advance width="340"/>
  <unicode hex="013E"/>
  <outline>
    <contour>
      <point x="108" y="-11" type="curve" smooth="yes"/>
      <point x="121" y="-11"/>
      <point x="132" y="0"/>
      <point x="132" y="13" type="curve" smooth="yes"/>
      <point x="132" y="544" type="line" smooth="yes"/>
      <point x="132" y="557"/>
      <point x="121" y="567"/>
      <point x="108" y="567" type="curve" smooth="yes"/>
      <point x="95" y="567"/>
      <point x="84" y="557"/>
      <point x="84" y="544" type="curve" smooth="yes"/>
      <point x="84" y="13" type="line" smooth="yes"/>
      <point x="84" y="0"/>
      <point x="95" y="-11"/>
    </contour>
    <contour>
      <point x="282" y="405" type="curve" smooth="yes"/>
      <point x="295" y="404"/>
      <point x="307" y="412"/>
      <point x="310" y="424" type="curve" smooth="yes"/>
      <point x="331" y="568" type="line" smooth="yes"/>
      <point x="332" y="581"/>
      <point x="323" y="593"/>
      <point x="310" y="595" type="curve" smooth="yes"/>
      <point x="297" y="596"/>
      <point x="285" y="588"/>
      <point x="283" y="575" type="curve" smooth="yes"/>
      <point x="262" y="431" type="line" smooth="yes"/>
      <point x="260" y="419"/>
      <point x="269" y="407"/>
    </contour>
  </outline>
</glyph>
<glyph name="Lslash" format="1">
  <advance width="469"/>
  <unicode hex="0141"/>
  <outline>
    <contour>
      <point x="290" y="329" type="line" smooth="yes"/>
      <point x="300" y="336"/>
      <point x="303" y="351"/>
      <point x="297" y="361" type="curve" smooth="yes"/>
      <point x="290" y="372"/>
      <point x="274" y="375"/>
      <point x="264" y="368" type="curve" smooth="yes"/>
      <point x="38" y="220" type="line" smooth="yes"/>
      <point x="27" y="213"/>
      <point x="24" y="199"/>
      <point x="31" y="188" type="curve" smooth="yes"/>
      <point x="38" y="178"/>
      <point x="53" y="175"/>
      <point x="64" y="181" type="curve" smooth="yes"/>
    </contour>
    <contour>
      <point x="416" y="-10" type="line" smooth="yes"/>
      <point x="429" y="-10"/>
      <point x="439" y="1"/>
      <point x="439" y="14" type="curve" smooth="yes"/>
      <point x="439" y="26"/>
      <point x="429" y="36"/>
      <point x="416" y="36" type="curve" smooth="yes"/>
      <point x="140" y="36" type="line" smooth="yes"/>
      <point x="127" y="36"/>
      <point x="116" y="26"/>
      <point x="116" y="14" type="curve" smooth="yes"/>
      <point x="116" y="1"/>
      <point x="127" y="-10"/>
      <point x="140" y="-10" type="curve" smooth="yes"/>
    </contour>
    <contour>
      <point x="131" y="-10" type="curve" smooth="yes"/>
      <point x="144" y="-10"/>
      <point x="155" y="1"/>
      <point x="155" y="14" type="curve" smooth="yes"/>
      <point x="155" y="518" type="line" smooth="yes"/>
      <point x="155" y="531"/>
      <point x="144" y="541"/>
      <point x="131" y="541" type="curve" smooth="yes"/>
      <point x="118" y="541"/>
      <point x="107" y="531"/>
      <point x="107" y="518" type="curve" smooth="yes"/>
      <point x="107" y="14" type="line" smooth="yes"/>
      <point x="107" y="1"/>
      <point x="118" y="-10"/>
    </contour>
  </outline>
</glyph>
<glyph name="eng" format="1">
  <advance width="493"/>
  <unicode hex="014B"/>
  <outline>
    <contour>
      <point x="403" y="-7" type="curve" smooth="yes"/>
      <point x="416" y="-7"/>
      <point x="427" y="4"/>
      <point x="427" y="17" type="curve" smooth="yes"/>
      <point x="427" y="225" type="line" smooth="yes"/>
      <point x="427" y="357"/>
      <point x="362" y="396"/>
      <point x="285" y="396" type="curve" smooth="yes"/>
      <point x="213" y="396"/>
      <point x="144" y="354"/>
      <point x="89" y="298" type="curve" smooth="yes"/>
      <point x="80" y="289"/>
      <point x="80" y="274"/>
      <point x="89" y="266" type="curve" smooth="yes"/>
      <point x="99" y="257"/>
      <point x="114" y="257"/>
      <point x="122" y="266" type="curve" smooth="yes"/>
      <point x="168" y="312"/>
      <point x="225" y="350"/>
      <point x="285" y="350" type="curve" smooth="yes"/>
      <point x="341" y="350"/>
      <point x="379" y="312"/>
      <point x="379" y="225" type="curve" smooth="yes"/>
      <point x="379" y="17" type="line" smooth="yes"/>
      <point x="379" y="4"/>
      <point x="390" y="-7"/>
    </contour>
    <contour>
      <point x="102" y="-7" type="curve" smooth="yes"/>
      <point x="115" y="-7"/>
      <point x="126" y="4"/>
      <point x="126" y="17" type="curve" smooth="yes"/>
      <point x="126" y="373" type="line" smooth="yes"/>
      <point x="126" y="386"/>
      <point x="115" y="396"/>
      <point x="102" y="396" type="curve" smooth="yes"/>
      <point x="89" y="396"/>
      <point x="78" y="386"/>
      <point x="78" y="373" type="curve" smooth="yes"/>
      <point x="78" y="17" type="line" smooth="yes"/>
      <point x="78" y="4"/>
      <point x="89" y="-7"/>
    </contour>
    <contour>
      <point x="311" y="-159" type="curve" smooth="yes"/>
      <point x="392" y="-127"/>
      <point x="427" y="-74"/>
      <point x="427" y="5" type="curve" smooth="yes"/>
      <point x="427" y="156" type="line" smooth="yes"/>
      <point x="427" y="168"/>
      <point x="416" y="179"/>
      <point x="403" y="179" type="curve" smooth="yes"/>
      <point x="390" y="179"/>
      <point x="379" y="168"/>
      <point x="379" y="156" type="curve" smooth="yes"/>
      <point x="379" y="5" type="line" smooth="yes"/>
      <point x="379" y="-58"/>
      <point x="357" y="-91"/>
      <point x="294" y="-116" type="curve" smooth="yes"/>
      <point x="282" y="-121"/>
      <point x="275" y="-134"/>
      <point x="280" y="-146" type="curve" smooth="yes"/>
      <point x="285" y="-157"/>
      <point x="299" y="-164"/>
    </contour>
    <contour>
      <point x="256" y="404" type="move" name="top"/>
    </contour>
    <contour>
      <point x="241" y="31" type="move" name="bottom"/>
    </contour>
  </outline>
</glyph>
<glyph name="tcaron" format="1">
  <advance width="343"/>
  <unicode hex="0165"/>
  <outline>
    <contour>
      <point x="279" y="-10" type="curve" smooth="yes"/>
      <point x="291" y="-10"/>
      <point x="302" y="1"/>
      <point x="302" y="13" type="curve" smooth="yes"/>
      <point x="302" y="25"/>
      <point x="292" y="36"/>
      <point x="279" y="36" type="curve" smooth="yes"/>
      <point x="194" y="38"/>
      <point x="151" y="70"/>
      <point x="151" y="135" type="curve" smooth="yes"/>
      <point x="151" y="501" type="line" smooth="yes"/>
      <point x="151" y="514"/>
      <point x="140" y="524"/>
      <point x="127" y="524" type="curve" smooth="yes"/>
      <point x="114" y="524"/>
      <point x="103" y="514"/>
      <point x="103" y="501" type="curve" smooth="yes"/>
      <point x="103" y="135" type="line" smooth="yes"/>
      <point x="103" y="46"/>
      <point x="152" y="-7"/>
    </contour>
    <contour>
      <point x="293" y="347" type="line" smooth="yes"/>
      <point x="306" y="347"/>
      <point x="316" y="357"/>
      <point x="316" y="369" type="curve" smooth="yes"/>
      <point x="316" y="382"/>
      <point x="306" y="393"/>
      <point x="293" y="393" type="curve" smooth="yes"/>
      <point x="34" y="393" type="line" smooth="yes"/>
      <point x="21" y="393"/>
      <point x="10" y="382"/>
      <point x="10" y="369" type="curve" smooth="yes"/>
      <point x="10" y="357"/>
      <point x="21" y="347"/>
      <point x="34" y="347" type="curve" smooth="yes"/>
    </contour>
    <contour>
      <point x="273" y="487" type="curve" smooth="yes"/>
      <point x="285" y="484"/>
      <point x="298" y="492"/>
      <point x="300" y="505" type="curve" smooth="yes"/>
      <point x="323" y="633" type="line" smooth="yes"/>
      <point x="326" y="645"/>
      <point x="318" y="657"/>
      <point x="305" y="660" type="curve" smooth="yes"/>
      <point x="293" y="663"/>
      <point x="280" y="655"/>
      <point x="278" y="642" type="curve" smooth="yes"/>
      <point x="255" y="514" type="line" smooth="yes"/>
      <point x="253" y="502"/>
      <point x="261" y="490"/>
    </contour>
  </outline>
</glyph>
<glyph name="tbar" format="1">
  <advance width="344"/>
  <unicode hex="0167"/>
  <outline>
    <contour>
      <point x="279" y="-10" type="curve" smooth="yes"/>
      <point x="291" y="-10"/>
      <point x="302" y="1"/>
      <point x="302" y="13" type="curve" smooth="yes"/>
      <point x="302" y="25"/>
      <point x="292" y="36"/>
      <point x="279" y="36" type="curve" smooth="yes"/>
      <point x="194" y="38"/>
      <point x="151" y="70"/>
      <point x="151" y="135" type="curve" smooth="yes"/>
      <point x="151" y="501" type="line" smooth="yes"/>
      <point x="151" y="514"/>
      <point x="140" y="524"/>
      <point x="127" y="524" type="curve" smooth="yes"/>
      <point x="114" y="524"/>
      <point x="103" y="514"/>
      <point x="103" y="501" type="curve" smooth="yes"/>
      <point x="103" y="135" type="line" smooth="yes"/>
      <point x="103" y="46"/>
      <point x="152" y="-7"/>
    </contour>
    <contour>
      <point x="294" y="228" type="line" smooth="yes"/>
      <point x="306" y="228"/>
      <point x="317" y="238"/>
      <point x="317" y="251" type="curve" smooth="yes"/>
      <point x="317" y="263"/>
      <point x="306" y="274"/>
      <point x="294" y="274" type="curve" smooth="yes"/>
      <point x="39" y="274" type="line" smooth="yes"/>
      <point x="27" y="274"/>
      <point x="16" y="263"/>
      <point x="16" y="251" type="curve" smooth="yes"/>
      <point x="16" y="238"/>
      <point x="27" y="228"/>
      <point x="39" y="228" type="curve" smooth="yes"/>
    </contour>
    <contour>
      <point x="293" y="347" type="line" smooth="yes"/>
      <point x="306" y="347"/>
      <point x="316" y="357"/>
      <point x="316" y="369" type="curve" smooth="yes"/>
      <point x="316" y="382"/>
      <point x="306" y="393"/>
      <point x="293" y="393" type="curve" smooth="yes"/>
      <point x="34" y="393" type="line" smooth="yes"/>
      <point x="21" y="393"/>
      <point x="10" y="382"/>
      <point x="10" y="369" type="curve" smooth="yes"/>
      <point x="10" y="357"/>
      <point x="21" y="347"/>
      <point x="34" y="347" type="curve" smooth="yes"/>
    </contour>
  </outline>
</glyph>
<glyph name="uogonek" format="1">
  <advance width="493"/>
  <unicode hex="0173"/>
  <outline>
    <contour>
      <point x="209" y="-7" type="curve" smooth="yes"/>
      <point x="281" y="-7"/>
      <point x="358" y="48"/>
      <point x="407" y="115" type="curve" smooth="yes"/>
      <point x="415" y="125"/>
      <point x="411" y="140"/>
      <point x="402" y="147" type="curve" smooth="yes"/>
      <point x="391" y="155"/>
      <point x="376" y="152"/>
      <point x="369" y="142" type="curve" smooth="yes"/>
      <point x="329" y="88"/>
      <point x="269" y="39"/>
      <point x="209" y="39" type="curve" smooth="yes"/>
      <point x="151" y="39"/>
      <point x="115" y="77"/>
      <point x="115" y="165" type="curve" smooth="yes"/>
      <point x="115" y="373" type="line" smooth="yes"/>
      <point x="115" y="386"/>
      <point x="104" y="396"/>
      <point x="91" y="396" type="curve" smooth="yes"/>
      <point x="78" y="396"/>
      <point x="67" y="386"/>
      <point x="67" y="373" type="curve" smooth="yes"/>
      <point x="67" y="165" type="line" smooth="yes"/>
      <point x="67" y="33"/>
      <point x="130" y="-7"/>
    </contour>
    <contour>
      <point x="429" y="-232" type="curve" smooth="yes"/>
      <point x="441" y="-232"/>
      <point x="452" y="-221"/>
      <point x="452" y="-209" type="curve" smooth="yes"/>
      <point x="452" y="-196"/>
      <point x="441" y="-186"/>
      <point x="429" y="-186" type="curve" smooth="yes"/>
      <point x="372" y="-186"/>
      <point x="329" y="-174"/>
      <point x="329" y="-145" type="curve" smooth="yes"/>
      <point x="329" y="-121"/>
      <point x="346" y="-96"/>
      <point x="408" y="-34" type="curve" smooth="yes"/>
      <point x="412" y="-30"/>
      <point x="416" y="-22"/>
      <point x="416" y="-16" type="curve" smooth="yes"/>
      <point x="416" y="36" type="line"/>
      <point x="368" y="36" type="line"/>
      <point x="368" y="-28" type="line"/>
      <point x="378" y="2" type="line"/>
      <point x="296" y="-80"/>
      <point x="281" y="-115"/>
      <point x="281" y="-146" type="curve" smooth="yes"/>
      <point x="281" y="-191"/>
      <point x="319" y="-232"/>
    </contour>
    <contour>
      <point x="416" y="17" type="line"/>
      <point x="416" y="373" type="line" smooth="yes"/>
      <point x="416" y="386"/>
      <point x="405" y="396"/>
      <point x="392" y="396" type="curve" smooth="yes"/>
      <point x="379" y="396"/>
      <point x="368" y="386"/>
      <point x="368" y="373" type="curve" smooth="yes"/>
      <point x="368" y="17" type="line"/>
    </contour>
    <contour>
      <point x="393" y="24" type="move" name="ogonek"/>
    </contour>
    <contour>
      <point x="233" y="392" type="move" name="top"/>
    </contour>
  </outline>
</glyph>
<glyph name="florin" format="1">
  <advance width="320"/>
  <unicode hex="0192"/>
  <outline>
    <contour>
      <point x="111" y="-168" type="curve" smooth="yes"/>
      <point x="124" y="-169"/>
      <point x="136" y="-160"/>
      <point x="138" y="-148" type="curve" smooth="yes"/>
      <point x="196" y="445" type="line" smooth="yes"/>
      <point x="201" y="506"/>
      <point x="233" y="547"/>
      <point x="316" y="552" type="curve" smooth="yes"/>
      <point x="329" y="553"/>
      <point x="339" y="563"/>
      <point x="338" y="576" type="curve" smooth="yes"/>
      <point x="337" y="588"/>
      <point x="326" y="599"/>
      <point x="313" y="598" type="curve" smooth="yes"/>
      <point x="198" y="591"/>
      <point x="156" y="532"/>
      <point x="148" y="450" type="curve" smooth="yes"/>
      <point x="90" y="-143" type="line" smooth="yes"/>
      <point x="89" y="-155"/>
      <point x="99" y="-167"/>
    </contour>
    <contour>
      <point x="296" y="349" type="line" smooth="yes"/>
      <point x="309" y="349"/>
      <point x="319" y="360"/>
      <point x="319" y="372" type="curve" smooth="yes"/>
      <point x="319" y="385"/>
      <point x="309" y="395"/>
      <point x="296" y="395" type="curve" smooth="yes"/>
      <point x="58" y="395" type="line" smooth="yes"/>
      <point x="45" y="395"/>
      <point x="34" y="385"/>
      <point x="34" y="372" type="curve" smooth="yes"/>
      <point x="34" y="360"/>
      <point x="45" y="349"/>
      <point x="58" y="349" type="curve" smooth="yes"/>
    </contour>
  </outline>
</glyph>
<glyph name="gravecomb" format="1">
  <advance width="0"/>
  <unicode hex="0300"/>
  <outline>
    <contour>
      <point x="4" y="481" type="curve" smooth="yes"/>
      <point x="14" y="488"/>
      <point x="18" y="503"/>
      <point x="11" y="513" type="curve" smooth="yes"/>
      <point x="-16" y="554"/>
      <point x="-34" y="577"/>
      <point x="-62" y="612" type="curve" smooth="yes"/>
      <point x="-70" y="623"/>
      <point x="-86" y="624"/>
      <point x="-95" y="617" type="curve" smooth="yes"/>
      <point x="-106" y="609"/>
      <point x="-107" y="594"/>
      <point x="-100" y="584" type="curve" smooth="yes"/>
      <point x="-72" y="549"/>
      <point x="-54" y="528"/>
      <point x="-29" y="487" type="curve" smooth="yes"/>
      <point x="-22" y="477"/>
      <point x="-7" y="474"/>
    </contour>
    <contour>
      <point x="0" y="394" type="move" name="_top"/>
    </contour>
  </outline>
</glyph>
<glyph name="acutecomb" format="1">
  <advance width="0"/>
  <unicode hex="0301"/>
  <outline>
    <contour>
      <point x="-23" y="485" type="curve" smooth="yes"/>
      <point x="-14" y="477"/>
      <point x="1" y="478"/>
      <point x="10" y="487" type="curve" smooth="yes"/>
      <point x="38" y="519"/>
      <point x="65" y="553"/>
      <point x="94" y="584" type="curve" smooth="yes"/>
      <point x="103" y="593"/>
      <point x="101" y="609"/>
      <point x="92" y="617" type="curve" smooth="yes"/>
      <point x="83" y="625"/>
      <point x="68" y="624"/>
      <point x="59" y="615" type="curve" smooth="yes"/>
      <point x="30" y="583"/>
      <point x="2" y="549"/>
      <point x="-26" y="517" type="curve" smooth="yes"/>
      <point x="-34" y="508"/>
      <point x="-33" y="493"/>
    </contour>
    <contour>
      <point x="0" y="394" type="move" name="_top"/>
    </contour>
  </outline>
</glyph>
<glyph name="tildecomb" format="1">
  <advance width="0"/>
  <unicode hex="0303"/>
  <outline>
    <contour>
      <point x="54" y="492" type="curve" smooth="yes"/>
      <point x="82" y="492"/>
      <point x="106" y="510"/>
      <point x="134" y="551" type="curve" smooth="yes"/>
      <point x="141" y="562"/>
      <point x="138" y="577"/>
      <point x="127" y="584" type="curve" smooth="yes"/>
      <point x="117" y="591"/>
      <point x="102" y="587"/>
      <point x="95" y="577" type="curve" smooth="yes"/>
      <point x="80" y="556"/>
      <point x="69" y="539"/>
      <point x="53" y="539" type="curve" smooth="yes"/>
      <point x="41" y="539"/>
      <point x="28" y="547"/>
      <point x="13" y="559" type="curve" smooth="yes"/>
      <point x="-17" y="581"/>
      <point x="-31" y="591"/>
      <point x="-55" y="591" type="curve" smooth="yes"/>
      <point x="-81" y="591"/>
      <point x="-111" y="570"/>
      <point x="-137" y="532" type="curve" smooth="yes"/>
      <point x="-145" y="521"/>
      <point x="-141" y="507"/>
      <point x="-131" y="500" type="curve" smooth="yes"/>
      <point x="-120" y="492"/>
      <point x="-106" y="495"/>
      <point x="-99" y="506" type="curve" smooth="yes"/>
      <point x="-84" y="526"/>
      <point x="-70" y="544"/>
      <point x="-54" y="544" type="curve" smooth="yes"/>
      <point x="-42" y="544"/>
      <point x="-32" y="535"/>
      <point x="-14" y="522" type="curve" smooth="yes"/>
      <point x="12" y="503"/>
      <point x="32" y="492"/>
    </contour>
    <contour>
      <point x="0" y="394" type="move" name="_top"/>
    </contour>
  </outline>
</glyph>
<glyph name="macroncomb" format="1">
  <advance width="0"/>
  <unicode hex="0304"/>
  <outline>
    <contour>
      <point x="106" y="515" type="line" smooth="yes"/>
      <point x="119" y="515"/>
      <point x="129" y="525"/>
      <point x="129" y="538" type="curve" smooth="yes"/>
      <point x="129" y="551"/>
      <point x="119" y="561"/>
      <point x="106" y="561" type="curve" smooth="yes"/>
      <point x="-105" y="561" type="line" smooth="yes"/>
      <point x="-118" y="561"/>
      <point x="-129" y="551"/>
      <point x="-129" y="538" type="curve" smooth="yes"/>
      <point x="-129" y="525"/>
      <point x="-118" y="515"/>
      <point x="-105" y="515" type="curve" smooth="yes"/>
    </contour>
    <contour>
      <point x="0" y="394" type="move" name="_top"/>
    </contour>
  </outline>
</glyph>
<glyph name="brevecomb" format="1">
  <advance width="0"/>
  <unicode hex="0306"/>
  <outline>
    <contour>
      <point x="0" y="492" type="curve" smooth="yes"/>
      <point x="59" y="492"/>
      <point x="95" y="521"/>
      <point x="124" y="568" type="curve" smooth="yes"/>
      <point x="131" y="578"/>
      <point x="127" y="592"/>
      <point x="116" y="599" type="curve" smooth="yes"/>
      <point x="105" y="606"/>
      <point x="91" y="603"/>
      <point x="84" y="591" type="curve" smooth="yes"/>
      <point x="64" y="561"/>
      <point x="41" y="538"/>
      <point x="0" y="538" type="curve" smooth="yes"/>
      <point x="-37" y="538"/>
      <point x="-67" y="562"/>
      <point x="-87" y="592" type="curve" smooth="yes"/>
      <point x="-94" y="603"/>
      <point x="-109" y="606"/>
      <point x="-120" y="599" type="curve" smooth="yes"/>
      <point x="-131" y="592"/>
      <point x="-134" y="577"/>
      <point x="-127" y="567" type="curve" smooth="yes"/>
      <point x="-97" y="522"/>
      <point x="-51" y="492"/>
    </contour>
    <contour>
      <point x="0" y="394" type="move" name="_top"/>
    </contour>
  </outline>
</glyph>
<glyph name="dotaccentcomb" format="1">
  <advance width="0"/>
  <unicode hex="0307"/>
  <outline>
    <contour>
      <point x="1" y="499" type="curve" smooth="yes"/>
      <point x="22" y="499"/>
      <point x="43" y="514"/>
      <point x="43" y="547" type="curve" smooth="yes"/>
      <point x="43" y="580"/>
      <point x="21" y="597"/>
      <point x="1" y="597" type="curve" smooth="yes"/>
      <point x="-24" y="597"/>
      <point x="-43" y="577"/>
      <point x="-43" y="547" type="curve" smooth="yes"/>
      <point x="-43" y="516"/>
      <point x="-24" y="499"/>
    </contour>
    <contour>
      <point x="0" y="394" type="move" name="_top"/>
    </contour>
  </outline>
</glyph>
<glyph name="dieresiscomb" format="1">
  <advance width="0"/>
  <unicode hex="0308"/>
  <outline>
    <contour>
      <point x="93" y="494" type="curve" smooth="yes"/>
      <point x="114" y="494"/>
      <point x="134" y="509"/>
      <point x="134" y="542" type="curve" smooth="yes"/>
      <point x="134" y="575"/>
      <point x="113" y="592"/>
      <point x="93" y="592" type="curve" smooth="yes"/>
      <point x="73" y="592"/>
      <point x="52" y="575"/>
      <point x="52" y="542" type="curve" smooth="yes"/>
      <point x="52" y="509"/>
      <point x="72" y="494"/>
    </contour>
    <contour>
      <point x="-94" y="494" type="curve" smooth="yes"/>
      <point x="-75" y="494"/>
      <point x="-54" y="508"/>
      <point x="-54" y="542" type="curve" smooth="yes"/>
      <point x="-54" y="577"/>
      <point x="-76" y="592"/>
      <point x="-94" y="592" type="curve" smooth="yes"/>
      <point x="-117" y="592"/>
      <point x="-136" y="575"/>
      <point x="-136" y="542" type="curve"/>
      <point x="-136" y="509"/>
      <point x="-118" y="494"/>
    </contour>
    <contour>
      <point x="0" y="394" type="move" name="_top"/>
    </contour>
  </outline>
</glyph>
<glyph name="ringcomb" format="1">
  <advance width="0"/>
  <unicode hex="030A"/>
  <outline>
    <contour>
      <point x="0" y="453" type="curve" smooth="yes"/>
      <point x="68" y="453"/>
      <point x="107" y="502"/>
      <point x="107" y="553" type="curve" smooth="yes"/>
      <point x="107" y="603"/>
      <point x="68" y="652"/>
      <point x="0" y="652" type="curve" smooth="yes"/>
      <point x="-66" y="652"/>
      <point x="-105" y="601"/>
      <point x="-105" y="553" type="curve" smooth="yes"/>
      <point x="-105" y="502"/>
      <point x="-66" y="453"/>
    </contour>
    <contour>
      <point x="0" y="498" type="curve" smooth="yes"/>
      <point x="-37" y="498"/>
      <point x="-59" y="523"/>
      <point x="-59" y="553" type="curve" smooth="yes"/>
      <point x="-59" y="580"/>
      <point x="-36" y="607"/>
      <point x="0" y="607" type="curve" smooth="yes"/>
      <point x="37" y="607"/>
      <point x="61" y="581"/>
      <point x="61" y="553" type="curve" smooth="yes"/>
      <point x="61" y="522"/>
      <point x="37" y="498"/>
    </contour>
    <contour>
      <point x="0" y="394" type="move" name="_top"/>
    </contour>
  </outline>
</glyph>
<glyph name="hungarumlautcomb" format="1">
  <advance width="0"/>
  <unicode hex="030B"/>
  <outline>
    <contour>
      <point x="63" y="474" type="curve" smooth="yes"/>
      <point x="75" y="469"/>
      <point x="89" y="474"/>
      <point x="94" y="486" type="curve" smooth="yes"/>
      <point x="107" y="515"/>
      <point x="120" y="546"/>
      <point x="144" y="580" type="curve" smooth="yes"/>
      <point x="151" y="591"/>
      <point x="148" y="606"/>
      <point x="137" y="613" type="curve" smooth="yes"/>
      <point x="127" y="619"/>
      <point x="111" y="616"/>
      <point x="104" y="606" type="curve" smooth="yes"/>
      <point x="80" y="569"/>
      <point x="64" y="536"/>
      <point x="51" y="504" type="curve" smooth="yes"/>
      <point x="45" y="493"/>
      <point x="51" y="479"/>
    </contour>
    <contour>
      <point x="-109" y="473" type="curve" smooth="yes"/>
      <point x="-97" y="469"/>
      <point x="-83" y="475"/>
      <point x="-78" y="487" type="curve" smooth="yes"/>
      <point x="-67" y="516"/>
      <point x="-52" y="547"/>
      <point x="-30" y="580" type="curve" smooth="yes"/>
      <point x="-23" y="591"/>
      <point x="-27" y="606"/>
      <point x="-37" y="613" type="curve" smooth="yes"/>
      <point x="-48" y="619"/>
      <point x="-63" y="616"/>
      <point x="-70" y="606" type="curve" smooth="yes"/>
      <point x="-94" y="568"/>
      <point x="-110" y="535"/>
      <point x="-123" y="503" type="curve" smooth="yes"/>
      <point x="-128" y="492"/>
      <point x="-121" y="478"/>
    </contour>
    <contour>
      <point x="0" y="394" type="move" name="_top"/>
    </contour>
  </outline>
</glyph>
<glyph name="commaaccentcomb" format="1">
  <advance width="0"/>
  <unicode hex="0326"/>
  <outline>
    <contour>
      <point x="-64" y="-261" type="curve" smooth="yes"/>
      <point x="-2" y="-234"/>
      <point x="31" y="-189"/>
      <point x="31" y="-144" type="curve" smooth="yes"/>
      <point x="31" y="-126"/>
      <point x="29" y="-107"/>
      <point x="20" y="-93" type="curve" smooth="yes"/>
      <point x="12" y="-83"/>
      <point x="-3" y="-78"/>
      <point x="-14" y="-85" type="curve" smooth="yes"/>
      <point x="-24" y="-92"/>
      <point x="-30" y="-106"/>
      <point x="-23" y="-117" type="curve" smooth="yes"/>
      <point x="-18" y="-124"/>
      <point x="-16" y="-134"/>
      <point x="-16" y="-144" type="curve" smooth="yes"/>
      <point x="-16" y="-176"/>
      <point x="-44" y="-205"/>
      <point x="-83" y="-220" type="curve" smooth="yes"/>
      <point x="-95" y="-225"/>
      <point x="-100" y="-239"/>
      <point x="-95" y="-250" type="curve" smooth="yes"/>
      <point x="-90" y="-262"/>
      <point x="-75" y="-266"/>
    </contour>
    <contour>
      <point x="-1" y="0" type="move" name="_bottom"/>
    </contour>
  </outline>
</glyph>
<glyph name="cedillacomb" format="1">
  <advance width="0"/>
  <unicode hex="0327"/>
  <outline>
    <contour>
      <point x="-126" y="-243" type="curve" smooth="yes"/>
      <point x="-117" y="-251"/>
      <point x="-102" y="-251"/>
      <point x="-94" y="-242" type="curve" smooth="yes"/>
      <point x="-70" y="-218"/>
      <point x="-17" y="-165"/>
      <point x="12" y="-139" type="curve" smooth="yes"/>
      <point x="21" y="-130"/>
      <point x="21" y="-115"/>
      <point x="13" y="-106" type="curve" smooth="yes"/>
      <point x="4" y="-97"/>
      <point x="-11" y="-97"/>
      <point x="-20" y="-105" type="curve" smooth="yes"/>
      <point x="-50" y="-133"/>
      <point x="-103" y="-185"/>
      <point x="-127" y="-210" type="curve" smooth="yes"/>
      <point x="-136" y="-219"/>
      <point x="-136" y="-234"/>
    </contour>
    <contour>
      <point x="0" y="0" type="move" name="_bottom"/>
    </contour>
  </outline>
</glyph>
<glyph name="ogonekcomb" format="1">
  <advance width="0"/>
  <unicode hex="0328"/>
  <outline>
    <contour>
      <point x="15" y="-252" type="curve" smooth="yes"/>
      <point x="28" y="-252"/>
      <point x="38" y="-241"/>
      <point x="38" y="-229" type="curve" smooth="yes"/>
      <point x="38" y="-217"/>
      <point x="28" y="-207"/>
      <point x="15" y="-207" type="curve" smooth="yes"/>
      <point x="-44" y="-207"/>
      <point x="-85" y="-193"/>
      <point x="-85" y="-165" type="curve" smooth="yes"/>
      <point x="-85" y="-141"/>
      <point x="-65" y="-116"/>
      <point x="14" y="-53" type="curve" smooth="yes"/>
      <point x="19" y="-49"/>
      <point x="22" y="-41"/>
      <point x="22" y="-35" type="curve" smooth="yes"/>
      <point x="22" y="1" type="line" smooth="yes"/>
      <point x="22" y="14"/>
      <point x="12" y="24"/>
      <point x="-1" y="24" type="curve" smooth="yes"/>
      <point x="-14" y="24"/>
      <point x="-24" y="14"/>
      <point x="-24" y="1" type="curve" smooth="yes"/>
      <point x="-24" y="-35" type="line"/>
      <point x="-16" y="-18" type="line"/>
      <point x="-118" y="-100"/>
      <point x="-132" y="-135"/>
      <point x="-132" y="-167" type="curve" smooth="yes"/>
      <point x="-132" y="-210"/>
      <point x="-94" y="-252"/>
    </contour>
    <contour>
      <point x="0" y="0" type="move" name="_ogonek"/>
    </contour>
  </outline>
</glyph>
<glyph name="strokeshortcomb" format="1">
  <advance width="0"/>
  <unicode hex="0335"/>
  <outline>
    <contour>
      <point x="297" y="232" type="line" smooth="yes"/>
      <point x="310" y="232"/>
      <point x="320" y="242"/>
      <point x="320" y="255" type="curve" smooth="yes"/>
      <point x="320" y="268"/>
      <point x="310" y="278"/>
      <point x="297" y="278" type="curve" smooth="yes"/>
      <point x="11" y="278" type="line" smooth="yes"/>
      <point x="-2" y="278"/>
      <point x="-12" y="268"/>
      <point x="-12" y="255" type="curve" smooth="yes"/>
      <point x="-12" y="242"/>
      <point x="-2" y="232"/>
      <point x="11" y="232" type="curve" smooth="yes"/>
    </contour>
  </outline>
</glyph>
<glyph name="pi" format="1">
  <advance width="636"/>
  <unicode hex="03C0"/>
  <outline>
    <contour>
      <point x="514" y="-4" type="curve" smooth="yes"/>
      <point x="524" y="-11"/>
      <point x="539" y="-7"/>
      <point x="546" y="4" type="curve" smooth="yes"/>
      <point x="552" y="14"/>
      <point x="549" y="28"/>
      <point x="538" y="35" type="curve" smooth="yes"/>
      <point x="486" y="66"/>
      <point x="466" y="113"/>
      <point x="466" y="220" type="curve" smooth="yes"/>
      <point x="466" y="406" type="line" smooth="yes"/>
      <point x="466" y="419"/>
      <point x="455" y="429"/>
      <point x="442" y="429" type="curve" smooth="yes"/>
      <point x="425" y="429"/>
      <point x="418" y="423"/>
      <point x="418" y="406" type="curve"/>
      <point x="418" y="220" type="line" smooth="yes"/>
      <point x="418" y="87"/>
      <point x="451" y="34"/>
    </contour>
    <contour>
      <point x="190" y="-8" type="curve" smooth="yes"/>
      <point x="203" y="-8"/>
      <point x="214" y="3"/>
      <point x="214" y="16" type="curve" smooth="yes"/>
      <point x="214" y="406" type="line" smooth="yes"/>
      <point x="214" y="419"/>
      <point x="203" y="429"/>
      <point x="190" y="429" type="curve" smooth="yes"/>
      <point x="173" y="429"/>
      <point x="166" y="423"/>
      <point x="166" y="406" type="curve"/>
      <point x="166" y="16" type="line" smooth="yes"/>
      <point x="166" y="3"/>
      <point x="177" y="-8"/>
    </contour>
    <contour>
      <point x="554" y="389" type="line" smooth="yes"/>
      <point x="567" y="389"/>
      <point x="577" y="399"/>
      <point x="577" y="412" type="curve" smooth="yes"/>
      <point x="577" y="429"/>
      <point x="571" y="435"/>
      <point x="554" y="435" type="curve"/>
      <point x="82" y="435" type="line" smooth="yes"/>
      <point x="69" y="435"/>
      <point x="58" y="425"/>
      <point x="58" y="412" type="curve" smooth="yes"/>
      <point x="58" y="399"/>
      <point x="69" y="389"/>
      <point x="82" y="389" type="curve" smooth="yes"/>
    </contour>
  </outline>
</glyph>
<glyph name="Danda" format="1">
  <advance width="322"/>
  <unicode hex="0964"/>
  <outline>
    <contour>
      <point x="211" y="-12" type="curve" smooth="yes"/>
      <point x="225" y="-12"/>
      <point x="235" y="1"/>
      <point x="235" y="17" type="curve" smooth="yes"/>
      <point x="235" y="620" type="line" smooth="yes"/>
      <point x="235" y="636"/>
      <point x="224" y="649"/>
      <point x="211" y="649" type="curve" smooth="yes"/>
      <point x="198" y="649"/>
      <point x="187" y="636"/>
      <point x="187" y="620" type="curve" smooth="yes"/>
      <point x="187" y="17" type="line" smooth="yes"/>
      <point x="187" y="1"/>
      <point x="198" y="-12"/>
    </contour>
  </outline>
</glyph>
<glyph name="bVisarga" format="1">
  <advance width="350"/>
  <unicode hex="0983"/>
  <outline>
    <contour>
      <point x="187" y="367" type="curve" smooth="yes"/>
      <point x="242" y="367"/>
      <point x="295" y="405"/>
      <point x="295" y="474" type="curve" smooth="yes"/>
      <point x="295" y="546"/>
      <point x="237" y="587"/>
      <point x="178" y="587" type="curve" smooth="yes"/>
      <point x="121" y="587"/>
      <point x="67" y="550"/>
      <point x="67" y="485" type="curve" smooth="yes"/>
      <point x="67" y="419"/>
      <point x="121" y="367"/>
    </contour>
    <contour>
      <point x="187" y="60" type="curve" smooth="yes"/>
      <point x="242" y="60"/>
      <point x="295" y="98"/>
      <point x="295" y="166" type="curve" smooth="yes"/>
      <point x="295" y="233"/>
      <point x="246" y="280"/>
      <point x="177" y="280" type="curve" smooth="yes"/>
      <point x="104" y="280"/>
      <point x="67" y="227"/>
      <point x="67" y="176" type="curve" smooth="yes"/>
      <point x="67" y="113"/>
      <point x="121" y="60"/>
    </contour>
    <contour>
      <point x="184" y="107" type="curve" smooth="yes"/>
      <point x="155" y="107"/>
      <point x="116" y="128"/>
      <point x="116" y="171" type="curve" smooth="yes"/>
      <point x="116" y="201"/>
      <point x="135" y="234"/>
      <point x="180" y="234" type="curve" smooth="yes"/>
      <point x="218" y="234"/>
      <point x="249" y="209"/>
      <point x="249" y="172" type="curve" smooth="yes"/>
      <point x="249" y="135"/>
      <point x="219" y="107"/>
    </contour>
    <contour>
      <point x="184" y="414" type="curve" smooth="yes"/>
      <point x="141" y="414"/>
      <point x="116" y="447"/>
      <point x="116" y="481" type="curve" smooth="yes"/>
      <point x="116" y="512"/>
      <point x="136" y="541"/>
      <point x="179" y="541" type="curve" smooth="yes"/>
      <point x="224" y="541"/>
      <point x="249" y="508"/>
      <point x="249" y="475" type="curve" smooth="yes"/>
      <point x="249" y="443"/>
      <point x="226" y="414"/>
    </contour>
  </outline>
</glyph>
<glyph name="bA" format="1">
  <advance width="732"/>
  <unicode hex="0985"/>
  <outline>
    <contour>
      <point x="613" y="-12" type="curve" smooth="yes"/>
      <point x="626" y="-12"/>
      <point x="637" y="1"/>
      <point x="637" y="17" type="curve" smooth="yes"/>
      <point x="637" y="465" type="line" smooth="yes"/>
      <point x="637" y="537"/>
      <point x="643" y="547"/>
      <point x="677" y="547" type="curve" smooth="yes"/>
      <point x="732" y="547" type="line" smooth="yes"/>
      <point x="745" y="547"/>
      <point x="756" y="555"/>
      <point x="756" y="567" type="curve" smooth="yes"/>
      <point x="756" y="578"/>
      <point x="745" y="587"/>
      <point x="732" y="587" type="curve" smooth="yes"/>
      <point x="663" y="587" type="line" smooth="yes"/>
      <point x="628" y="587"/>
      <point x="593" y="567"/>
      <point x="593" y="499" type="curve"/>
      <point x="613" y="513" type="line"/>
      <point x="613" y="570"/>
      <point x="580" y="587"/>
      <point x="534" y="587" type="curve" smooth="yes"/>
      <point x="0" y="587" type="line" smooth="yes"/>
      <point x="-13" y="587"/>
      <point x="-24" y="578"/>
      <point x="-24" y="567" type="curve" smooth="yes"/>
      <point x="-24" y="555"/>
      <point x="-13" y="547"/>
      <point x="0" y="547" type="curve" smooth="yes"/>
      <point x="532" y="547" type="line" smooth="yes"/>
      <point x="582" y="547"/>
      <point x="589" y="524"/>
      <point x="589" y="472" type="curve" smooth="yes"/>
      <point x="589" y="17" type="line" smooth="yes"/>
      <point x="589" y="1"/>
      <point x="600" y="-12"/>
    </contour>
    <contour>
      <point x="321" y="100" type="curve" smooth="yes"/>
      <point x="426" y="100"/>
      <point x="501" y="177"/>
      <point x="501" y="281" type="curve" smooth="yes"/>
      <point x="501" y="386"/>
      <point x="424" y="473"/>
      <point x="318" y="473" type="curve" smooth="yes"/>
      <point x="258" y="473"/>
      <point x="216" y="438"/>
      <point x="216" y="386" type="curve" smooth="yes"/>
      <point x="216" y="342"/>
      <point x="250" y="303"/>
      <point x="298" y="303" type="curve" smooth="yes"/>
      <point x="344" y="303"/>
      <point x="375" y="340"/>
      <point x="375" y="381" type="curve" smooth="yes"/>
      <point x="375" y="419"/>
      <point x="349" y="447"/>
      <point x="308" y="451" type="curve"/>
      <point x="314" y="441" type="line"/>
      <point x="377" y="441"/>
      <point x="457" y="392"/>
      <point x="457" y="296" type="curve" smooth="yes"/>
      <point x="457" y="210"/>
      <point x="396" y="153"/>
      <point x="313" y="153" type="curve" smooth="yes"/>
      <point x="169" y="153"/>
      <point x="110" y="329"/>
      <point x="75" y="436" type="curve" smooth="yes"/>
      <point x="71" y="449"/>
      <point x="65" y="455"/>
      <point x="55" y="455" type="curve" smooth="yes"/>
      <point x="42" y="455"/>
      <point x="37" y="443"/>
      <point x="37" y="434" type="curve" smooth="yes"/>
      <point x="37" y="405"/>
      <point x="110" y="100"/>
    </contour>
    <contour>
      <point x="614" y="88" type="line"/>
      <point x="596" y="151"/>
      <point x="534" y="212"/>
      <point x="473" y="268" type="curve"/>
      <point x="455" y="215" type="line"/>
      <point x="526" y="171"/>
      <point x="589" y="108"/>
      <point x="589" y="40" type="curve"/>
    </contour>
    <contour>
      <point x="300" y="349" type="curve" smooth="yes"/>
      <point x="279" y="349"/>
      <point x="261" y="366"/>
      <point x="261" y="387" type="curve" smooth="yes"/>
      <point x="261" y="408"/>
      <point x="279" y="426"/>
      <point x="300" y="426" type="curve" smooth="yes"/>
      <point x="321" y="426"/>
      <point x="338" y="408"/>
      <point x="338" y="387" type="curve" smooth="yes"/>
      <point x="338" y="366"/>
      <point x="321" y="349"/>
    </contour>
  </outline>
</glyph>
<glyph name="bVocalicR" format="1">
  <advance width="665"/>
  <unicode hex="098B"/>
  <outline>
    <contour>
      <point x="399" y="109" type="line"/>
      <point x="373" y="195"/>
      <point x="219" y="281"/>
      <point x="71" y="298" type="curve"/>
      <point x="86" y="282" type="line"/>
      <point x="319" y="362"/>
      <point x="402" y="410"/>
      <point x="402" y="480" type="curve" smooth="yes"/>
      <point x="402" y="544"/>
      <point x="337" y="590"/>
      <point x="287" y="590" type="curve" smooth="yes"/>
      <point x="205" y="590"/>
      <point x="228" y="468"/>
      <point x="142" y="468" type="curve" smooth="yes"/>
      <point x="125" y="468"/>
      <point x="104" y="473"/>
      <point x="95" y="478" type="curve"/>
      <point x="89" y="463" type="line"/>
      <point x="137" y="463"/>
      <point x="161" y="489"/>
      <point x="161" y="524" type="curve" smooth="yes"/>
      <point x="161" y="562"/>
      <point x="132" y="589"/>
      <point x="93" y="589" type="curve" smooth="yes"/>
      <point x="52" y="589"/>
      <point x="23" y="560"/>
      <point x="23" y="521" type="curve" smooth="yes"/>
      <point x="23" y="476"/>
      <point x="64" y="430"/>
      <point x="137" y="430" type="curve" smooth="yes"/>
      <point x="256" y="430"/>
      <point x="250" y="547"/>
      <point x="299" y="547" type="curve" smooth="yes"/>
      <point x="322" y="547"/>
      <point x="365" y="522"/>
      <point x="365" y="489" type="curve" smooth="yes"/>
      <point x="365" y="441"/>
      <point x="282" y="407"/>
      <point x="74" y="326" type="curve" smooth="yes"/>
      <point x="52" y="317"/>
      <point x="46" y="304"/>
      <point x="46" y="292" type="curve" smooth="yes"/>
      <point x="46" y="271"/>
      <point x="63" y="259"/>
      <point x="88" y="252" type="curve" smooth="yes"/>
      <point x="146" y="237"/>
      <point x="376" y="175"/>
      <point x="376" y="57" type="curve"/>
    </contour>
    <contour>
      <point x="93" y="485" type="curve" smooth="yes"/>
      <point x="75" y="485"/>
      <point x="60" y="500"/>
      <point x="60" y="519" type="curve" smooth="yes"/>
      <point x="60" y="538"/>
      <point x="75" y="553"/>
      <point x="93" y="553" type="curve" smooth="yes"/>
      <point x="112" y="553"/>
      <point x="127" y="538"/>
      <point x="127" y="519" type="curve" smooth="yes"/>
      <point x="127" y="500"/>
      <point x="112" y="485"/>
    </contour>
    <contour>
      <point x="545" y="93" type="line"/>
      <point x="545" y="184"/>
      <point x="424" y="198"/>
      <point x="424" y="302" type="curve"/>
      <point x="392" y="262" type="line"/>
      <point x="392" y="176"/>
      <point x="523" y="147"/>
      <point x="523" y="67" type="curve"/>
    </contour>
    <contour>
      <point x="400" y="-12" type="curve" smooth="yes"/>
      <point x="414" y="-12"/>
      <point x="424" y="1"/>
      <point x="424" y="17" type="curve" smooth="yes"/>
      <point x="424" y="580" type="line" smooth="yes"/>
      <point x="424" y="596"/>
      <point x="414" y="609"/>
      <point x="400" y="609" type="curve" smooth="yes"/>
      <point x="387" y="609"/>
      <point x="376" y="595"/>
      <point x="376" y="579" type="curve" smooth="yes"/>
      <point x="376" y="17" type="line" smooth="yes"/>
      <point x="376" y="1"/>
      <point x="387" y="-12"/>
    </contour>
    <contour>
      <point x="547" y="32" type="curve" smooth="yes"/>
      <point x="560" y="32"/>
      <point x="571" y="45"/>
      <point x="571" y="62" type="curve" smooth="yes"/>
      <point x="571" y="465" type="line" smooth="yes"/>
      <point x="571" y="537"/>
      <point x="577" y="547"/>
      <point x="611" y="547" type="curve" smooth="yes"/>
      <point x="666" y="547" type="line" smooth="yes"/>
      <point x="679" y="547"/>
      <point x="690" y="555"/>
      <point x="690" y="567" type="curve" smooth="yes"/>
      <point x="690" y="578"/>
      <point x="679" y="587"/>
      <point x="666" y="587" type="curve" smooth="yes"/>
      <point x="596" y="587" type="line" smooth="yes"/>
      <point x="546" y="587"/>
      <point x="523" y="556"/>
      <point x="523" y="481" type="curve" smooth="yes"/>
      <point x="523" y="62" type="line" smooth="yes"/>
      <point x="523" y="45"/>
      <point x="533" y="32"/>
    </contour>
  </outline>
</glyph>
